<?xml version="1.0" encoding="UTF-8"?>
<svg version="1.1" viewBox="0 0 157 30" xmlns="http://www.w3.org/2000/svg">
 <path d="m0 0v1h1 1 1v-1h-1-1-1zm9 0v1h1v-1h-1zm2 0v1h1v-1h-1zm2 0v1h1v-1h-1zm5 0v1h1v-1h-1zm3 0v1h1v-1h-1zm2 0v1h1v-1h-1zm4 0v1h1v-1h-1zm3 0v1h1v-1h-1zm9 0v1h1v-1h-1zm6 0v1h1 1v-1h-1-1zm3 0v1h1v-1h-1zm3 0v1h1v-1h-1zm-46 1v1h1v-1h-1zm4 1v1h1v-1h-1zm2 0v1 1h1v-1-1h-1zm6 0v1h1 1v-1h-1-1zm2 1v1h1v1h1 1v-1h-1v-1-1h-1v1h-1zm3 2v1h1v-1h-1zm1 1v1h-1v1h1 1v-1-1h-1zm-1 2h-1-1v1h1v1h1v-1-1zm-3-4h-1v1h1v-1zm4-2v1h1v-1h-1zm3 0v1 1h1v-1-1h-1zm6 0v1h1 1v-1h-1-1zm3 0v1h1v-1h-1zm1 1v1h1v-1h-1zm1 0h1v-1h-1v1zm0 1v1h1v-1h-1zm0 1h-1v1h-1v1h-1v1h1 1v-1h1v-1-1zm-1 3v1h1v-1h-1zm0 1h-1-1v1 1h1v-1h1v-1zm0 1v1h1v-1h-1zm-2-1v-1h-1v1h1zm-1 0h-1v1h1v-1zm0-1v-1-1h-1v1h-1v1h1 1zm-2 0h-1v1 1h1v-1-1zm1-2v-1h-1v1h1zm-1-1v-1h-1v-1h-1v1 1h1 1zm2 1h1 1v-1h-1-1v1zm7-4v1h1v-1h-1zm4 0v1h1v-1h-1zm2 0v1h1v-1h-1zm2 0v1h1v-1h-1zm1 1v1h1v-1h-1zm1 0h1v-1h-1v1zm8 0v1 1h1v-1h1 1 1v-1h-1-1-1-1zm0 2h-1v1h1v-1zm5-2v1h1v-1h-1zm12 0v1h1v-1h-1zm1 1v1h1v-1h-1zm-1 0h-1v1h1v-1zm5-1v1h1 1v-1h-1-1zm3 0v1 1h1v-1-1h-1zm1 2v1h1v-1h-1zm0 1h-1v1h1v-1zm-1 0v-1h-1v1h1zm-1 0h-1v1h1v-1zm-1 1h-1-1v1h1 1v-1zm0 1v1 1h1v-1h1v-1h-1-1zm0-2v-1h-1-1-1v1h1 1 1zm-3 0h-1v1h1v-1zm-1 1h-1v1 1h1v-1-1zm-1 0v-1h-1-1-1v1h1 1 1zm12-4v1h1 1v-1h-1-1zm0 1h-1v1h1v-1zm3-1v1h1v-1h-1zm1 1v1h1v-1h-1zm2-1v1 1h1v-1-1h-1zm2 0v1h1v-1h-1zm1 1v1h1v-1h-1zm0 1h-1v1 1h1v-1-1zm4-2v1h1v-1h-1zm5 0v1h1v-1h-1zm7 0v1h-1-1v1h-1v1 1 1h1v-1-1h1v-1h1 1v1h1 1v-1h-1v-1-1h-1-1zm-2 5v1h1v-1h-1zm0 1h-1-1v1h1v1 1h1 1v-1-1h-1v-1zm-1 3h-1-1-1v1 1h1v-1h1v1h1v-1-1zm0 2v1h1v-1h-1zm1 0h1v-1h-1v1zm0 1v1h1v-1h-1zm0 1h-1-1v1h1 1v-1zm-2 1h-1v1h1v-1zm-1 0v-1-1h-1v1 1h1zm1-7h-1v1h1v-1zm10-7v1h1v-1h-1zm0 1h-1-1v1 1h1v-1h1v-1zm0 1v1h1v-1h-1zm0 1h-1v1h1v-1zm-1 1h-1v1h1v-1zm-1 1h-1v1h-1v1h1v1h1v-1-1-1zm-2 1v-1-1h-1v1 1h1zm10-6v1 1h1 1v-1h-1v-1h-1zm11 0v1 1h1v1h1v-1-1h-1v-1h-1zm5 0v1 1h1v-1-1h-1zm1 2v1h1v-1h-1zm1 1v1 1h1v-1-1h-1zm1 2v1h1v-1h-1zm-2-2h-1v-1h-1v1 1h-1v1h1 1v-1h1v-1zm1-3v1h1v-1h-1zm5 0v1h1 1v-1h-1-1zm8 0v1h1v-1h-1zm-142 1v1h1v-1h-1zm1 1v1 1h1v-1-1h-1zm1 0h1v-1h-1v1zm-2 0h-1v1h1v-1zm25-1v1h1 1v-1h-1-1zm5 0v1h1v-1h-1zm1 1v1h-1v1h1 1 1v-1h-1v-1h-1zm2 1h1v-1h-1v1zm0 1v1h1 1v-1h-1-1zm2 1v1h1 1v-1h-1-1zm-5-2v-1h-1-1v1h-1v1h1 1v-1h1zm-3 1h-1v1h1v-1zm12-3v1h1v-1h-1zm2 0v1h1v-1h-1zm13 0v1h1v-1h-1zm0 1h-1v1h1v-1zm3-1v1h1 1v-1h-1-1zm28 0v1h1v-1h-1zm46 0v1h1v-1h-1zm6 0v1h1v-1h-1zm1 1v1 1 1h1v-1-1-1h-1zm1 0h1v-1h-1v1zm-147 0v1h1v-1h-1zm3 0v1 1h-1-1v1h1 1 1v-1-1-1h-1zm40 0v1h1v-1h-1zm1 1v1h1v-1h-1zm1 0h1v-1h-1v1zm11-1v1h1v-1h-1zm43 0v1h1v-1h-1zm2 0v1h1v-1h-1zm14 0v1h1v-1h-1zm1 1v1 1h1 1v1h1v-1-1h-1-1v-1h-1zm1 0h1v-1h-1v1zm5-1v1h1 1 1v-1h-1-1-1zm4 0v1h1v-1h-1zm-121 1v1h1v-1h-1zm6 0v1 1h1v-1-1h-1zm2 0v1h1v-1h-1zm34 0v1h1 1 1v-1h-1-1-1zm12 0v1h1v-1h-1zm0 1h-1-1v1h1v1h1v-1-1zm6-1v1h1v-1h-1zm0 1h-1v1h-1v1 1h1v-1h1v-1-1zm0 2v1h1v1h1v-1-1h-1-1zm2 2v1h1v-1h-1zm1 1v1h1v-1h-1zm-3-2h-1v1h1v-1zm18-4v1h1v-1h-1zm1 1v1 1h1v-1h1v-1h-1-1zm2 1v1h1v-1h-1zm1 0h1v-1h-1v1zm1 0v1h1v-1h-1zm0 1h-1v1h1v-1zm-1 1h-1v1h1v-1zm-3-1h-1-1v1h1v1h-1v1h1 1v-1-1-1zm9-3v1h1v1h1v-1-1h-1-1zm46 0v1h1 1 1v-1h-1-1-1zm-120 1v1h1v-1h-1zm60 0v1h1v-1h-1zm22 0v1h1 1v-1h-1-1zm13 0v1h1v-1h-1zm6 0v1 1h1v1 1h1v-1-1-1-1h-1-1zm5 0v1h1v-1h-1zm1 1v1h1v1h1v-1h1v-1h1v-1h-1-1v1h-1-1zm3 1v1h1v-1h-1zm2-2v1h1v-1h-1zm17 0v1h1 1 1v-1h-1-1-1zm-142 1v1h1v-1h-1zm0 1h-1v1h1v-1zm0 1v1h1v-1h-1zm3-2v1h1v-1h-1zm0 1h-1v1 1h1v-1-1zm28-1v1h1v-1h-1zm2 0v1h1v-1h-1zm16 0v1h1v-1h-1zm6 0v1h-1v1h1 1v-1-1h-1zm-1 2h-1v1h1v-1zm8-2v1 1h1v-1-1h-1zm22 0v1h1v-1h-1zm1 1v1h1v-1h-1zm0 1h-1v1h1v-1zm5-2v1h1v-1h-1zm0 1h-1v1 1h1v-1-1zm2-1v1h1v-1h-1zm1 1v1h1v-1h-1zm24-1v1h1v-1h-1zm20 0v1h1v-1h-1zm1 1v1h1v-1h-1zm1 1v1h1v-1h-1zm1 0h1v-1h-1v1zm-3-1h-1v1h1v-1zm-1 1h-1-1v1 1 1h1v-1h1 1v-1h-1v-1zm1 2v1h-1-1v1h1 1 1v-1-1h-1zm-2 2h-1v1h1v-1zm0 1v1h1v-1h-1zm-1 0h-1-1v1h1 1v-1zm-139-6v1h1 1 1v-1h-1-1-1zm16 0v1h1v-1h-1zm1 1v1 1 1h-1v1h1v1 1h1v-1-1-1h1v-1h-1v-1-1h-1zm1 0h1v-1h-1v1zm0 6v1h1v-1h-1zm0 1h-1v1h1v-1zm-2-3h-1v1h1v-1zm-1 1h-1v1h1v-1zm0-1v-1-1-1h-1v1 1 1h1zm34-5v1h1v-1h-1zm2 0v1 1h1v-1-1h-1zm0 2h-1-1v1h1 1v-1zm41-2v1h1v-1h-1zm20 0v1h-1v1h1v1h1 1v-1h-1v-1-1h-1zm2 2h1v-1h1v-1h-1-1v1 1zm2-1v1 1h1v-1h1v-1h-1-1zm2 1v1h-1v1h1 1 1v-1h-1v-1h-1zm2 2v1h1v-1h-1zm1 0h1 1v-1h-1-1v1zm-1 1h-1v1 1 1h1v-1-1-1zm10-5v1 1h1 1v-1-1h-1-1zm4 0v1h1v-1h-1zm1 1v1 1h1v-1-1h-1zm13-1v1 1 1h1v-1-1-1h-1zm1 3v1h1v-1h-1zm0 1h-1v1h1v-1zm0 1v1h1v-1h-1zm-1 0h-1-1v1h1 1v-1zm-137-4v1h1v-1h-1zm23 0v1h-1v1h1 1v-1h1v-1h-1-1zm1 2v1h1 1v-1h-1-1zm2 0h1v-1-1h-1v1 1zm1 0v1h1v-1h-1zm1 0h1v-1-1h-1v1 1zm1 0v1h-1v1h1 1v-1h1v-1-1-1h-1v1 1h-1zm2 1v1h1v-1h-1zm1 0h1 1v1h-1v1h1 1v-1-1-1-1h-1v1h-1-1v1zm-4 1h-1v1h1v-1zm0 1v1h1 1v1h1v1h1v-1-1h-1v-1h-1-1-1zm4 3v1h1v-1h-1zm1 0h1 1v-1h-1v-1h-1v1 1zm2-1h1v-1h-1v1zm0 1v1 1h1 1v-1h-1v-1h-1zm2 2v1 1h1v-1h1v-1-1h-1v1h-1zm1 2v1h1v-1h-1zm1 1v1h1v1 1h1v-1h1 1v-1h-1-1v-1h1v-1h-1v-1-1h-1v1 1 1h-1zm4 2v1h1v-1h-1zm1 0h1 1 1v-1h-1-1-1v1zm3-1h1v-1h-1v1zm0-1v-1h-1v1h1zm-1-1v-1h-1v1h1zm-1-1v-1h-1-1v1h1 1zm-2-1v-1h-1v1h1zm3 1h1v-1h-1v1zm1-1h1 1v-1h-1-1v1zm2 0v1 1h1v-1-1h-1zm1 0h1v-1h-1v1zm0 2v1h-1v1h1v1h1v-1-1-1h-1zm1 0h1v-1h-1v1zm-1 3h-1v1 1h1v-1-1zm0 2v1h1 1 1v-1h-1v-1h-1v1h-1zm2-1h1v1h1v-1-1h-1-1v1zm2-1h1v-1h1v1h1v-1-1h-1v-1h-1-1v1 1 1zm2-3h1 1v1h1v-1-1h-1v-1h-1v1h-1v1zm1-2v-1h-1v1h1zm0 5v1 1h1v-1-1h-1zm1 0h1v-1h-1v1zm0 2v1h1v-1h-1zm-9-2v-1h-1v1h1zm-1 0h-1v1h1v-1zm-8 1h-1v1h1v-1zm0 1v1h1v-1h-1zm-2-4h-1-1v-1-1h-1v1h-1v1h1v1h1 1 1v-1zm-4 0h-1v1h1v-1zm-1 0v-1h-1v1h1zm-1-1v-1h-1v1h1zm-1-1v-1h-1-1v1h1 1zm-2-1v-1h-1v1h1zm-1-1v-1h-1-1v1h1 1zm1 0h1v-1-1h-1v1 1zm2 1h1v-1h-1v1zm-4-5h-1v-1h-1-1v1h1v1h-1v1 1h1v-1h1 1v-1-1zm16-5v1h1v-1h-1zm1 1v1h1v-1h-1zm0 1h-1v1h1v-1zm0 1v1h1v-1h-1zm-1 0h-1v1h1v-1zm22-3v1h1v-1h-1zm1 1v1 1h1 1v-1h1v-1h-1v-1h-1v1h-1zm-1 0h-1-1v1h1 1v-1zm20-1v1h1v-1h-1zm10 0v1h1v-1h-1zm1 1v1h1v-1h-1zm17-1v1h1v-1h-1zm1 1v1h-1v1h1 1v-1-1h-1zm-125 0v1h1v-1h-1zm21 0v1h1v-1h-1zm3 0v1h1v-1h-1zm46 0v1 1h1v-1-1h-1zm28 0v1 1h1v-1-1h-1zm30 0v1h1v-1h-1zm0 1h-1v1h1v-1zm9-1v1 1h-1v1h1 1v-1-1-1h-1zm-135 1v1h1v-1h-1zm2 0v1 1h1v-1-1h-1zm26 0v1h1v-1h-1zm0 1h-1v1 1h1v-1-1zm42-1v1h1v-1h-1zm1 1v1h1v1h1v-1-1h-1-1zm2 2v1h1 1 1v-1h-1v-1h-1v1h-1zm3 0h1v-1h-1v1zm0 1v1 1h-1v1h1 1v-1-1-1h-1zm-1 3h-1-1-1v1h1 1 1v-1zm-4-5h-1v1h1v-1zm12-2v1h1v-1h-1zm10 0v1h1v1h1v-1-1h-1-1zm14 0v1h1v-1h-1zm21 0v1h1v-1h-1zm0 1h-1v1h-1v1h1 1v-1-1zm2-1v1 1 1h1v-1-1-1h-1zm13 0v1h1v-1h-1zm-135 1v1h1v-1h-1zm0 1h-1v1h1v-1zm2-1v1 1h1v-1-1h-1zm12 0v1h1v-1h-1zm3 0v1h1v-1h-1zm24 0v1h1v-1h-1zm6 0v1h1v-1h-1zm1 1v1h1v-1h-1zm0 1h-1v1 1h1v-1-1zm-1 2h-1v1h1v-1zm-1 1h-1v1h1v-1zm26-5v1h1 1v-1h-1-1zm6 0v1h1 1v-1h-1-1zm2 1v1h1 1v-1-1h-1v1h-1zm2 1v1h1v1h1v-1-1h-1-1zm1 2h-1v1h1v-1zm0 1v1 1h1v-1-1h-1zm-1-1v-1h-1v1h1zm1-4v1h1v-1h-1zm18 0v1h-1v1h1 1v-1-1h-1zm-111 1v1h1v-1h-1zm19 0v1h1 1 1v-1h-1-1-1zm3 1v1h1v-1h-1zm39-1v1h1v-1h-1zm1 1v1h1v-1h-1zm4-1v1h1 1v-1h-1-1zm3 0v1h1v1h1v-1-1h-1-1zm11 0v1 1 1 1 1h1v1h1v-1-1h-1v-1-1h1v-1h-1v-1h-1zm2 4h1v-1h-1v1zm31-4v1h1v1h1v-1-1h-1-1zm4 0v1h1v-1h-1zm5 0v1h1v-1h-1zm1 1v1h1v-1h-1zm1 1v1h1v-1h-1zm1 0h1v-1h-1v1zm0 1v1h1v-1h-1zm-3-2h-1v1h1v-1zm12-1v1h1v-1h-1zm10 0v1h-1v1h1 1v-1-1h-1zm-142 1v1h1v-1h-1zm0 1h-1v1h1v-1zm0 1v1h-1v1h1 1v-1-1h-1zm-1 2h-1v1h1v-1zm-1 1h-1v1h1v-1zm0-1v-1h-1v1h1zm0-1h1v-1h-1v1zm0-1v-1h-1v1h1zm4-2v1h1v1h1v-1-1h-1-1zm21 0v1h1v-1h-1zm23 0v1 1h1v1h1v-1-1h-1v-1h-1zm5 0v1 1h1v-1h1v-1h-1-1zm11 0v1h1v-1h-1zm20 0v1 1h1v1h1v-1h1v-1h-1-1v-1h-1zm4 0v1 1h1v-1-1h-1zm7 0v1h1v-1h-1zm3 0v1 1 1h1v-1-1-1h-1zm0 3h-1v1h1v-1zm-1 1h-1v1h1v-1zm0 1v1h1v1h1v-1-1h-1-1zm9-5v1h1v-1h-1zm-94 1v1h1v-1h-1zm0 1h-1v1h1v-1zm20-1v1h1 1v-1h-1-1zm27 0v1h1v-1h-1zm8 0v1h-1v1h1 1v-1-1h-1zm43 0v1h1v-1h-1zm0 1h-1v1h1v-1zm39-1v1h1v-1h-1zm-140 1v1h1v-1h-1zm0 1h-1-1v1h1 1v-1zm0 1v1 1h1v-1h1v-1h-1-1zm1 2v1h1v-1h-1zm0 1h-1v1h1v-1zm11-5v1h1v-1h-1zm1 1v1 1h-1v1h1 1v-1-1h1v-1-1h-1v1h-1zm-1 3h-1v1h1v-1zm4-4v1 1 1h1v-1h1v-1h-1v-1h-1zm4 0v1h1v-1h-1zm0 1h-1v1 1h1 1v-1h-1v-1zm35-1v1h1v-1h-1zm5 0v1h1v-1h-1zm1 1v1 1h1v-1h1v-1h-1-1zm3-1v1h1v-1h-1zm22 0v1h1v-1h-1zm10 0v1h1 1v-1h-1-1zm2 1v1h1v-1h-1zm1 1v1h1v-1h-1zm7-2v1h1v-1h-1zm0 1h-1v1 1 1h1v-1-1-1zm7-1v1h1v-1h-1zm1 1v1h1v-1h-1zm7-1v1h-1v1 1h1v-1h1v-1h1v1h1v-1-1h-1-1-1zm3 2v1h1v-1h-1zm-4 1h-1v1h1v-1zm-1 1h-1v1 1h1v-1-1zm-1 0v-1-1h-1v1 1h1zm0-2h1v-1h-1v1zm10-2v1h1v-1h-1zm4 0v1h1v1h1 1v-1h-1v-1h-1-1zm1 2h-1v1h1v-1zm-1 0v-1h-1v1h1zm6-2v1h1v-1h-1zm1 1v1h1v-1h-1zm-144 0v1h1v-1h-1zm9 0v1h1v-1h-1zm0 1h-1v1h1v-1zm19-1v1h1v-1h-1zm71 0v1 1h1 1v-1h-1v-1h-1zm2 2v1h1 1v-1h-1-1zm0 1h-1-1v1 1h1v-1h1v-1zm0 1v1 1h1 1v-1h-1v-1h-1zm13-4v1h1v-1h-1zm0 1h-1v1h1v-1zm-1 1h-1v1h1v-1zm-98-1v1h1v-1h-1zm0 1h-1v1 1h1v-1-1zm67-1v1 1h-1v1h1 1v-1-1-1h-1zm1 3v1h1v-1h-1zm1 0h1v-1h-1v1zm1-1h1 1v-1h-1-1v1zm0-1v-1h-1v1h1zm0 2v1h1v-1h-1zm-4 0h-1v1h1v-1zm-1 0v-1-1h-1v1 1h1zm28-3v1h-1v1h1 1v-1-1h-1zm24 0v1h1v-1h-1zm1 1v1h1v-1h-1zm1 0h1v-1h-1v1zm-2 0h-1v1 1h1v-1-1zm9-1v1h1v-1h-1zm1 1v1 1h1v-1-1h-1zm0 2h-1v1h1v-1zm0 1v1h1v-1h-1zm1 1v1h1v-1h-1zm1 1v1h1v-1h-1zm1 0h1v-1-1h-1v1 1zm0 1v1h1v-1h-1zm-3-2h-1v1h1v-1zm-1 0v-1h-1v-1h1v-1h-1v-1h-1v1 1 1 1 1h1v-1h1zm-138-4v1h1v-1h-1zm7 0v1h1v-1h-1zm20 0v1h1v-1h-1zm2 0v1h1v1h1 1v-1h-1v-1h-1-1zm29 0v1h1v-1h-1zm13 0v1h1v-1h-1zm1 1v1h1v1 1h1v-1h1v-1h-1v-1h-1-1zm3 2v1h1v-1h-1zm40-3v1h1v-1h-1zm0 1h-1v1h1v-1zm0 1v1h1v1h1v-1h1v-1-1h-1v1h-1-1zm3 1v1h1v-1h-1zm6-3v1h1v-1h-1zm1 1v1 1 1h1v-1-1-1h-1zm0 3h-1v1h1v-1zm-1 1h-1v1h1v-1zm0 1v1h1 1v1h1v-1-1h-1-1-1zm0 1h-1v1h1v-1zm0-6h-1v1 1h1v-1-1zm18-1v1h1v-1h-1zm-147 1v1 1 1h1 1v-1h-1v-1-1h-1zm24 0v1 1h1v-1h1v-1h-1-1zm1 2v1h1v-1h-1zm-1 0h-1v1h1v-1zm-1 1h-1v1h1v-1zm0 1v1h1v-1h-1zm-1-1v-1h-1v1h1zm0-1h1v-1h-1v1zm7-2v1h1v-1h-1zm0 1h-1-1v1 1 1h1v-1-1h1v-1zm42-1v1h1v-1h-1zm3 0v1 1h1v1h1v-1-1h-1v-1h-1zm18 0v1h1v-1h-1zm0 1h-1v1h1v-1zm0 1v1h1v-1h-1zm-1 0h-1v1h1v-1zm-1 1h-1v1h1v-1zm-1 1h-1v1h1v-1zm-1 0v-1h-1v1h1zm19-4v1h1v-1h-1zm9 0v1h1 1v-1h-1-1zm0 1h-1v1h1v-1zm-113 0v1h1v-1h-1zm1 1v1h1v-1h-1zm1 0h1v-1h-1v1zm5-1v1h1v-1h-1zm4 0v1h1v-1h-1zm1 1v1 1h1v-1-1h-1zm16-1v1h-1v1 1h1 1v-1h1v-1-1h-1-1zm21 0v1h1v-1h-1zm42 0v1 1h1v-1-1h-1zm1 2v1h1v-1h-1zm14-2v1h-1v1 1 1 1 1h1v-1-1-1-1h1v-1-1h-1zm1 2v1h1v-1h-1zm1 0h1v-1h-1v1zm1-1h1v-1h-1v1zm23-1v1h1v1h1v-1h1v-1h-1-1-1zm-123 1v1h1v-1h-1zm5 0v1h1v-1h-1zm2 0v1h1v-1h-1zm17 0v1h-1v1 1h1v-1h1v-1-1h-1zm1 2v1 1h1v-1-1h-1zm1-2v1h1v-1h-1zm68 0v1h1v-1h-1zm11 0v1h1v-1h-1zm0 1h-1v1 1 1 1h1v-1h1v-1h-1v-1-1zm1 2h1 1v-1h-1-1v1zm14-3v1h1v-1h-1zm-123 1v1h1v-1h-1zm1 1v1h1 1v-1h-1-1zm-1 0h-1v1h1v-1zm63-1v1h1v1h1 1v-1h-1v-1h-1-1zm3 2v1 1h1 1v-1h-1v-1h-1zm1 0h1 1v-1h-1-1v1zm2 0v1h1v1h1v-1-1-1h-1v1h-1zm4-2v1 1h1 1v-1-1h-1-1zm2 2v1h1v1h1v-1h1v-1h-1-1-1zm-2 0h-1v1h1v-1zm0 1v1h1v-1h-1zm15-3v1 1h1v-1h1v-1h-1-1zm0 2h-1v1 1h1v-1-1zm-100-1v1h1v-1h-1zm6 0v1 1h1 1v-1h-1v-1h-1zm2 1h1v-1h-1v1zm1 0v1 1h1v-1-1h-1zm7-1v1h1v-1h-1zm4 0v1h1v1h1 1v-1h-1v-1h-1-1zm8 0v1 1h1v-1-1h-1zm1 2v1h1v-1h-1zm15-2v1h1v-1h-1zm1 1v1h1v1h1v-1-1h-1-1zm-1 0h-1-1v1h1v1h1v-1-1zm72-1v1h1v-1h-1zm11 0v1h1v1h1v1h1v-1-1-1h-1-1-1zm1 2h-1-1-1v1h1 1 1v-1zm10-2v1h1v-1h-1zm2 0v1h1 1v-1h-1-1zm2 1v1h1v-1h-1zm-140 0v1h1v-1h-1zm1 1v1h1v-1h-1zm1 0h1v-1h-1v1zm14-1v1h1v-1h-1zm0 1h-1v1h1v-1zm6-1v1h1v-1h-1zm8 0v1h1 1v-1h-1-1zm2 1v1h1v-1h-1zm-2 0h-1v1h1v-1zm4-1v1h1v-1h-1zm21 0v1h1v-1h-1zm16 0v1 1h1v-1-1h-1zm20 0v1h1v-1h-1zm0 1h-1v1h1v-1zm4-1v1h1v-1h-1zm0 1h-1v1h1v-1zm5-1v1h-1v1h1 1v-1-1h-1zm11 0v1 1h1v-1h1v-1h-1-1zm32 0v1h1 1v-1h-1-1zm-134 1v1h1v-1h-1zm3 0v1h1 1v-1h-1-1zm12 0v1h1v-1h-1zm12 0v1h1v-1h-1zm11 0v1h1v-1h-1zm6 0v1h1v-1h-1zm4 0v1h1v-1h-1zm8 0v1h1v-1h-1zm9 0v1h1v-1h-1zm29 0v1h1v-1h-1zm4 0v1h1v-1h-1zm8 0v1h1v-1h-1zm5 0v1h1v-1h-1zm15 0v1h1v-1h-1zm-139 1v1h-1v1h1 1v-1-1h-1zm7 0v1 1h1 1v-1h-1v-1h-1zm-11 1v1h1v-1h-1zm6 0v1h1v-1h-1zm8 0v1h1 1v-1h-1-1zm6 0v1h1v-1h-1zm7 0v1h1v-1h-1zm7 0v1h1 1v-1h-1-1zm12 0v1h1v-1h-1zm18 0v1h1v-1h-1zm6 0v1h1v-1h-1zm8 0v1h1v-1h-1zm2 0v1h1 1v-1h-1-1zm7 0v1h1v-1h-1zm7 0v1h1v-1h-1zm4 0v1h1v-1h-1zm2 0v1h1v-1h-1zm2 0v1h1 1 1v-1h-1-1-1zm4 0v1h1 1v-1h-1-1z"/>
</svg>
