<?xml version="1.0" encoding="UTF-8"?>
<svg version="1.1" viewBox="0 0 157 30" xmlns="http://www.w3.org/2000/svg">
 <path d="m3 0v1 1h1v-1h1 1v-1h-1-1-1zm4 0v1h1 1v-1h-1-1zm3 0v1h1v-1h-1zm2 0v1h1v-1h-1zm2 0v1h1 1 1 1v-1h-1-1-1-1zm5 0v1h1 1v-1h-1-1zm3 0v1h1v-1h-1zm3 0v1h1 1v-1h-1-1zm3 0v1h1 1v-1h-1-1zm3 0v1h1 1 1v-1h-1-1-1zm4 0v1h1v-1h-1zm2 0v1h1 1v-1h-1-1zm3 0v1h1v-1h-1zm14 0v1h1v-1h-1zm-18 2v1h1v-1h-1zm0 1h-1v1 1h1 1v-1h-1v-1zm1 2v1 1h1v-1-1h-1zm0 2h-1v1h1v-1zm-1 1h-1-1v1h1 1v-1zm3-6v1h1v-1h-1zm1 1v1h1v-1h-1zm3-1v1h1v-1h-1zm0 1h-1v1h1v-1zm-37 0v1h1 1v-1h-1-1zm2 1v1h1v-1h-1zm4-1v1 1h1v-1-1h-1zm3 0v1h1v-1h-1zm6 0v1h1v-1h-1zm4 0v1h1v-1h-1zm1 1v1h1 1v-1h-1-1zm2 1v1h1 1v-1h-1-1zm-2 0h-1v1h1v-1zm6-2v1 1h1v-1-1h-1zm13 0v1 1h1v-1h1v-1h-1-1zm2 1v1h1 1v-1-1h-1v1h-1zm7-1v1h1v-1h-1zm13 0v1h1v-1h-1zm0 1h-1-1v1h-1v1h-1v1h1 1v-1h1v-1h1v-1zm-1 2v1h1 1v-1h-1-1zm2 0h1v-1h-1v1zm1-1h1v-1h-1v1zm1-1h1v-1h-1v1zm6-1v1h1v-1h-1zm2 0v1 1h1v-1h1v-1h-1-1zm12 0v1h1v-1h-1zm0 1h-1v1 1h1v-1-1zm0 2v1h1 1v-1h-1-1zm2 0h1v-1h-1v1zm1-1h1v-1-1h-1v1 1zm1 0v1h1 1v-1h1v-1h-1-1v1h-1zm3 0v1 1h1v-1h1v-1-1h-1v1h-1zm0 2h-1v1h1v-1zm0 1v1h1v-1h-1zm0 1h-1v1h1v-1zm-1 1h-1v1 1h1v-1-1zm0 2v1h1v-1h-1zm1 0h1 1v-1h-1-1v1zm2 0v1h1 1v-1h-1-1zm2 0h1v-1h-1v1zm-5-3v-1h-1v1h1zm-2-3h-1v1h1v-1zm-1 1h-1v1h1v-1zm-1 1h-1v1h1v-1zm-3-2h-1-1v1 1h1v-1h1v-1zm-2 0v-1-1h-1v1 1h1zm16-3v1h1v-1h-1zm1 1v1h-1v1 1h1v-1h1v-1-1h-1zm1 0h1v-1h-1v1zm-2 1v-1h-1-1v1h-1v1h1 1v-1h1zm5-2v1h1v-1h-1zm0 1h-1v1h1v-1zm-1 1h-1v1h1v-1zm5-2v1h1v-1h-1zm3 0v1h1v-1h-1zm20 0v1h1v-1h-1zm3 0v1 1h1v-1h1v-1h-1-1zm2 1v1h1v-1h-1zm0 1h-1v1h1v-1zm4-2v1h-1v1h1 1v-1-1h-1zm1 2v1h1 1v-1-1h-1v1h-1zm9-2v1h1v-1h-1zm-137 1v1h-1v1h1 1v-1-1h-1zm1 2v1h1v-1h-1zm1 0h1 1v-1h-1-1v1zm4-2v1h1v-1h-1zm96 0v1h1v-1h-1zm0 1h-1v1h1v-1zm-1 1h-1v1h1v-1zm-1 1h-1v1h1v-1zm-1 1h-1v1h1v-1zm0-1v-1h-1v1h1zm0-1h1v-1h-1v1zm12-2v1h1v-1h-1zm3 0v1h1v-1h-1zm19 0v1h1v-1h-1zm0 1h-1-1v1 1h1v-1h1v-1zm-2 2h-1v1h1v-1zm0 1v1h1v-1h-1zm0 1h-1v1h1v-1zm4-5v1h1v-1h-1zm-142 1v1 1h1v-1-1h-1zm30 0v1h1 1v-1h-1-1zm10 0v1h1v-1h-1zm0 1h-1-1v1h1 1v-1zm0 1v1h1v-1h-1zm6-2v1h1v-1h-1zm1 1v1h1 1v-1h-1-1zm2 1v1h1v-1h-1zm0 1h-1v1h1v-1zm-2-1h-1v1h1v-1zm-1 1h-1v1h1v-1zm-1 0v-1h-1-1v1h1 1zm-2 0h-1v1h-1v1h1 1v-1-1zm0 2v1h1v-1h-1zm0-3v-1h-1v1h1zm59-2v1h1v-1h-1zm0 1h-1v1 1h1v-1-1zm0 2v1h-1v1h1 1v-1h1v-1-1h-1v1h-1zm10-3v1h1v-1h-1zm0 1h-1-1v1h1 1v-1zm-2 1h-1v1h1v-1zm14-2v1h1v-1h-1zm1 1v1h1 1v-1-1h-1v1h-1zm19-1v1h1v-1h-1zm-141 1v1h1v-1h-1zm9 0v1h1v-1h-1zm11 0v1h1v-1h-1zm10 0v1h1v-1h-1zm1 1v1 1h1v-1-1h-1zm1 2v1h1v-1h-1zm1 0h1 1v-1h-1-1v1zm2 0v1h1v-1h-1zm0 1h-1v1h1v-1zm-4-1h-1-1v1h1 1v-1zm-2 0v-1h-1-1v1h1 1zm34-3v1h1v-1h-1zm32 0v1h1 1v-1h-1-1zm16 0v1h1v-1h-1zm2 0v1h1v-1h-1zm5 0v1h1 1v-1h-1-1zm2 1v1h1v-1h-1zm-2 0h-1v1 1h-1v1h1 1v-1h1v-1h-1v-1zm-2 3h-1v1h-1v1h1 1v-1-1zm-2 1v-1-1h-1v1 1h1zm2-2v-1-1h-1v1 1h1zm-123-2v1h1v-1h-1zm10 0v1h1v-1h-1zm8 0v1h1v-1h-1zm45 0v1h1v-1h-1zm2 0v1 1h1v-1-1h-1zm0 2h-1v1h1v-1zm30-2v1h-1v1h1 1v-1-1h-1zm5 0v1 1h1v-1-1h-1zm44 0v1h1v-1h-1zm1 1v1h1 1v-1h-1-1zm-143 0v1h1v-1h-1zm6 0v1h1v-1h-1zm0 1h-1v1h1v-1zm8-1v1 1h1v-1-1h-1zm1 2v1h1v-1h-1zm1 0h1v-1h-1v1zm14-2v1h1v-1h-1zm24 0v1h1v-1h-1zm21 0v1h1v-1h-1zm1 1v1h1v-1h-1zm37-1v1h1v-1h-1zm15 0v1h1v-1h-1zm4 0v1h1v-1h-1zm3 0v1h1v-1h-1zm0 1h-1v1h1v-1zm0 1v1 1h1v-1-1h-1zm-1 0h-1v1h1v-1zm3-2v1 1 1h1v-1-1-1h-1zm-127 1v1h1v-1h-1zm0 1h-1v1 1h1v-1-1zm-1 2h-1v1h1v-1zm10-3v1h1v-1h-1zm0 1h-1v1h1v-1zm51-1v1h1 1v-1h-1-1zm2 1v1h-1v1h1 1v-1h1v-1h-1-1zm-1 2h-1v1h-1v1h1 1v-1-1zm-2 1v-1-1h-1v1 1h1zm0-2h1v-1h-1v1zm26-2v1h1v-1h-1zm1 1v1h1v-1h-1zm13-1v1 1h1v-1h1v-1h-1-1zm6 0v1h1v-1h-1zm-117 1v1h1v-1h-1zm2 0v1 1h1v-1h1v-1h-1-1zm3 0v1 1h1v-1-1h-1zm1 2v1h1v-1h-1zm1 0h1 1v-1h-1-1v1zm-2 0h-1v1 1 1h1v-1-1-1zm21-2v1 1h1v-1h1v-1h-1-1zm7 0v1h1v-1h-1zm17 0v1h1 1v-1h-1-1zm2 1v1h-1v1h-1v1h1 1v-1h1v-1h1v-1h-1-1zm0 3v1h1v-1h-1zm0 1h-1v1h1v-1zm-2-1h-1v1h1v-1zm-1 1h-1v1h1v-1zm-1 0v-1h1v-1h-1-1v1 1h1zm-1 0h-1v1h1v-1zm9-5v1h1 1v-1h-1-1zm2 1v1 1h1v-1h1v-1h-1-1zm2 0h1v-1h-1v1zm1 0v1h1 1v-1h-1-1zm-2 2v1h1 1v-1h-1-1zm2 1v1h-1v1h1 1v-1-1h-1zm1 2v1h1v-1h-1zm0 1h-1v1h1v-1zm-2-1h-1v1 1h1v-1-1zm-4-5h-1v1h1v-1zm25-1v1h1v-1h-1zm6 0v1h1v-1h-1zm0 1h-1-1v1 1h1v-1h1v-1zm-1 2v1h1v-1h-1zm0 1h-1v1h1v-1zm22-4v1h1v-1h-1zm19 0v1 1h1 1v-1h-1v-1h-1zm16 0v1 1h1v-1h1v-1h-1-1zm2 1v1h1v-1h-1zm1 0h1v-1h-1v1zm-133 0v1 1h1 1v-1-1h-1-1zm10 0v1h1v-1h-1zm1 1v1h-1v1 1h1v-1h1v-1-1h-1zm-1 3h-1v1h1v-1zm0 1v1h1 1v-1h-1-1zm2 1v1 1h1v-1-1h-1zm0 2h-1v1 1 1h1v-1h1v-1h-1v-1zm6-8v1h1v-1h-1zm12 0v1 1h1v-1-1h-1zm1 2v1h1 1v-1h-1-1zm24-2v1h1v-1h-1zm33 0v1h1v-1h-1zm14 0v1 1h-1-1v1h1 1 1v-1-1h1v-1h-1-1zm3 0v1h1v-1h-1zm30 0v1 1h1v-1-1h-1zm-148 1v1h1v-1h-1zm33 0v1h1 1v-1h-1-1zm2 1v1h1 1v-1h-1-1zm-2 0h-1v1h1v-1zm-1 1h-1v1h1v-1zm44-2v1h1v-1h-1zm30 0v1h1v-1h-1zm1 1v1h-1v1h1 1v-1h1v-1h-1-1zm2 0h1v-1h-1v1zm1 0v1 1h1v-1h1v-1h-1-1zm1 2v1h1 1v-1h-1-1zm2 1v1h1 1v-1-1h-1v1h-1zm-2 0h-1v1h1v-1zm-1 1h-1v1 1h1v-1-1zm0 2v1h1v-1h-1zm0 1h-1v1h1v-1zm-1-3v-1h1v-1h-1-1v1 1h1zm23-5v1 1h1v-1-1h-1zm0 2h-1v1h1v-1zm7-2v1h1v-1h-1zm-131 1v1h1v-1h-1zm0 1h-1v1h1v-1zm18-1v1h1 1v-1h-1-1zm3 0v1 1 1h1v-1-1-1h-1zm0 3h-1v1 1h1v-1-1zm-1 0v-1h-1v1h1zm37-3v1h1 1v-1h-1-1zm15 0v1h1v-1h-1zm18 0v1h-1v1h1 1v-1-1h-1zm4 0v1h1v-1h-1zm1 1v1 1h1v-1-1h-1zm1 0h1v-1h-1v1zm25-1v1h1v-1h-1zm0 1h-1v1h1v-1zm0 1v1h1v-1h-1zm0 1h-1v1h-1v1h-1v1h1 1v-1h1v-1-1zm-1 0v-1h-1v1h1zm16-3v1h1v-1h-1zm2 0v1 1h1v-1-1h-1zm1 2v1h1v-1h-1zm0 1h-1v1h1v-1zm-1 1h-1v1 1h1v-1-1zm-144-3v1h1v-1h-1zm9 0v1h1v-1h-1zm27 0v1h1v-1h-1zm2 0v1h1v-1h-1zm36 0v1h1v-1h-1zm6 0v1h1v-1h-1zm8 0v1 1h1v-1-1h-1zm4 0v1h1v-1h-1zm6 0v1 1h1v-1-1h-1zm25 0v1h1v-1h-1zm11 0v1h1 1v-1h-1-1zm0 1h-1v1h1v-1zm-1 1h-1v1h1v-1zm7-2v1h1v-1h-1zm-133 1v1 1h1v-1-1h-1zm4 0v1h1v-1h-1zm1 1v1h1v-1h-1zm0 1h-1v1h-1v1h1 1v-1-1zm0 2v1h1v-1h-1zm1 0h1 1v-1h-1-1v1zm-3-1v-1h-1v1h1zm-1 0h-1v1h1v-1zm-1 1h-1-1v1h1 1v-1zm-2 1h-1v1h-1v1h1 1v-1-1zm-2 2h-1v1h1v-1zm1-2v-1h-1-1v1h1 1zm-2 0h-1v1h1v-1zm0-1v-1-1h-1v1 1h1zm0-2h1v-1h-1v1zm2 2h1v-1-1h-1v1 1zm5-2h1v-1h-1v1zm7-2v1h1v-1h-1zm1 1v1h1v-1h-1zm-1 0h-1v1h1v-1zm14-1v1h1v-1h-1zm24 0v1 1h1v-1-1h-1zm13 0v1h1v-1h-1zm2 0v1 1h1v-1-1h-1zm1 2v1 1h1v-1-1h-1zm1 0h1v-1h-1v1zm-2 0h-1v1h1v-1zm-1 1h-1-1v1h1 1v-1zm47-3v1h1v-1h-1zm1 1v1h1v-1h-1zm0 1h-1v1h-1v1h1 1v-1-1zm-1 0v-1h-1-1v1h1 1zm3-2v1h1v-1h-1zm1 1v1 1h1v-1-1h-1zm1 2v1h1v-1h-1zm-88-2v1h-1v1h1 1v-1-1h-1zm5 0v1 1h1v-1h1v-1h-1-1zm4 0v1h1v-1h-1zm9 0v1h1v-1h-1zm0 1h-1v1 1h1v-1-1zm-1 2h-1v1h1v-1zm13-3v1h1v-1h-1zm12 0v1h1v-1h-1zm0 1h-1v1h1v-1zm3-1v1 1h1v-1-1h-1zm13 0v1h1v-1h-1zm2 0v1h1 1v-1h-1-1zm3 0v1h1v-1h-1zm39 0v1h1 1v-1h-1-1zm2 1v1h1v-1h-1zm0 1h-1v1 1h1v-1-1zm0 2v1h-1v1h1 1v-1h1v-1-1h-1v1h-1zm-1 1v-1h-1v1h1zm5-5v1h1v-1h-1zm6 0v1h1v-1h-1zm-118 1v1h1v-1h-1zm6 0v1 1h1v-1-1h-1zm1 2v1h1 1v-1h-1-1zm9-2v1h1v-1h-1zm1 1v1h1v-1h-1zm-1 0h-1v1h1v-1zm-1 1h-1v1h1v-1zm9-2v1h-1v1h1 1v-1-1h-1zm30 0v1h1v-1h-1zm3 0v1h-1v1h1 1v-1h1v-1h-1-1zm13 0v1h1v-1h-1zm3 0v1h1v-1h-1zm-86 1v1h1v-1h-1zm1 1v1h1v-1h-1zm0 1h-1v1 1 1h1v-1-1-1zm0 3v1h1v-1h-1zm1 0h1v-1h-1v1zm2-5v1h1v-1h-1zm20 0v1 1h1v-1h1v-1h-1-1zm1 2v1h1v-1h-1zm0 1h-1v1h1v-1zm14-3v1h1v-1h-1zm9 0v1h1v-1h-1zm1 1v1h1v-1h-1zm1 1v1h1v-1h-1zm-2-1h-1v1h1v-1zm27-1v1 1h1v-1-1h-1zm4 0v1h1v-1h-1zm0 1h-1-1v1 1h1v-1h1v-1zm-1 2v1 1h1v-1h1v-1h-1-1zm2 1v1h1v-1h-1zm1 1v1h1v-1h-1zm-4-2h-1v1h1v-1zm4-3v1h1v-1h-1zm15 0v1h1v-1h-1zm18 0v1h1v-1h-1zm0 1h-1v1h1v-1zm10-1v1h1v-1h-1zm1 1v1 1h1v-1-1h-1zm-108 0v1h1v-1h-1zm0 1h-1v1h1v-1zm-1 1h-1v1h1v-1zm29-2v1h1v-1h-1zm15 0v1h1v-1h-1zm5 0v1h1v-1h-1zm0 1h-1v1 1h1v-1-1zm18-1v1h1 1v-1h-1-1zm2 1v1 1h1v-1h1v-1h-1-1zm0 2h-1v1h1v-1zm32-3v1h1v-1h-1zm0 1h-1v1h1v-1zm0 1v1h1v-1h-1zm0 1h-1v1h1v-1zm15-3v1h1v-1h-1zm-148 1v1h1v-1h-1zm26 0v1h1v-1h-1zm3 0v1h-1v1h1 1v-1-1h-1zm26 0v1h1v-1h-1zm13 0v1h1v-1h-1zm16 0v1h1v-1h-1zm2 0v1h1v-1h-1zm30 0v1h1v-1h-1zm4 0v1h1v-1h-1zm1 1v1h1 1v-1h1v-1h-1-1v1h-1zm22-1v1h1 1v-1h-1-1zm-145 1v1h1v-1h-1zm10 0v1h1v-1h-1zm5 0v1h-1v1h-1v1h1 1v-1h1v-1h1v-1h-1-1zm1 2v1h1v-1h-1zm1 1v1 1 1h1v-1-1-1h-1zm1 3v1h1v-1h-1zm1 0h1 1v-1h-1-1v1zm2 0v1h1v-1h-1zm16-6v1h1v-1h-1zm0 1h-1v1h1v-1zm3-1v1h1v-1h-1zm8 0v1h1v-1h-1zm3 0v1 1h1v-1-1h-1zm3 0v1h1v-1h-1zm6 0v1h1v-1h-1zm0 1h-1v1h1v-1zm12-1v1h1 1v-1h-1-1zm2 1v1 1h1v-1-1h-1zm0 2h-1-1v1h1 1v-1zm0 1v1 1h1v-1h1v-1h-1-1zm-2-1v-1-1h-1v1 1h1zm7-3v1h1v-1h-1zm11 0v1h1 1v-1h-1-1zm0 1h-1v1h1v-1zm21-1v1 1h1v-1h1v-1h-1-1zm3 0v1 1h1v-1-1h-1zm13 0v1h1v-1h-1zm5 0v1 1h1v-1-1h-1zm0 2h-1v1h1v-1zm18-2v1h-1v1h-1v1h1 1v-1h1v-1-1h-1zm-2 3h-1v1h-1v1h1 1v-1-1zm-1 0v-1h-1v1h1zm-145-2v1h1v-1h-1zm24 0v1h1v-1h-1zm19 0v1h1v-1h-1zm0 1h-1-1v1 1h1v-1h1v-1zm-2 2h-1v1h1v-1zm-1 1h-1v1h1v-1zm0 1v1h1v-1h-1zm15-5v1h1v-1h-1zm6 0v1h1v-1h-1zm1 1v1h1 1v-1h-1-1zm23-1v1h1v-1h-1zm20 0v1h1v-1h-1zm1 1v1h1v-1h-1zm1 1v1h1v-1h-1zm1 1v1h-1v1h1 1v-1-1h-1zm-1 2h-1v1h1v-1zm10-5v1h1v-1h-1zm24 0v1 1h1v-1-1h-1zm-133 1v1h1v-1h-1zm0 1h-1v1 1h1v-1-1zm0 2v1h1 1v-1h-1-1zm2 1v1h1v-1h-1zm1 0h1v-1h-1v1zm10-4v1h1v-1h-1zm15 0v1h1v-1h-1zm0 1h-1-1v1h1 1v-1zm-2 1h-1v1h1v-1zm4-2v1h1v-1h-1zm13 0v1h1v-1h-1zm26 0v1h1v-1h-1zm0 1h-1v1 1h1v-1-1zm3-1v1 1h1v-1-1h-1zm0 2h-1v1h1v-1zm-1 1h-1v1h1v-1zm0 1v1h1v-1h-1zm11-4v1h1v-1h-1zm1 1v1 1h1v-1-1h-1zm1 0h1v-1h-1v1zm-1 2h-1-1v1h-1v1h1 1v-1h1v-1zm-2 0v-1h-1-1v1h1 1zm13-3v1h1v-1h-1zm0 1h-1-1v1h-1v1 1h1v-1h1v-1h1v-1zm-3 3h-1v1h1v-1zm21-4v1h1v-1h-1zm1 1v1 1h1v-1-1h-1zm1 2v1h-1v1h1 1v-1-1h-1zm-1 1v-1h-1v1h1zm4-4v1h1v-1h-1zm0 1h-1v1h1v-1zm-127 0v1h1 1v-1h-1-1zm2 1v1h1 1v-1h-1-1zm0 1h-1v1h1v-1zm-1 1h-1v1h1v-1zm0 1v1h1 1v-1h-1-1zm-1 0h-1v1 1h1v-1-1zm6-4v1h1v-1h-1zm15 0v1h1v-1h-1zm7 0v1h1v-1h-1zm1 1v1 1h1v-1h1v-1h-1-1zm2 0h1v-1h-1v1zm1 0v1h1 1v-1h-1-1zm23-1v1h1v-1h-1zm0 1h-1v1h1v-1zm-1 1h-1-1v1h1 1v-1zm-2 1h-1v1h1v-1zm-1 0v-1h-1-1v1h1 1zm18-3v1h1v-1h-1zm0 1h-1v1h1v-1zm28-1v1h1v-1h-1zm1 1v1 1h1v-1h1v-1h-1-1zm0 2h-1v1h1v-1zm14-3v1h1v-1h-1zm6 0v1h1v-1h-1zm0 1h-1v1h1v-1zm2-1v1h1v-1h-1zm9 0v1h1v-1h-1zm4 0v1h1v-1h-1zm1 1v1h1v-1h-1zm1 0h1 1v-1h-1-1v1zm2 0v1h1v-1h-1zm1 0h1v-1h-1v1zm-5 0h-1v1h1v-1zm-110 0v1 1h1v-1-1h-1zm1 2v1h1v-1h-1zm1 0h1v-1h-1v1zm20-2v1h1v-1h-1zm15 0v1h1v-1h-1zm0 1h-1-1v1h1 1v-1zm0 1v1h1 1v-1h-1-1zm2 0h1v-1h-1v1zm4-2v1h1v-1h-1zm21 0v1h1v-1h-1zm18 0v1h1v-1h-1zm1 1v1 1h1v-1-1h-1zm1 0h1v-1h-1v1zm-2 0h-1v1h1v-1zm-1 1h-1v1h1v-1zm39-2v1h1v-1h-1zm-106 1v1h1 1v-1h-1-1zm2 1v1h1v-1h-1zm-2 0h-1v1h1v-1zm27-1v1h1v-1h-1zm6 0v1h1v-1h-1zm13 0v1h1v-1h-1zm12 0v1h1v-1h-1zm44 0v1 1h1v-1-1h-1zm-133 1v1h1v-1h-1zm66 0v1h1v-1h-1zm40 0v1h1v-1h-1zm20 0v1h1 1v-1h-1-1zm10 0v1h1v-1h-1zm2 0v1h1v-1h-1zm-140 1v1h1v-1h-1zm9 1v1h1v-1h-1zm26 0v1h1v-1h-1zm21 0v1h1v-1h-1zm6 0v1h1v-1h-1zm16 0v1h1 1v-1h-1-1zm3 0v1h1 1 1v-1h-1-1-1zm8 0v1h1v-1h-1zm10 0v1h1v-1h-1z"/>
</svg>
