<svg xmlns="http://www.w3.org/2000/svg" viewBox="0 0 157 30"><rect x="3" y="0" width="1" height="1"/><rect x="4" y="0" width="1" height="1"/><rect x="5" y="0" width="1" height="1"/><rect x="7" y="0" width="1" height="1"/><rect x="8" y="0" width="1" height="1"/><rect x="10" y="0" width="1" height="1"/><rect x="12" y="0" width="1" height="1"/><rect x="14" y="0" width="1" height="1"/><rect x="15" y="0" width="1" height="1"/><rect x="16" y="0" width="1" height="1"/><rect x="17" y="0" width="1" height="1"/><rect x="19" y="0" width="1" height="1"/><rect x="20" y="0" width="1" height="1"/><rect x="22" y="0" width="1" height="1"/><rect x="25" y="0" width="1" height="1"/><rect x="26" y="0" width="1" height="1"/><rect x="28" y="0" width="1" height="1"/><rect x="29" y="0" width="1" height="1"/><rect x="31" y="0" width="1" height="1"/><rect x="32" y="0" width="1" height="1"/><rect x="33" y="0" width="1" height="1"/><rect x="35" y="0" width="1" height="1"/><rect x="37" y="0" width="1" height="1"/><rect x="38" y="0" width="1" height="1"/><rect x="40" y="0" width="1" height="1"/><rect x="54" y="0" width="1" height="1"/><rect x="3" y="1" width="1" height="1"/><rect x="36" y="2" width="1" height="1"/><rect x="39" y="2" width="1" height="1"/><rect x="43" y="2" width="1" height="1"/><rect x="6" y="3" width="1" height="1"/><rect x="7" y="3" width="1" height="1"/><rect x="12" y="3" width="1" height="1"/><rect x="15" y="3" width="1" height="1"/><rect x="21" y="3" width="1" height="1"/><rect x="25" y="3" width="1" height="1"/><rect x="32" y="3" width="1" height="1"/><rect x="35" y="3" width="1" height="1"/><rect x="40" y="3" width="1" height="1"/><rect x="42" y="3" width="1" height="1"/><rect x="45" y="3" width="1" height="1"/><rect x="46" y="3" width="1" height="1"/><rect x="48" y="3" width="1" height="1"/><rect x="54" y="3" width="1" height="1"/><rect x="67" y="3" width="1" height="1"/><rect x="70" y="3" width="1" height="1"/><rect x="76" y="3" width="1" height="1"/><rect x="78" y="3" width="1" height="1"/><rect x="79" y="3" width="1" height="1"/><rect x="90" y="3" width="1" height="1"/><rect x="93" y="3" width="1" height="1"/><rect x="103" y="3" width="1" height="1"/><rect x="105" y="3" width="1" height="1"/><rect x="108" y="3" width="1" height="1"/><rect x="112" y="3" width="1" height="1"/><rect x="115" y="3" width="1" height="1"/><rect x="135" y="3" width="1" height="1"/><rect x="138" y="3" width="1" height="1"/><rect x="139" y="3" width="1" height="1"/><rect x="144" y="3" width="1" height="1"/><rect x="154" y="3" width="1" height="1"/><rect x="8" y="4" width="1" height="1"/><rect x="12" y="4" width="1" height="1"/><rect x="17" y="4" width="1" height="1"/><rect x="23" y="4" width="1" height="1"/><rect x="26" y="4" width="1" height="1"/><rect x="27" y="4" width="1" height="1"/><rect x="32" y="4" width="1" height="1"/><rect x="35" y="4" width="1" height="1"/><rect x="36" y="4" width="1" height="1"/><rect x="45" y="4" width="1" height="1"/><rect x="47" y="4" width="1" height="1"/><rect x="48" y="4" width="1" height="1"/><rect x="65" y="4" width="1" height="1"/><rect x="66" y="4" width="1" height="1"/><rect x="69" y="4" width="1" height="1"/><rect x="78" y="4" width="1" height="1"/><rect x="86" y="4" width="1" height="1"/><rect x="89" y="4" width="1" height="1"/><rect x="93" y="4" width="1" height="1"/><rect x="95" y="4" width="1" height="1"/><rect x="96" y="4" width="1" height="1"/><rect x="98" y="4" width="1" height="1"/><rect x="101" y="4" width="1" height="1"/><rect x="102" y="4" width="1" height="1"/><rect x="104" y="4" width="1" height="1"/><rect x="107" y="4" width="1" height="1"/><rect x="119" y="4" width="1" height="1"/><rect x="128" y="4" width="1" height="1"/><rect x="131" y="4" width="1" height="1"/><rect x="138" y="4" width="1" height="1"/><rect x="140" y="4" width="1" height="1"/><rect x="143" y="4" width="1" height="1"/><rect x="144" y="4" width="1" height="1"/><rect x="146" y="4" width="1" height="1"/><rect x="150" y="4" width="1" height="1"/><rect x="152" y="4" width="1" height="1"/><rect x="10" y="5" width="1" height="1"/><rect x="16" y="5" width="1" height="1"/><rect x="17" y="5" width="1" height="1"/><rect x="19" y="5" width="1" height="1"/><rect x="20" y="5" width="1" height="1"/><rect x="25" y="5" width="1" height="1"/><rect x="28" y="5" width="1" height="1"/><rect x="29" y="5" width="1" height="1"/><rect x="37" y="5" width="1" height="1"/><rect x="40" y="5" width="1" height="1"/><rect x="41" y="5" width="1" height="1"/><rect x="50" y="5" width="1" height="1"/><rect x="56" y="5" width="1" height="1"/><rect x="64" y="5" width="1" height="1"/><rect x="65" y="5" width="1" height="1"/><rect x="68" y="5" width="1" height="1"/><rect x="86" y="5" width="1" height="1"/><rect x="89" y="5" width="1" height="1"/><rect x="92" y="5" width="1" height="1"/><rect x="94" y="5" width="1" height="1"/><rect x="95" y="5" width="1" height="1"/><rect x="97" y="5" width="1" height="1"/><rect x="98" y="5" width="1" height="1"/><rect x="100" y="5" width="1" height="1"/><rect x="101" y="5" width="1" height="1"/><rect x="103" y="5" width="1" height="1"/><rect x="104" y="5" width="1" height="1"/><rect x="106" y="5" width="1" height="1"/><rect x="112" y="5" width="1" height="1"/><rect x="116" y="5" width="1" height="1"/><rect x="118" y="5" width="1" height="1"/><rect x="122" y="5" width="1" height="1"/><rect x="134" y="5" width="1" height="1"/><rect x="136" y="5" width="1" height="1"/><rect x="139" y="5" width="1" height="1"/><rect x="145" y="5" width="1" height="1"/><rect x="146" y="5" width="1" height="1"/><rect x="148" y="5" width="1" height="1"/><rect x="149" y="5" width="1" height="1"/><rect x="154" y="5" width="1" height="1"/><rect x="10" y="6" width="1" height="1"/><rect x="13" y="6" width="1" height="1"/><rect x="18" y="6" width="1" height="1"/><rect x="22" y="6" width="1" height="1"/><rect x="33" y="6" width="1" height="1"/><rect x="37" y="6" width="1" height="1"/><rect x="43" y="6" width="1" height="1"/><rect x="48" y="6" width="1" height="1"/><rect x="49" y="6" width="1" height="1"/><rect x="52" y="6" width="1" height="1"/><rect x="57" y="6" width="1" height="1"/><rect x="58" y="6" width="1" height="1"/><rect x="63" y="6" width="1" height="1"/><rect x="64" y="6" width="1" height="1"/><rect x="66" y="6" width="1" height="1"/><rect x="67" y="6" width="1" height="1"/><rect x="76" y="6" width="1" height="1"/><rect x="87" y="6" width="1" height="1"/><rect x="88" y="6" width="1" height="1"/><rect x="90" y="6" width="1" height="1"/><rect x="91" y="6" width="1" height="1"/><rect x="93" y="6" width="1" height="1"/><rect x="97" y="6" width="1" height="1"/><rect x="103" y="6" width="1" height="1"/><rect x="108" y="6" width="1" height="1"/><rect x="109" y="6" width="1" height="1"/><rect x="111" y="6" width="1" height="1"/><rect x="115" y="6" width="1" height="1"/><rect x="117" y="6" width="1" height="1"/><rect x="120" y="6" width="1" height="1"/><rect x="121" y="6" width="1" height="1"/><rect x="124" y="6" width="1" height="1"/><rect x="126" y="6" width="1" height="1"/><rect x="131" y="6" width="1" height="1"/><rect x="132" y="6" width="1" height="1"/><rect x="135" y="6" width="1" height="1"/><rect x="136" y="6" width="1" height="1"/><rect x="148" y="6" width="1" height="1"/><rect x="6" y="7" width="1" height="1"/><rect x="16" y="7" width="1" height="1"/><rect x="24" y="7" width="1" height="1"/><rect x="36" y="7" width="1" height="1"/><rect x="44" y="7" width="1" height="1"/><rect x="50" y="7" width="1" height="1"/><rect x="53" y="7" width="1" height="1"/><rect x="54" y="7" width="1" height="1"/><rect x="56" y="7" width="1" height="1"/><rect x="59" y="7" width="1" height="1"/><rect x="69" y="7" width="1" height="1"/><rect x="71" y="7" width="1" height="1"/><rect x="87" y="7" width="1" height="1"/><rect x="92" y="7" width="1" height="1"/><rect x="96" y="7" width="1" height="1"/><rect x="101" y="7" width="1" height="1"/><rect x="106" y="7" width="1" height="1"/><rect x="111" y="7" width="1" height="1"/><rect x="113" y="7" width="1" height="1"/><rect x="116" y="7" width="1" height="1"/><rect x="119" y="7" width="1" height="1"/><rect x="128" y="7" width="1" height="1"/><rect x="130" y="7" width="1" height="1"/><rect x="133" y="7" width="1" height="1"/><rect x="147" y="7" width="1" height="1"/><rect x="150" y="7" width="1" height="1"/><rect x="8" y="8" width="1" height="1"/><rect x="14" y="8" width="1" height="1"/><rect x="22" y="8" width="1" height="1"/><rect x="34" y="8" width="1" height="1"/><rect x="35" y="8" width="1" height="1"/><rect x="38" y="8" width="1" height="1"/><rect x="40" y="8" width="1" height="1"/><rect x="41" y="8" width="1" height="1"/><rect x="44" y="8" width="1" height="1"/><rect x="46" y="8" width="1" height="1"/><rect x="47" y="8" width="1" height="1"/><rect x="52" y="8" width="1" height="1"/><rect x="55" y="8" width="1" height="1"/><rect x="58" y="8" width="1" height="1"/><rect x="62" y="8" width="1" height="1"/><rect x="71" y="8" width="1" height="1"/><rect x="83" y="8" width="1" height="1"/><rect x="91" y="8" width="1" height="1"/><rect x="95" y="8" width="1" height="1"/><rect x="97" y="8" width="1" height="1"/><rect x="100" y="8" width="1" height="1"/><rect x="101" y="8" width="1" height="1"/><rect x="106" y="8" width="1" height="1"/><rect x="112" y="8" width="1" height="1"/><rect x="113" y="8" width="1" height="1"/><rect x="115" y="8" width="1" height="1"/><rect x="121" y="8" width="1" height="1"/><rect x="128" y="8" width="1" height="1"/><rect x="130" y="8" width="1" height="1"/><rect x="131" y="8" width="1" height="1"/><rect x="136" y="8" width="1" height="1"/><rect x="140" y="8" width="1" height="1"/><rect x="143" y="8" width="1" height="1"/><rect x="145" y="8" width="1" height="1"/><rect x="148" y="8" width="1" height="1"/><rect x="151" y="8" width="1" height="1"/><rect x="152" y="8" width="1" height="1"/><rect x="13" y="9" width="1" height="1"/><rect x="18" y="9" width="1" height="1"/><rect x="22" y="9" width="1" height="1"/><rect x="24" y="9" width="1" height="1"/><rect x="27" y="9" width="1" height="1"/><rect x="42" y="9" width="1" height="1"/><rect x="43" y="9" width="1" height="1"/><rect x="45" y="9" width="1" height="1"/><rect x="48" y="9" width="1" height="1"/><rect x="51" y="9" width="1" height="1"/><rect x="52" y="9" width="1" height="1"/><rect x="70" y="9" width="1" height="1"/><rect x="78" y="9" width="1" height="1"/><rect x="79" y="9" width="1" height="1"/><rect x="84" y="9" width="1" height="1"/><rect x="96" y="9" width="1" height="1"/><rect x="103" y="9" width="1" height="1"/><rect x="111" y="9" width="1" height="1"/><rect x="112" y="9" width="1" height="1"/><rect x="117" y="9" width="1" height="1"/><rect x="118" y="9" width="1" height="1"/><rect x="123" y="9" width="1" height="1"/><rect x="126" y="9" width="1" height="1"/><rect x="129" y="9" width="1" height="1"/><rect x="130" y="9" width="1" height="1"/><rect x="142" y="9" width="1" height="1"/><rect x="145" y="9" width="1" height="1"/><rect x="147" y="9" width="1" height="1"/><rect x="6" y="10" width="1" height="1"/><rect x="8" y="10" width="1" height="1"/><rect x="9" y="10" width="1" height="1"/><rect x="11" y="10" width="1" height="1"/><rect x="17" y="10" width="1" height="1"/><rect x="23" y="10" width="1" height="1"/><rect x="26" y="10" width="1" height="1"/><rect x="32" y="10" width="1" height="1"/><rect x="33" y="10" width="1" height="1"/><rect x="39" y="10" width="1" height="1"/><rect x="47" y="10" width="1" height="1"/><rect x="53" y="10" width="1" height="1"/><rect x="56" y="10" width="1" height="1"/><rect x="57" y="10" width="1" height="1"/><rect x="62" y="10" width="1" height="1"/><rect x="63" y="10" width="1" height="1"/><rect x="66" y="10" width="1" height="1"/><rect x="77" y="10" width="1" height="1"/><rect x="80" y="10" width="1" height="1"/><rect x="81" y="10" width="1" height="1"/><rect x="87" y="10" width="1" height="1"/><rect x="93" y="10" width="1" height="1"/><rect x="95" y="10" width="1" height="1"/><rect x="104" y="10" width="1" height="1"/><rect x="114" y="10" width="1" height="1"/><rect x="117" y="10" width="1" height="1"/><rect x="126" y="10" width="1" height="1"/><rect x="128" y="10" width="1" height="1"/><rect x="133" y="10" width="1" height="1"/><rect x="141" y="10" width="1" height="1"/><rect x="143" y="10" width="1" height="1"/><rect x="145" y="10" width="1" height="1"/><rect x="149" y="10" width="1" height="1"/><rect x="150" y="10" width="1" height="1"/><rect x="152" y="10" width="1" height="1"/><rect x="8" y="11" width="1" height="1"/><rect x="11" y="11" width="1" height="1"/><rect x="13" y="11" width="1" height="1"/><rect x="14" y="11" width="1" height="1"/><rect x="17" y="11" width="1" height="1"/><rect x="19" y="11" width="1" height="1"/><rect x="20" y="11" width="1" height="1"/><rect x="29" y="11" width="1" height="1"/><rect x="32" y="11" width="1" height="1"/><rect x="37" y="11" width="1" height="1"/><rect x="49" y="11" width="1" height="1"/><rect x="58" y="11" width="1" height="1"/><rect x="59" y="11" width="1" height="1"/><rect x="61" y="11" width="1" height="1"/><rect x="64" y="11" width="1" height="1"/><rect x="65" y="11" width="1" height="1"/><rect x="67" y="11" width="1" height="1"/><rect x="68" y="11" width="1" height="1"/><rect x="74" y="11" width="1" height="1"/><rect x="76" y="11" width="1" height="1"/><rect x="79" y="11" width="1" height="1"/><rect x="80" y="11" width="1" height="1"/><rect x="91" y="11" width="1" height="1"/><rect x="92" y="11" width="1" height="1"/><rect x="95" y="11" width="1" height="1"/><rect x="97" y="11" width="1" height="1"/><rect x="98" y="11" width="1" height="1"/><rect x="101" y="11" width="1" height="1"/><rect x="107" y="11" width="1" height="1"/><rect x="121" y="11" width="1" height="1"/><rect x="122" y="11" width="1" height="1"/><rect x="124" y="11" width="1" height="1"/><rect x="127" y="11" width="1" height="1"/><rect x="128" y="11" width="1" height="1"/><rect x="133" y="11" width="1" height="1"/><rect x="134" y="11" width="1" height="1"/><rect x="143" y="11" width="1" height="1"/><rect x="149" y="11" width="1" height="1"/><rect x="151" y="11" width="1" height="1"/><rect x="154" y="11" width="1" height="1"/><rect x="6" y="12" width="1" height="1"/><rect x="10" y="12" width="1" height="1"/><rect x="12" y="12" width="1" height="1"/><rect x="16" y="12" width="1" height="1"/><rect x="19" y="12" width="1" height="1"/><rect x="20" y="12" width="1" height="1"/><rect x="30" y="12" width="1" height="1"/><rect x="39" y="12" width="1" height="1"/><rect x="40" y="12" width="1" height="1"/><rect x="49" y="12" width="1" height="1"/><rect x="57" y="12" width="1" height="1"/><rect x="58" y="12" width="1" height="1"/><rect x="64" y="12" width="1" height="1"/><rect x="76" y="12" width="1" height="1"/><rect x="78" y="12" width="1" height="1"/><rect x="82" y="12" width="1" height="1"/><rect x="91" y="12" width="1" height="1"/><rect x="96" y="12" width="1" height="1"/><rect x="99" y="12" width="1" height="1"/><rect x="100" y="12" width="1" height="1"/><rect x="112" y="12" width="1" height="1"/><rect x="115" y="12" width="1" height="1"/><rect x="121" y="12" width="1" height="1"/><rect x="138" y="12" width="1" height="1"/><rect x="145" y="12" width="1" height="1"/><rect x="154" y="12" width="1" height="1"/><rect x="10" y="13" width="1" height="1"/><rect x="14" y="13" width="1" height="1"/><rect x="29" y="13" width="1" height="1"/><rect x="30" y="13" width="1" height="1"/><rect x="32" y="13" width="1" height="1"/><rect x="33" y="13" width="1" height="1"/><rect x="35" y="13" width="1" height="1"/><rect x="38" y="13" width="1" height="1"/><rect x="41" y="13" width="1" height="1"/><rect x="42" y="13" width="1" height="1"/><rect x="50" y="13" width="1" height="1"/><rect x="51" y="13" width="1" height="1"/><rect x="53" y="13" width="1" height="1"/><rect x="54" y="13" width="1" height="1"/><rect x="56" y="13" width="1" height="1"/><rect x="57" y="13" width="1" height="1"/><rect x="65" y="13" width="1" height="1"/><rect x="66" y="13" width="1" height="1"/><rect x="71" y="13" width="1" height="1"/><rect x="72" y="13" width="1" height="1"/><rect x="77" y="13" width="1" height="1"/><rect x="78" y="13" width="1" height="1"/><rect x="86" y="13" width="1" height="1"/><rect x="92" y="13" width="1" height="1"/><rect x="104" y="13" width="1" height="1"/><rect x="108" y="13" width="1" height="1"/><rect x="110" y="13" width="1" height="1"/><rect x="113" y="13" width="1" height="1"/><rect x="114" y="13" width="1" height="1"/><rect x="116" y="13" width="1" height="1"/><rect x="117" y="13" width="1" height="1"/><rect x="119" y="13" width="1" height="1"/><rect x="120" y="13" width="1" height="1"/><rect x="121" y="13" width="1" height="1"/><rect x="135" y="13" width="1" height="1"/><rect x="138" y="13" width="1" height="1"/><rect x="150" y="13" width="1" height="1"/><rect x="152" y="13" width="1" height="1"/><rect x="8" y="14" width="1" height="1"/><rect x="10" y="14" width="1" height="1"/><rect x="13" y="14" width="1" height="1"/><rect x="17" y="14" width="1" height="1"/><rect x="29" y="14" width="1" height="1"/><rect x="35" y="14" width="1" height="1"/><rect x="37" y="14" width="1" height="1"/><rect x="44" y="14" width="1" height="1"/><rect x="46" y="14" width="1" height="1"/><rect x="53" y="14" width="1" height="1"/><rect x="55" y="14" width="1" height="1"/><rect x="58" y="14" width="1" height="1"/><rect x="67" y="14" width="1" height="1"/><rect x="82" y="14" width="1" height="1"/><rect x="88" y="14" width="1" height="1"/><rect x="91" y="14" width="1" height="1"/><rect x="96" y="14" width="1" height="1"/><rect x="100" y="14" width="1" height="1"/><rect x="103" y="14" width="1" height="1"/><rect x="104" y="14" width="1" height="1"/><rect x="106" y="14" width="1" height="1"/><rect x="109" y="14" width="1" height="1"/><rect x="112" y="14" width="1" height="1"/><rect x="113" y="14" width="1" height="1"/><rect x="116" y="14" width="1" height="1"/><rect x="131" y="14" width="1" height="1"/><rect x="134" y="14" width="1" height="1"/><rect x="137" y="14" width="1" height="1"/><rect x="142" y="14" width="1" height="1"/><rect x="143" y="14" width="1" height="1"/><rect x="148" y="14" width="1" height="1"/><rect x="152" y="14" width="1" height="1"/><rect x="15" y="15" width="1" height="1"/><rect x="19" y="15" width="1" height="1"/><rect x="25" y="15" width="1" height="1"/><rect x="28" y="15" width="1" height="1"/><rect x="33" y="15" width="1" height="1"/><rect x="35" y="15" width="1" height="1"/><rect x="39" y="15" width="1" height="1"/><rect x="52" y="15" width="1" height="1"/><rect x="54" y="15" width="1" height="1"/><rect x="57" y="15" width="1" height="1"/><rect x="63" y="15" width="1" height="1"/><rect x="66" y="15" width="1" height="1"/><rect x="67" y="15" width="1" height="1"/><rect x="76" y="15" width="1" height="1"/><rect x="78" y="15" width="1" height="1"/><rect x="96" y="15" width="1" height="1"/><rect x="106" y="15" width="1" height="1"/><rect x="109" y="15" width="1" height="1"/><rect x="114" y="15" width="1" height="1"/><rect x="115" y="15" width="1" height="1"/><rect x="117" y="15" width="1" height="1"/><rect x="118" y="15" width="1" height="1"/><rect x="120" y="15" width="1" height="1"/><rect x="124" y="15" width="1" height="1"/><rect x="127" y="15" width="1" height="1"/><rect x="133" y="15" width="1" height="1"/><rect x="135" y="15" width="1" height="1"/><rect x="141" y="15" width="1" height="1"/><rect x="153" y="15" width="1" height="1"/><rect x="11" y="16" width="1" height="1"/><rect x="15" y="16" width="1" height="1"/><rect x="18" y="16" width="1" height="1"/><rect x="20" y="16" width="1" height="1"/><rect x="24" y="16" width="1" height="1"/><rect x="26" y="16" width="1" height="1"/><rect x="29" y="16" width="1" height="1"/><rect x="30" y="16" width="1" height="1"/><rect x="34" y="16" width="1" height="1"/><rect x="41" y="16" width="1" height="1"/><rect x="46" y="16" width="1" height="1"/><rect x="47" y="16" width="1" height="1"/><rect x="50" y="16" width="1" height="1"/><rect x="59" y="16" width="1" height="1"/><rect x="63" y="16" width="1" height="1"/><rect x="65" y="16" width="1" height="1"/><rect x="68" y="16" width="1" height="1"/><rect x="71" y="16" width="1" height="1"/><rect x="78" y="16" width="1" height="1"/><rect x="80" y="16" width="1" height="1"/><rect x="83" y="16" width="1" height="1"/><rect x="86" y="16" width="1" height="1"/><rect x="99" y="16" width="1" height="1"/><rect x="101" y="16" width="1" height="1"/><rect x="102" y="16" width="1" height="1"/><rect x="104" y="16" width="1" height="1"/><rect x="114" y="16" width="1" height="1"/><rect x="116" y="16" width="1" height="1"/><rect x="119" y="16" width="1" height="1"/><rect x="120" y="16" width="1" height="1"/><rect x="122" y="16" width="1" height="1"/><rect x="123" y="16" width="1" height="1"/><rect x="125" y="16" width="1" height="1"/><rect x="128" y="16" width="1" height="1"/><rect x="134" y="16" width="1" height="1"/><rect x="140" y="16" width="1" height="1"/><rect x="143" y="16" width="1" height="1"/><rect x="144" y="16" width="1" height="1"/><rect x="149" y="16" width="1" height="1"/><rect x="152" y="16" width="1" height="1"/><rect x="155" y="16" width="1" height="1"/><rect x="10" y="17" width="1" height="1"/><rect x="13" y="17" width="1" height="1"/><rect x="17" y="17" width="1" height="1"/><rect x="19" y="17" width="1" height="1"/><rect x="31" y="17" width="1" height="1"/><rect x="34" y="17" width="1" height="1"/><rect x="37" y="17" width="1" height="1"/><rect x="40" y="17" width="1" height="1"/><rect x="41" y="17" width="1" height="1"/><rect x="43" y="17" width="1" height="1"/><rect x="46" y="17" width="1" height="1"/><rect x="53" y="17" width="1" height="1"/><rect x="58" y="17" width="1" height="1"/><rect x="61" y="17" width="1" height="1"/><rect x="65" y="17" width="1" height="1"/><rect x="67" y="17" width="1" height="1"/><rect x="77" y="17" width="1" height="1"/><rect x="79" y="17" width="1" height="1"/><rect x="82" y="17" width="1" height="1"/><rect x="86" y="17" width="1" height="1"/><rect x="91" y="17" width="1" height="1"/><rect x="94" y="17" width="1" height="1"/><rect x="95" y="17" width="1" height="1"/><rect x="107" y="17" width="1" height="1"/><rect x="110" y="17" width="1" height="1"/><rect x="115" y="17" width="1" height="1"/><rect x="124" y="17" width="1" height="1"/><rect x="128" y="17" width="1" height="1"/><rect x="133" y="17" width="1" height="1"/><rect x="134" y="17" width="1" height="1"/><rect x="145" y="17" width="1" height="1"/><rect x="151" y="17" width="1" height="1"/><rect x="10" y="18" width="1" height="1"/><rect x="13" y="18" width="1" height="1"/><rect x="16" y="18" width="1" height="1"/><rect x="18" y="18" width="1" height="1"/><rect x="19" y="18" width="1" height="1"/><rect x="21" y="18" width="1" height="1"/><rect x="22" y="18" width="1" height="1"/><rect x="24" y="18" width="1" height="1"/><rect x="28" y="18" width="1" height="1"/><rect x="31" y="18" width="1" height="1"/><rect x="43" y="18" width="1" height="1"/><rect x="48" y="18" width="1" height="1"/><rect x="49" y="18" width="1" height="1"/><rect x="52" y="18" width="1" height="1"/><rect x="54" y="18" width="1" height="1"/><rect x="58" y="18" width="1" height="1"/><rect x="60" y="18" width="1" height="1"/><rect x="61" y="18" width="1" height="1"/><rect x="63" y="18" width="1" height="1"/><rect x="72" y="18" width="1" height="1"/><rect x="75" y="18" width="1" height="1"/><rect x="76" y="18" width="1" height="1"/><rect x="79" y="18" width="1" height="1"/><rect x="93" y="18" width="1" height="1"/><rect x="94" y="18" width="1" height="1"/><rect x="99" y="18" width="1" height="1"/><rect x="103" y="18" width="1" height="1"/><rect x="105" y="18" width="1" height="1"/><rect x="115" y="18" width="1" height="1"/><rect x="120" y="18" width="1" height="1"/><rect x="123" y="18" width="1" height="1"/><rect x="124" y="18" width="1" height="1"/><rect x="129" y="18" width="1" height="1"/><rect x="132" y="18" width="1" height="1"/><rect x="133" y="18" width="1" height="1"/><rect x="138" y="18" width="1" height="1"/><rect x="144" y="18" width="1" height="1"/><rect x="148" y="18" width="1" height="1"/><rect x="151" y="18" width="1" height="1"/><rect x="11" y="19" width="1" height="1"/><rect x="12" y="19" width="1" height="1"/><rect x="14" y="19" width="1" height="1"/><rect x="15" y="19" width="1" height="1"/><rect x="20" y="19" width="1" height="1"/><rect x="25" y="19" width="1" height="1"/><rect x="30" y="19" width="1" height="1"/><rect x="41" y="19" width="1" height="1"/><rect x="44" y="19" width="1" height="1"/><rect x="45" y="19" width="1" height="1"/><rect x="48" y="19" width="1" height="1"/><rect x="51" y="19" width="1" height="1"/><rect x="57" y="19" width="1" height="1"/><rect x="69" y="19" width="1" height="1"/><rect x="71" y="19" width="1" height="1"/><rect x="73" y="19" width="1" height="1"/><rect x="84" y="19" width="1" height="1"/><rect x="89" y="19" width="1" height="1"/><rect x="99" y="19" width="1" height="1"/><rect x="101" y="19" width="1" height="1"/><rect x="102" y="19" width="1" height="1"/><rect x="107" y="19" width="1" height="1"/><rect x="108" y="19" width="1" height="1"/><rect x="116" y="19" width="1" height="1"/><rect x="137" y="19" width="1" height="1"/><rect x="141" y="19" width="1" height="1"/><rect x="144" y="19" width="1" height="1"/><rect x="146" y="19" width="1" height="1"/><rect x="149" y="19" width="1" height="1"/><rect x="156" y="19" width="1" height="1"/><rect x="8" y="20" width="1" height="1"/><rect x="10" y="20" width="1" height="1"/><rect x="13" y="20" width="1" height="1"/><rect x="24" y="20" width="1" height="1"/><rect x="30" y="20" width="1" height="1"/><rect x="31" y="20" width="1" height="1"/><rect x="34" y="20" width="1" height="1"/><rect x="37" y="20" width="1" height="1"/><rect x="40" y="20" width="1" height="1"/><rect x="49" y="20" width="1" height="1"/><rect x="63" y="20" width="1" height="1"/><rect x="74" y="20" width="1" height="1"/><rect x="76" y="20" width="1" height="1"/><rect x="88" y="20" width="1" height="1"/><rect x="92" y="20" width="1" height="1"/><rect x="94" y="20" width="1" height="1"/><rect x="101" y="20" width="1" height="1"/><rect x="109" y="20" width="1" height="1"/><rect x="110" y="20" width="1" height="1"/><rect x="115" y="20" width="1" height="1"/><rect x="124" y="20" width="1" height="1"/><rect x="128" y="20" width="1" height="1"/><rect x="130" y="20" width="1" height="1"/><rect x="131" y="20" width="1" height="1"/><rect x="140" y="20" width="1" height="1"/><rect x="143" y="20" width="1" height="1"/><rect x="145" y="20" width="1" height="1"/><rect x="146" y="20" width="1" height="1"/><rect x="149" y="20" width="1" height="1"/><rect x="151" y="20" width="1" height="1"/><rect x="152" y="20" width="1" height="1"/><rect x="6" y="21" width="1" height="1"/><rect x="12" y="21" width="1" height="1"/><rect x="13" y="21" width="1" height="1"/><rect x="16" y="21" width="1" height="1"/><rect x="21" y="21" width="1" height="1"/><rect x="22" y="21" width="1" height="1"/><rect x="24" y="21" width="1" height="1"/><rect x="30" y="21" width="1" height="1"/><rect x="36" y="21" width="1" height="1"/><rect x="37" y="21" width="1" height="1"/><rect x="39" y="21" width="1" height="1"/><rect x="43" y="21" width="1" height="1"/><rect x="46" y="21" width="1" height="1"/><rect x="48" y="21" width="1" height="1"/><rect x="54" y="21" width="1" height="1"/><rect x="57" y="21" width="1" height="1"/><rect x="60" y="21" width="1" height="1"/><rect x="66" y="21" width="1" height="1"/><rect x="78" y="21" width="1" height="1"/><rect x="79" y="21" width="1" height="1"/><rect x="85" y="21" width="1" height="1"/><rect x="88" y="21" width="1" height="1"/><rect x="96" y="21" width="1" height="1"/><rect x="97" y="21" width="1" height="1"/><rect x="100" y="21" width="1" height="1"/><rect x="102" y="21" width="1" height="1"/><rect x="103" y="21" width="1" height="1"/><rect x="109" y="21" width="1" height="1"/><rect x="117" y="21" width="1" height="1"/><rect x="118" y="21" width="1" height="1"/><rect x="120" y="21" width="1" height="1"/><rect x="129" y="21" width="1" height="1"/><rect x="130" y="21" width="1" height="1"/><rect x="133" y="21" width="1" height="1"/><rect x="138" y="21" width="1" height="1"/><rect x="141" y="21" width="1" height="1"/><rect x="144" y="21" width="1" height="1"/><rect x="145" y="21" width="1" height="1"/><rect x="156" y="21" width="1" height="1"/><rect x="8" y="22" width="1" height="1"/><rect x="11" y="22" width="1" height="1"/><rect x="20" y="22" width="1" height="1"/><rect x="21" y="22" width="1" height="1"/><rect x="24" y="22" width="1" height="1"/><rect x="26" y="22" width="1" height="1"/><rect x="32" y="22" width="1" height="1"/><rect x="42" y="22" width="1" height="1"/><rect x="51" y="22" width="1" height="1"/><rect x="57" y="22" width="1" height="1"/><rect x="63" y="22" width="1" height="1"/><rect x="65" y="22" width="1" height="1"/><rect x="69" y="22" width="1" height="1"/><rect x="77" y="22" width="1" height="1"/><rect x="80" y="22" width="1" height="1"/><rect x="93" y="22" width="1" height="1"/><rect x="95" y="22" width="1" height="1"/><rect x="102" y="22" width="1" height="1"/><rect x="104" y="22" width="1" height="1"/><rect x="108" y="22" width="1" height="1"/><rect x="113" y="22" width="1" height="1"/><rect x="117" y="22" width="1" height="1"/><rect x="120" y="22" width="1" height="1"/><rect x="125" y="22" width="1" height="1"/><rect x="138" y="22" width="1" height="1"/><rect x="140" y="22" width="1" height="1"/><rect x="149" y="22" width="1" height="1"/><rect x="155" y="22" width="1" height="1"/><rect x="156" y="22" width="1" height="1"/><rect x="16" y="23" width="1" height="1"/><rect x="19" y="23" width="1" height="1"/><rect x="20" y="23" width="1" height="1"/><rect x="22" y="23" width="1" height="1"/><rect x="25" y="23" width="1" height="1"/><rect x="29" y="23" width="1" height="1"/><rect x="44" y="23" width="1" height="1"/><rect x="46" y="23" width="1" height="1"/><rect x="49" y="23" width="1" height="1"/><rect x="50" y="23" width="1" height="1"/><rect x="59" y="23" width="1" height="1"/><rect x="70" y="23" width="1" height="1"/><rect x="71" y="23" width="1" height="1"/><rect x="77" y="23" width="1" height="1"/><rect x="80" y="23" width="1" height="1"/><rect x="85" y="23" width="1" height="1"/><rect x="88" y="23" width="1" height="1"/><rect x="98" y="23" width="1" height="1"/><rect x="100" y="23" width="1" height="1"/><rect x="105" y="23" width="1" height="1"/><rect x="110" y="23" width="1" height="1"/><rect x="114" y="23" width="1" height="1"/><rect x="128" y="23" width="1" height="1"/><rect x="133" y="23" width="1" height="1"/><rect x="137" y="23" width="1" height="1"/><rect x="149" y="23" width="1" height="1"/><rect x="152" y="23" width="1" height="1"/><rect x="154" y="23" width="1" height="1"/><rect x="155" y="23" width="1" height="1"/><rect x="6" y="24" width="1" height="1"/><rect x="7" y="24" width="1" height="1"/><rect x="12" y="24" width="1" height="1"/><rect x="15" y="24" width="1" height="1"/><rect x="23" y="24" width="1" height="1"/><rect x="27" y="24" width="1" height="1"/><rect x="34" y="24" width="1" height="1"/><rect x="37" y="24" width="1" height="1"/><rect x="42" y="24" width="1" height="1"/><rect x="43" y="24" width="1" height="1"/><rect x="49" y="24" width="1" height="1"/><rect x="61" y="24" width="1" height="1"/><rect x="75" y="24" width="1" height="1"/><rect x="78" y="24" width="1" height="1"/><rect x="79" y="24" width="1" height="1"/><rect x="84" y="24" width="1" height="1"/><rect x="88" y="24" width="1" height="1"/><rect x="99" y="24" width="1" height="1"/><rect x="103" y="24" width="1" height="1"/><rect x="108" y="24" width="1" height="1"/><rect x="109" y="24" width="1" height="1"/><rect x="115" y="24" width="1" height="1"/><rect x="118" y="24" width="1" height="1"/><rect x="124" y="24" width="1" height="1"/><rect x="126" y="24" width="1" height="1"/><rect x="129" y="24" width="1" height="1"/><rect x="132" y="24" width="1" height="1"/><rect x="135" y="24" width="1" height="1"/><rect x="139" y="24" width="1" height="1"/><rect x="141" y="24" width="1" height="1"/><rect x="142" y="24" width="1" height="1"/><rect x="144" y="24" width="1" height="1"/><rect x="153" y="24" width="1" height="1"/><rect x="8" y="25" width="1" height="1"/><rect x="9" y="25" width="1" height="1"/><rect x="15" y="25" width="1" height="1"/><rect x="23" y="25" width="1" height="1"/><rect x="29" y="25" width="1" height="1"/><rect x="35" y="25" width="1" height="1"/><rect x="36" y="25" width="1" height="1"/><rect x="38" y="25" width="1" height="1"/><rect x="39" y="25" width="1" height="1"/><rect x="41" y="25" width="1" height="1"/><rect x="48" y="25" width="1" height="1"/><rect x="51" y="25" width="1" height="1"/><rect x="60" y="25" width="1" height="1"/><rect x="66" y="25" width="1" height="1"/><rect x="72" y="25" width="1" height="1"/><rect x="74" y="25" width="1" height="1"/><rect x="80" y="25" width="1" height="1"/><rect x="81" y="25" width="1" height="1"/><rect x="84" y="25" width="1" height="1"/><rect x="87" y="25" width="1" height="1"/><rect x="93" y="25" width="1" height="1"/><rect x="95" y="25" width="1" height="1"/><rect x="96" y="25" width="1" height="1"/><rect x="99" y="25" width="1" height="1"/><rect x="104" y="25" width="1" height="1"/><rect x="105" y="25" width="1" height="1"/><rect x="107" y="25" width="1" height="1"/><rect x="108" y="25" width="1" height="1"/><rect x="111" y="25" width="1" height="1"/><rect x="113" y="25" width="1" height="1"/><rect x="116" y="25" width="1" height="1"/><rect x="123" y="25" width="1" height="1"/><rect x="129" y="25" width="1" height="1"/><rect x="138" y="25" width="1" height="1"/><rect x="140" y="25" width="1" height="1"/><rect x="143" y="25" width="1" height="1"/><rect x="149" y="25" width="1" height="1"/><rect x="152" y="25" width="1" height="1"/><rect x="153" y="25" width="1" height="1"/><rect x="7" y="26" width="1" height="1"/><rect x="16" y="26" width="1" height="1"/><rect x="17" y="26" width="1" height="1"/><rect x="19" y="26" width="1" height="1"/><rect x="23" y="26" width="1" height="1"/><rect x="25" y="26" width="1" height="1"/><rect x="26" y="26" width="1" height="1"/><rect x="29" y="26" width="1" height="1"/><rect x="31" y="26" width="1" height="1"/><rect x="35" y="26" width="1" height="1"/><rect x="43" y="26" width="1" height="1"/><rect x="44" y="26" width="1" height="1"/><rect x="47" y="26" width="1" height="1"/><rect x="55" y="26" width="1" height="1"/><rect x="56" y="26" width="1" height="1"/><rect x="58" y="26" width="1" height="1"/><rect x="59" y="26" width="1" height="1"/><rect x="64" y="26" width="1" height="1"/><rect x="65" y="26" width="1" height="1"/><rect x="68" y="26" width="1" height="1"/><rect x="70" y="26" width="1" height="1"/><rect x="76" y="26" width="1" height="1"/><rect x="80" y="26" width="1" height="1"/><rect x="86" y="26" width="1" height="1"/><rect x="89" y="26" width="1" height="1"/><rect x="97" y="26" width="1" height="1"/><rect x="98" y="26" width="1" height="1"/><rect x="101" y="26" width="1" height="1"/><rect x="104" y="26" width="1" height="1"/><rect x="107" y="26" width="1" height="1"/><rect x="110" y="26" width="1" height="1"/><rect x="112" y="26" width="1" height="1"/><rect x="115" y="26" width="1" height="1"/><rect x="116" y="26" width="1" height="1"/><rect x="128" y="26" width="1" height="1"/><rect x="130" y="26" width="1" height="1"/><rect x="145" y="26" width="1" height="1"/><rect x="6" y="27" width="1" height="1"/><rect x="12" y="27" width="1" height="1"/><rect x="18" y="27" width="1" height="1"/><rect x="24" y="27" width="1" height="1"/><rect x="27" y="27" width="1" height="1"/><rect x="30" y="27" width="1" height="1"/><rect x="42" y="27" width="1" height="1"/><rect x="45" y="27" width="1" height="1"/><rect x="48" y="27" width="1" height="1"/><rect x="57" y="27" width="1" height="1"/><rect x="66" y="27" width="1" height="1"/><rect x="67" y="27" width="1" height="1"/><rect x="78" y="27" width="1" height="1"/><rect x="87" y="27" width="1" height="1"/><rect x="96" y="27" width="1" height="1"/><rect x="97" y="27" width="1" height="1"/><rect x="103" y="27" width="1" height="1"/><rect x="106" y="27" width="1" height="1"/><rect x="109" y="27" width="1" height="1"/><rect x="112" y="27" width="1" height="1"/><rect x="114" y="27" width="1" height="1"/><rect x="118" y="27" width="1" height="1"/><rect x="129" y="27" width="1" height="1"/><rect x="130" y="27" width="1" height="1"/><rect x="138" y="27" width="1" height="1"/><rect x="139" y="27" width="1" height="1"/><rect x="145" y="27" width="1" height="1"/><rect x="148" y="27" width="1" height="1"/><rect x="150" y="27" width="1" height="1"/><rect x="5" y="28" width="1" height="1"/><rect x="7" y="28" width="1" height="1"/><rect x="8" y="28" width="1" height="1"/><rect x="10" y="28" width="1" height="1"/><rect x="5" y="29" width="1" height="1"/><rect x="19" y="29" width="1" height="1"/><rect x="45" y="29" width="1" height="1"/><rect x="66" y="29" width="1" height="1"/><rect x="72" y="29" width="1" height="1"/><rect x="88" y="29" width="1" height="1"/><rect x="89" y="29" width="1" height="1"/><rect x="91" y="29" width="1" height="1"/><rect x="92" y="29" width="1" height="1"/><rect x="93" y="29" width="1" height="1"/><rect x="99" y="29" width="1" height="1"/><rect x="109" y="29" width="1" height="1"/></svg>