<svg xmlns="http://www.w3.org/2000/svg" viewBox="0 0 157 30"><rect x="6" y="0" width="1" height="1"/><rect x="24" y="0" width="1" height="1"/><rect x="34" y="0" width="1" height="1"/><rect x="36" y="0" width="1" height="1"/><rect x="4" y="1" width="1" height="1"/><rect x="6" y="2" width="1" height="1"/><rect x="7" y="2" width="1" height="1"/><rect x="10" y="2" width="1" height="1"/><rect x="12" y="2" width="1" height="1"/><rect x="13" y="2" width="1" height="1"/><rect x="16" y="2" width="1" height="1"/><rect x="19" y="2" width="1" height="1"/><rect x="22" y="2" width="1" height="1"/><rect x="25" y="2" width="1" height="1"/><rect x="31" y="2" width="1" height="1"/><rect x="34" y="2" width="1" height="1"/><rect x="45" y="2" width="1" height="1"/><rect x="49" y="2" width="1" height="1"/><rect x="10" y="3" width="1" height="1"/><rect x="28" y="3" width="1" height="1"/><rect x="39" y="3" width="1" height="1"/><rect x="51" y="3" width="1" height="1"/><rect x="52" y="3" width="1" height="1"/><rect x="64" y="3" width="1" height="1"/><rect x="66" y="3" width="1" height="1"/><rect x="69" y="3" width="1" height="1"/><rect x="82" y="3" width="1" height="1"/><rect x="84" y="3" width="1" height="1"/><rect x="85" y="3" width="1" height="1"/><rect x="97" y="3" width="1" height="1"/><rect x="100" y="3" width="1" height="1"/><rect x="118" y="3" width="1" height="1"/><rect x="120" y="3" width="1" height="1"/><rect x="121" y="3" width="1" height="1"/><rect x="124" y="3" width="1" height="1"/><rect x="129" y="3" width="1" height="1"/><rect x="130" y="3" width="1" height="1"/><rect x="132" y="3" width="1" height="1"/><rect x="133" y="3" width="1" height="1"/><rect x="142" y="3" width="1" height="1"/><rect x="147" y="3" width="1" height="1"/><rect x="150" y="3" width="1" height="1"/><rect x="151" y="3" width="1" height="1"/><rect x="9" y="4" width="1" height="1"/><rect x="15" y="4" width="1" height="1"/><rect x="41" y="4" width="1" height="1"/><rect x="42" y="4" width="1" height="1"/><rect x="54" y="4" width="1" height="1"/><rect x="57" y="4" width="1" height="1"/><rect x="62" y="4" width="1" height="1"/><rect x="63" y="4" width="1" height="1"/><rect x="75" y="4" width="1" height="1"/><rect x="77" y="4" width="1" height="1"/><rect x="80" y="4" width="1" height="1"/><rect x="81" y="4" width="1" height="1"/><rect x="105" y="4" width="1" height="1"/><rect x="108" y="4" width="1" height="1"/><rect x="116" y="4" width="1" height="1"/><rect x="120" y="4" width="1" height="1"/><rect x="122" y="4" width="1" height="1"/><rect x="123" y="4" width="1" height="1"/><rect x="135" y="4" width="1" height="1"/><rect x="156" y="4" width="1" height="1"/><rect x="8" y="5" width="1" height="1"/><rect x="11" y="5" width="1" height="1"/><rect x="14" y="5" width="1" height="1"/><rect x="18" y="5" width="1" height="1"/><rect x="32" y="5" width="1" height="1"/><rect x="35" y="5" width="1" height="1"/><rect x="38" y="5" width="1" height="1"/><rect x="44" y="5" width="1" height="1"/><rect x="46" y="5" width="1" height="1"/><rect x="52" y="5" width="1" height="1"/><rect x="53" y="5" width="1" height="1"/><rect x="58" y="5" width="1" height="1"/><rect x="59" y="5" width="1" height="1"/><rect x="61" y="5" width="1" height="1"/><rect x="73" y="5" width="1" height="1"/><rect x="74" y="5" width="1" height="1"/><rect x="77" y="5" width="1" height="1"/><rect x="83" y="5" width="1" height="1"/><rect x="85" y="5" width="1" height="1"/><rect x="88" y="5" width="1" height="1"/><rect x="109" y="5" width="1" height="1"/><rect x="113" y="5" width="1" height="1"/><rect x="124" y="5" width="1" height="1"/><rect x="125" y="5" width="1" height="1"/><rect x="131" y="5" width="1" height="1"/><rect x="133" y="5" width="1" height="1"/><rect x="151" y="5" width="1" height="1"/><rect x="6" y="6" width="1" height="1"/><rect x="7" y="6" width="1" height="1"/><rect x="12" y="6" width="1" height="1"/><rect x="16" y="6" width="1" height="1"/><rect x="27" y="6" width="1" height="1"/><rect x="28" y="6" width="1" height="1"/><rect x="31" y="6" width="1" height="1"/><rect x="34" y="6" width="1" height="1"/><rect x="40" y="6" width="1" height="1"/><rect x="60" y="6" width="1" height="1"/><rect x="61" y="6" width="1" height="1"/><rect x="70" y="6" width="1" height="1"/><rect x="78" y="6" width="1" height="1"/><rect x="79" y="6" width="1" height="1"/><rect x="82" y="6" width="1" height="1"/><rect x="84" y="6" width="1" height="1"/><rect x="85" y="6" width="1" height="1"/><rect x="94" y="6" width="1" height="1"/><rect x="102" y="6" width="1" height="1"/><rect x="105" y="6" width="1" height="1"/><rect x="106" y="6" width="1" height="1"/><rect x="112" y="6" width="1" height="1"/><rect x="114" y="6" width="1" height="1"/><rect x="133" y="6" width="1" height="1"/><rect x="139" y="6" width="1" height="1"/><rect x="142" y="6" width="1" height="1"/><rect x="149" y="6" width="1" height="1"/><rect x="151" y="6" width="1" height="1"/><rect x="11" y="7" width="1" height="1"/><rect x="12" y="7" width="1" height="1"/><rect x="14" y="7" width="1" height="1"/><rect x="21" y="7" width="1" height="1"/><rect x="30" y="7" width="1" height="1"/><rect x="33" y="7" width="1" height="1"/><rect x="39" y="7" width="1" height="1"/><rect x="45" y="7" width="1" height="1"/><rect x="51" y="7" width="1" height="1"/><rect x="57" y="7" width="1" height="1"/><rect x="65" y="7" width="1" height="1"/><rect x="66" y="7" width="1" height="1"/><rect x="75" y="7" width="1" height="1"/><rect x="78" y="7" width="1" height="1"/><rect x="84" y="7" width="1" height="1"/><rect x="95" y="7" width="1" height="1"/><rect x="99" y="7" width="1" height="1"/><rect x="125" y="7" width="1" height="1"/><rect x="142" y="7" width="1" height="1"/><rect x="145" y="7" width="1" height="1"/><rect x="146" y="7" width="1" height="1"/><rect x="149" y="7" width="1" height="1"/><rect x="153" y="7" width="1" height="1"/><rect x="7" y="8" width="1" height="1"/><rect x="11" y="8" width="1" height="1"/><rect x="25" y="8" width="1" height="1"/><rect x="26" y="8" width="1" height="1"/><rect x="29" y="8" width="1" height="1"/><rect x="32" y="8" width="1" height="1"/><rect x="37" y="8" width="1" height="1"/><rect x="56" y="8" width="1" height="1"/><rect x="68" y="8" width="1" height="1"/><rect x="73" y="8" width="1" height="1"/><rect x="80" y="8" width="1" height="1"/><rect x="87" y="8" width="1" height="1"/><rect x="89" y="8" width="1" height="1"/><rect x="103" y="8" width="1" height="1"/><rect x="110" y="8" width="1" height="1"/><rect x="118" y="8" width="1" height="1"/><rect x="119" y="8" width="1" height="1"/><rect x="125" y="8" width="1" height="1"/><rect x="137" y="8" width="1" height="1"/><rect x="139" y="8" width="1" height="1"/><rect x="154" y="8" width="1" height="1"/><rect x="155" y="8" width="1" height="1"/><rect x="10" y="9" width="1" height="1"/><rect x="28" y="9" width="1" height="1"/><rect x="31" y="9" width="1" height="1"/><rect x="36" y="9" width="1" height="1"/><rect x="37" y="9" width="1" height="1"/><rect x="46" y="9" width="1" height="1"/><rect x="55" y="9" width="1" height="1"/><rect x="57" y="9" width="1" height="1"/><rect x="63" y="9" width="1" height="1"/><rect x="64" y="9" width="1" height="1"/><rect x="73" y="9" width="1" height="1"/><rect x="75" y="9" width="1" height="1"/><rect x="76" y="9" width="1" height="1"/><rect x="90" y="9" width="1" height="1"/><rect x="91" y="9" width="1" height="1"/><rect x="100" y="9" width="1" height="1"/><rect x="102" y="9" width="1" height="1"/><rect x="108" y="9" width="1" height="1"/><rect x="124" y="9" width="1" height="1"/><rect x="132" y="9" width="1" height="1"/><rect x="136" y="9" width="1" height="1"/><rect x="144" y="9" width="1" height="1"/><rect x="151" y="9" width="1" height="1"/><rect x="154" y="9" width="1" height="1"/><rect x="156" y="9" width="1" height="1"/><rect x="20" y="10" width="1" height="1"/><rect x="21" y="10" width="1" height="1"/><rect x="29" y="10" width="1" height="1"/><rect x="30" y="10" width="1" height="1"/><rect x="35" y="10" width="1" height="1"/><rect x="38" y="10" width="1" height="1"/><rect x="45" y="10" width="1" height="1"/><rect x="60" y="10" width="1" height="1"/><rect x="69" y="10" width="1" height="1"/><rect x="71" y="10" width="1" height="1"/><rect x="74" y="10" width="1" height="1"/><rect x="75" y="10" width="1" height="1"/><rect x="84" y="10" width="1" height="1"/><rect x="86" y="10" width="1" height="1"/><rect x="98" y="10" width="1" height="1"/><rect x="99" y="10" width="1" height="1"/><rect x="102" y="10" width="1" height="1"/><rect x="105" y="10" width="1" height="1"/><rect x="109" y="10" width="1" height="1"/><rect x="120" y="10" width="1" height="1"/><rect x="129" y="10" width="1" height="1"/><rect x="153" y="10" width="1" height="1"/><rect x="10" y="11" width="1" height="1"/><rect x="16" y="11" width="1" height="1"/><rect x="23" y="11" width="1" height="1"/><rect x="34" y="11" width="1" height="1"/><rect x="35" y="11" width="1" height="1"/><rect x="43" y="11" width="1" height="1"/><rect x="47" y="11" width="1" height="1"/><rect x="50" y="11" width="1" height="1"/><rect x="55" y="11" width="1" height="1"/><rect x="71" y="11" width="1" height="1"/><rect x="83" y="11" width="1" height="1"/><rect x="94" y="11" width="1" height="1"/><rect x="100" y="11" width="1" height="1"/><rect x="104" y="11" width="1" height="1"/><rect x="106" y="11" width="1" height="1"/><rect x="113" y="11" width="1" height="1"/><rect x="115" y="11" width="1" height="1"/><rect x="116" y="11" width="1" height="1"/><rect x="131" y="11" width="1" height="1"/><rect x="139" y="11" width="1" height="1"/><rect x="140" y="11" width="1" height="1"/><rect x="152" y="11" width="1" height="1"/><rect x="13" y="12" width="1" height="1"/><rect x="15" y="12" width="1" height="1"/><rect x="27" y="12" width="1" height="1"/><rect x="35" y="12" width="1" height="1"/><rect x="36" y="12" width="1" height="1"/><rect x="46" y="12" width="1" height="1"/><rect x="54" y="12" width="1" height="1"/><rect x="55" y="12" width="1" height="1"/><rect x="60" y="12" width="1" height="1"/><rect x="63" y="12" width="1" height="1"/><rect x="66" y="12" width="1" height="1"/><rect x="67" y="12" width="1" height="1"/><rect x="71" y="12" width="1" height="1"/><rect x="73" y="12" width="1" height="1"/><rect x="81" y="12" width="1" height="1"/><rect x="87" y="12" width="1" height="1"/><rect x="88" y="12" width="1" height="1"/><rect x="106" y="12" width="1" height="1"/><rect x="111" y="12" width="1" height="1"/><rect x="120" y="12" width="1" height="1"/><rect x="127" y="12" width="1" height="1"/><rect x="130" y="12" width="1" height="1"/><rect x="133" y="12" width="1" height="1"/><rect x="136" y="12" width="1" height="1"/><rect x="141" y="12" width="1" height="1"/><rect x="142" y="12" width="1" height="1"/><rect x="148" y="12" width="1" height="1"/><rect x="151" y="12" width="1" height="1"/><rect x="18" y="13" width="1" height="1"/><rect x="20" y="13" width="1" height="1"/><rect x="22" y="13" width="1" height="1"/><rect x="45" y="13" width="1" height="1"/><rect x="48" y="13" width="1" height="1"/><rect x="59" y="13" width="1" height="1"/><rect x="63" y="13" width="1" height="1"/><rect x="68" y="13" width="1" height="1"/><rect x="69" y="13" width="1" height="1"/><rect x="74" y="13" width="1" height="1"/><rect x="75" y="13" width="1" height="1"/><rect x="84" y="13" width="1" height="1"/><rect x="85" y="13" width="1" height="1"/><rect x="99" y="13" width="1" height="1"/><rect x="102" y="13" width="1" height="1"/><rect x="122" y="13" width="1" height="1"/><rect x="123" y="13" width="1" height="1"/><rect x="126" y="13" width="1" height="1"/><rect x="131" y="13" width="1" height="1"/><rect x="132" y="13" width="1" height="1"/><rect x="133" y="13" width="1" height="1"/><rect x="140" y="13" width="1" height="1"/><rect x="141" y="13" width="1" height="1"/><rect x="153" y="13" width="1" height="1"/><rect x="21" y="14" width="1" height="1"/><rect x="23" y="14" width="1" height="1"/><rect x="30" y="14" width="1" height="1"/><rect x="41" y="14" width="1" height="1"/><rect x="47" y="14" width="1" height="1"/><rect x="50" y="14" width="1" height="1"/><rect x="56" y="14" width="1" height="1"/><rect x="63" y="14" width="1" height="1"/><rect x="64" y="14" width="1" height="1"/><rect x="70" y="14" width="1" height="1"/><rect x="71" y="14" width="1" height="1"/><rect x="80" y="14" width="1" height="1"/><rect x="86" y="14" width="1" height="1"/><rect x="89" y="14" width="1" height="1"/><rect x="119" y="14" width="1" height="1"/><rect x="125" y="14" width="1" height="1"/><rect x="128" y="14" width="1" height="1"/><rect x="130" y="14" width="1" height="1"/><rect x="140" y="14" width="1" height="1"/><rect x="145" y="14" width="1" height="1"/><rect x="155" y="14" width="1" height="1"/><rect x="10" y="15" width="1" height="1"/><rect x="16" y="15" width="1" height="1"/><rect x="31" y="15" width="1" height="1"/><rect x="42" y="15" width="1" height="1"/><rect x="49" y="15" width="1" height="1"/><rect x="51" y="15" width="1" height="1"/><rect x="70" y="15" width="1" height="1"/><rect x="72" y="15" width="1" height="1"/><rect x="73" y="15" width="1" height="1"/><rect x="89" y="15" width="1" height="1"/><rect x="90" y="15" width="1" height="1"/><rect x="94" y="15" width="1" height="1"/><rect x="97" y="15" width="1" height="1"/><rect x="112" y="15" width="1" height="1"/><rect x="123" y="15" width="1" height="1"/><rect x="129" y="15" width="1" height="1"/><rect x="136" y="15" width="1" height="1"/><rect x="142" y="15" width="1" height="1"/><rect x="154" y="15" width="1" height="1"/><rect x="156" y="15" width="1" height="1"/><rect x="7" y="16" width="1" height="1"/><rect x="14" y="16" width="1" height="1"/><rect x="31" y="16" width="1" height="1"/><rect x="32" y="16" width="1" height="1"/><rect x="54" y="16" width="1" height="1"/><rect x="69" y="16" width="1" height="1"/><rect x="72" y="16" width="1" height="1"/><rect x="77" y="16" width="1" height="1"/><rect x="84" y="16" width="1" height="1"/><rect x="90" y="16" width="1" height="1"/><rect x="108" y="16" width="1" height="1"/><rect x="113" y="16" width="1" height="1"/><rect x="129" y="16" width="1" height="1"/><rect x="135" y="16" width="1" height="1"/><rect x="146" y="16" width="1" height="1"/><rect x="147" y="16" width="1" height="1"/><rect x="153" y="16" width="1" height="1"/><rect x="8" y="17" width="1" height="1"/><rect x="20" y="17" width="1" height="1"/><rect x="21" y="17" width="1" height="1"/><rect x="23" y="17" width="1" height="1"/><rect x="29" y="17" width="1" height="1"/><rect x="35" y="17" width="1" height="1"/><rect x="50" y="17" width="1" height="1"/><rect x="55" y="17" width="1" height="1"/><rect x="62" y="17" width="1" height="1"/><rect x="64" y="17" width="1" height="1"/><rect x="68" y="17" width="1" height="1"/><rect x="70" y="17" width="1" height="1"/><rect x="88" y="17" width="1" height="1"/><rect x="98" y="17" width="1" height="1"/><rect x="101" y="17" width="1" height="1"/><rect x="104" y="17" width="1" height="1"/><rect x="109" y="17" width="1" height="1"/><rect x="118" y="17" width="1" height="1"/><rect x="119" y="17" width="1" height="1"/><rect x="121" y="17" width="1" height="1"/><rect x="131" y="17" width="1" height="1"/><rect x="143" y="17" width="1" height="1"/><rect x="152" y="17" width="1" height="1"/><rect x="7" y="18" width="1" height="1"/><rect x="34" y="18" width="1" height="1"/><rect x="36" y="18" width="1" height="1"/><rect x="37" y="18" width="1" height="1"/><rect x="46" y="18" width="1" height="1"/><rect x="55" y="18" width="1" height="1"/><rect x="57" y="18" width="1" height="1"/><rect x="68" y="18" width="1" height="1"/><rect x="73" y="18" width="1" height="1"/><rect x="81" y="18" width="1" height="1"/><rect x="82" y="18" width="1" height="1"/><rect x="90" y="18" width="1" height="1"/><rect x="91" y="18" width="1" height="1"/><rect x="96" y="18" width="1" height="1"/><rect x="97" y="18" width="1" height="1"/><rect x="106" y="18" width="1" height="1"/><rect x="109" y="18" width="1" height="1"/><rect x="141" y="18" width="1" height="1"/><rect x="142" y="18" width="1" height="1"/><rect x="145" y="18" width="1" height="1"/><rect x="154" y="18" width="1" height="1"/><rect x="6" y="19" width="1" height="1"/><rect x="8" y="19" width="1" height="1"/><rect x="9" y="19" width="1" height="1"/><rect x="18" y="19" width="1" height="1"/><rect x="24" y="19" width="1" height="1"/><rect x="38" y="19" width="1" height="1"/><rect x="39" y="19" width="1" height="1"/><rect x="42" y="19" width="1" height="1"/><rect x="50" y="19" width="1" height="1"/><rect x="59" y="19" width="1" height="1"/><rect x="63" y="19" width="1" height="1"/><rect x="72" y="19" width="1" height="1"/><rect x="87" y="19" width="1" height="1"/><rect x="90" y="19" width="1" height="1"/><rect x="92" y="19" width="1" height="1"/><rect x="104" y="19" width="1" height="1"/><rect x="105" y="19" width="1" height="1"/><rect x="114" y="19" width="1" height="1"/><rect x="120" y="19" width="1" height="1"/><rect x="123" y="19" width="1" height="1"/><rect x="127" y="19" width="1" height="1"/><rect x="132" y="19" width="1" height="1"/><rect x="135" y="19" width="1" height="1"/><rect x="147" y="19" width="1" height="1"/><rect x="150" y="19" width="1" height="1"/><rect x="7" y="20" width="1" height="1"/><rect x="20" y="20" width="1" height="1"/><rect x="22" y="20" width="1" height="1"/><rect x="23" y="20" width="1" height="1"/><rect x="35" y="20" width="1" height="1"/><rect x="46" y="20" width="1" height="1"/><rect x="51" y="20" width="1" height="1"/><rect x="52" y="20" width="1" height="1"/><rect x="53" y="20" width="1" height="1"/><rect x="60" y="20" width="1" height="1"/><rect x="69" y="20" width="1" height="1"/><rect x="71" y="20" width="1" height="1"/><rect x="77" y="20" width="1" height="1"/><rect x="82" y="20" width="1" height="1"/><rect x="83" y="20" width="1" height="1"/><rect x="89" y="20" width="1" height="1"/><rect x="95" y="20" width="1" height="1"/><rect x="100" y="20" width="1" height="1"/><rect x="106" y="20" width="1" height="1"/><rect x="107" y="20" width="1" height="1"/><rect x="116" y="20" width="1" height="1"/><rect x="122" y="20" width="1" height="1"/><rect x="134" y="20" width="1" height="1"/><rect x="137" y="20" width="1" height="1"/><rect x="139" y="20" width="1" height="1"/><rect x="155" y="20" width="1" height="1"/><rect x="7" y="21" width="1" height="1"/><rect x="18" y="21" width="1" height="1"/><rect x="19" y="21" width="1" height="1"/><rect x="31" y="21" width="1" height="1"/><rect x="40" y="21" width="1" height="1"/><rect x="52" y="21" width="1" height="1"/><rect x="65" y="21" width="1" height="1"/><rect x="73" y="21" width="1" height="1"/><rect x="82" y="21" width="1" height="1"/><rect x="91" y="21" width="1" height="1"/><rect x="94" y="21" width="1" height="1"/><rect x="115" y="21" width="1" height="1"/><rect x="124" y="21" width="1" height="1"/><rect x="127" y="21" width="1" height="1"/><rect x="136" y="21" width="1" height="1"/><rect x="147" y="21" width="1" height="1"/><rect x="148" y="21" width="1" height="1"/><rect x="6" y="22" width="1" height="1"/><rect x="15" y="22" width="1" height="1"/><rect x="18" y="22" width="1" height="1"/><rect x="27" y="22" width="1" height="1"/><rect x="30" y="22" width="1" height="1"/><rect x="39" y="22" width="1" height="1"/><rect x="46" y="22" width="1" height="1"/><rect x="60" y="22" width="1" height="1"/><rect x="66" y="22" width="1" height="1"/><rect x="75" y="22" width="1" height="1"/><rect x="78" y="22" width="1" height="1"/><rect x="82" y="22" width="1" height="1"/><rect x="90" y="22" width="1" height="1"/><rect x="99" y="22" width="1" height="1"/><rect x="107" y="22" width="1" height="1"/><rect x="111" y="22" width="1" height="1"/><rect x="123" y="22" width="1" height="1"/><rect x="126" y="22" width="1" height="1"/><rect x="141" y="22" width="1" height="1"/><rect x="142" y="22" width="1" height="1"/><rect x="8" y="23" width="1" height="1"/><rect x="23" y="23" width="1" height="1"/><rect x="31" y="23" width="1" height="1"/><rect x="35" y="23" width="1" height="1"/><rect x="38" y="23" width="1" height="1"/><rect x="56" y="23" width="1" height="1"/><rect x="61" y="23" width="1" height="1"/><rect x="62" y="23" width="1" height="1"/><rect x="64" y="23" width="1" height="1"/><rect x="76" y="23" width="1" height="1"/><rect x="83" y="23" width="1" height="1"/><rect x="86" y="23" width="1" height="1"/><rect x="91" y="23" width="1" height="1"/><rect x="92" y="23" width="1" height="1"/><rect x="93" y="23" width="1" height="1"/><rect x="116" y="23" width="1" height="1"/><rect x="119" y="23" width="1" height="1"/><rect x="121" y="23" width="1" height="1"/><rect x="122" y="23" width="1" height="1"/><rect x="125" y="23" width="1" height="1"/><rect x="131" y="23" width="1" height="1"/><rect x="136" y="23" width="1" height="1"/><rect x="140" y="23" width="1" height="1"/><rect x="9" y="24" width="1" height="1"/><rect x="10" y="24" width="1" height="1"/><rect x="28" y="24" width="1" height="1"/><rect x="30" y="24" width="1" height="1"/><rect x="51" y="24" width="1" height="1"/><rect x="52" y="24" width="1" height="1"/><rect x="53" y="24" width="1" height="1"/><rect x="67" y="24" width="1" height="1"/><rect x="69" y="24" width="1" height="1"/><rect x="70" y="24" width="1" height="1"/><rect x="73" y="24" width="1" height="1"/><rect x="90" y="24" width="1" height="1"/><rect x="93" y="24" width="1" height="1"/><rect x="94" y="24" width="1" height="1"/><rect x="97" y="24" width="1" height="1"/><rect x="111" y="24" width="1" height="1"/><rect x="112" y="24" width="1" height="1"/><rect x="114" y="24" width="1" height="1"/><rect x="127" y="24" width="1" height="1"/><rect x="130" y="24" width="1" height="1"/><rect x="147" y="24" width="1" height="1"/><rect x="148" y="24" width="1" height="1"/><rect x="151" y="24" width="1" height="1"/><rect x="11" y="25" width="1" height="1"/><rect x="18" y="25" width="1" height="1"/><rect x="21" y="25" width="1" height="1"/><rect x="24" y="25" width="1" height="1"/><rect x="30" y="25" width="1" height="1"/><rect x="33" y="25" width="1" height="1"/><rect x="45" y="25" width="1" height="1"/><rect x="47" y="25" width="1" height="1"/><rect x="52" y="25" width="1" height="1"/><rect x="57" y="25" width="1" height="1"/><rect x="69" y="25" width="1" height="1"/><rect x="77" y="25" width="1" height="1"/><rect x="78" y="25" width="1" height="1"/><rect x="90" y="25" width="1" height="1"/><rect x="98" y="25" width="1" height="1"/><rect x="101" y="25" width="1" height="1"/><rect x="102" y="25" width="1" height="1"/><rect x="109" y="25" width="1" height="1"/><rect x="126" y="25" width="1" height="1"/><rect x="132" y="25" width="1" height="1"/><rect x="141" y="25" width="1" height="1"/><rect x="150" y="25" width="1" height="1"/><rect x="11" y="26" width="1" height="1"/><rect x="14" y="26" width="1" height="1"/><rect x="20" y="26" width="1" height="1"/><rect x="32" y="26" width="1" height="1"/><rect x="36" y="26" width="1" height="1"/><rect x="41" y="26" width="1" height="1"/><rect x="50" y="26" width="1" height="1"/><rect x="62" y="26" width="1" height="1"/><rect x="74" y="26" width="1" height="1"/><rect x="77" y="26" width="1" height="1"/><rect x="83" y="26" width="1" height="1"/><rect x="92" y="26" width="1" height="1"/><rect x="100" y="26" width="1" height="1"/><rect x="109" y="26" width="1" height="1"/><rect x="113" y="26" width="1" height="1"/><rect x="118" y="26" width="1" height="1"/><rect x="124" y="26" width="1" height="1"/><rect x="127" y="26" width="1" height="1"/><rect x="131" y="26" width="1" height="1"/><rect x="133" y="26" width="1" height="1"/><rect x="137" y="26" width="1" height="1"/><rect x="142" y="26" width="1" height="1"/><rect x="143" y="26" width="1" height="1"/><rect x="146" y="26" width="1" height="1"/><rect x="155" y="26" width="1" height="1"/><rect x="7" y="27" width="1" height="1"/><rect x="13" y="27" width="1" height="1"/><rect x="16" y="27" width="1" height="1"/><rect x="19" y="27" width="1" height="1"/><rect x="22" y="27" width="1" height="1"/><rect x="28" y="27" width="1" height="1"/><rect x="31" y="27" width="1" height="1"/><rect x="34" y="27" width="1" height="1"/><rect x="36" y="27" width="1" height="1"/><rect x="39" y="27" width="1" height="1"/><rect x="43" y="27" width="1" height="1"/><rect x="51" y="27" width="1" height="1"/><rect x="54" y="27" width="1" height="1"/><rect x="60" y="27" width="1" height="1"/><rect x="64" y="27" width="1" height="1"/><rect x="72" y="27" width="1" height="1"/><rect x="74" y="27" width="1" height="1"/><rect x="75" y="27" width="1" height="1"/><rect x="81" y="27" width="1" height="1"/><rect x="90" y="27" width="1" height="1"/><rect x="93" y="27" width="1" height="1"/><rect x="99" y="27" width="1" height="1"/><rect x="100" y="27" width="1" height="1"/><rect x="124" y="27" width="1" height="1"/><rect x="127" y="27" width="1" height="1"/><rect x="136" y="27" width="1" height="1"/><rect x="142" y="27" width="1" height="1"/><rect x="147" y="27" width="1" height="1"/><rect x="3" y="28" width="1" height="1"/><rect x="6" y="28" width="1" height="1"/><rect x="9" y="28" width="1" height="1"/><rect x="2" y="29" width="1" height="1"/><rect x="9" y="29" width="1" height="1"/><rect x="13" y="29" width="1" height="1"/><rect x="18" y="29" width="1" height="1"/><rect x="22" y="29" width="1" height="1"/><rect x="23" y="29" width="1" height="1"/><rect x="25" y="29" width="1" height="1"/><rect x="26" y="29" width="1" height="1"/><rect x="32" y="29" width="1" height="1"/><rect x="33" y="29" width="1" height="1"/><rect x="38" y="29" width="1" height="1"/><rect x="51" y="29" width="1" height="1"/><rect x="54" y="29" width="1" height="1"/><rect x="59" y="29" width="1" height="1"/><rect x="60" y="29" width="1" height="1"/><rect x="63" y="29" width="1" height="1"/><rect x="71" y="29" width="1" height="1"/><rect x="79" y="29" width="1" height="1"/><rect x="82" y="29" width="1" height="1"/><rect x="84" y="29" width="1" height="1"/><rect x="85" y="29" width="1" height="1"/><rect x="86" y="29" width="1" height="1"/><rect x="90" y="29" width="1" height="1"/><rect x="95" y="29" width="1" height="1"/><rect x="97" y="29" width="1" height="1"/><rect x="101" y="29" width="1" height="1"/></svg>