<?xml version="1.0" encoding="UTF-8"?>
<svg version="1.1" viewBox="0 0 157 30" xmlns="http://www.w3.org/2000/svg">
 <path d="m6 0v1h1v-1zm18 0v1h1v-1zm10 0v1h1v-1zm2 0v1h1v-1zm-32 1v1h1v-1zm2 1v1h2v-1h-1zm4 0v2h1v-2zm0 2h-1v1h1zm-1 1h-1v1h1zm-1 1h-2v1h2zm4-4v1h2v-1h-1zm4 0v1h1v-1zm3 0v1h1v-1zm3 0v1h1v-1zm3 0v1h1v-1zm6 0v1h1v-1zm3 0v1h1v-1zm11 0v1h1v-1zm4 0v1h1v-1zm-21 1v1h1v-1zm11 0v1h1v-1zm12 0v1h2v-1h-1zm13 0v1h1v-1zm0 1h-2v1h2zm-2 1h-1v1h-1v1h2v-1zm-2 1v-1h-2v1h1zm-2-1v-1h-1v1zm8-2v1h1v-1zm3 0v1h1v-1zm13 0v1h1v-1zm0 1h-2v1h2zm2-1v1h2v-1h-1zm13 0v1h1v-1zm3 0v1h1v-1zm18 0v1h1v-1zm2 0v2h1v-1h1v-1h-1zm2 1v1h2v-1h-1zm2 0h1v-1h-1zm0 1v1h2v-1h-1zm5-2v1h2v-1h-1zm3 0v1h2v-1h-1zm10 0v1h1v-1zm5 0v1h1v-1zm3 0v1h2v-1h-1zm-135 1v1h1v-1zm0 1h-1v1h1zm26-1v1h2v-1h-1zm13 0v1h1v-1zm0 1h-2v1h2zm21-1v1h1v-1zm0 1h-2v1h2zm2-1v2h1v-2zm1 2v2h1v-1h1v-1h-1zm27-2v1h1v-1zm3 0v1h1v-1zm1 1v1h1v-1zm7-1v1h1v-1zm19 0v1h1v-1zm21 0v1h1v-1zm-145 1v1h1v-1zm1 1v1h-1v2h1v-1h1v-2zm-1 3h-1v1h1zm7-4v1h1v-1zm14 0v1h1v-1zm0 1h-1v1h1zm-1 1h-1v1h1zm-1 1h-1v1h1zm-1 1h-1v1h1zm0 1v1h2v-1h-1zm2 0h1v-1h-1zm1-1h1v-1h-1zm1-1h1v-1h-1zm1-1h1v-1h-1zm1-1h1v-1h-1zm3-1v1h1v-1zm6 0v1h1v-1zm2 0v1h1v-1zm37 0v1h1v-1zm1 1v2h1v-1h1v-2h-1v1zm-1 0h-1v1h1zm5-1v1h1v-1zm25 0v1h1v-1zm1 1v1h1v-1zm-1 0h-1v1h1zm18-1v1h1v-1zm2 0v2h1v-2zm18 0v2h1v-2zm-135 1v1h1v-1zm11 0v1h2v-1h-1zm13 0v1h1v-1zm0 1h-1v1h1zm30-1v1h1v-1zm24 0v1h1v-1zm1 1v1h1v-1zm7-1v1h1v-1zm3 0v1h2v-1h-1zm34 0v1h1v-1zm3 0v2h1v-2zm7 0v2h1v-2zm-135 1v1h1v-1zm7 0v1h1v-1zm24 0v1h1v-1zm6 0v1h1v-1zm6 0v1h1v-1zm0 1h-1v1h1zm0 1v1h1v-1zm-1 0h-1v1h1zm9-2v1h2v-1h-1zm10 0v1h1v-1zm24 0v1h1v-1zm26 0v2h1v-2zm0 2h-1v1h1zm20-2v1h2v-1h-1zm8 0v1h1v-1zm1 1v2h1v-1h1v-1h-1zm2 1v1h1v-1zm-2 1h-1v1h1zm-1 1h-1v1h1zm-1 1h-1v1h1zm-145-4v1h1v-1zm18 0v1h2v-1h-1zm12 0v1h-1v1h2v-2zm1 2v1h1v-1zm-2 0h-1v1h-1v1h1v1h2v-1h-1v-1zm32-2v1h1v-1zm5 0v2h1v-2zm1 2v1h2v-1h1v-1h-2v1zm6-2v1h1v-1zm7 0v1h1v-1zm2 0v1h1v-1zm1 1v1h2v-1h-1zm13-1v1h1v-1zm0 1h-1v2h1v-1zm7-1v1h1v-1zm8 0v1h2v-1h-1zm19 0v1h1v-1zm0 1h-1v1h1zm2-1v1h1v-1zm-93 1v1h1v-1zm0 1h-1v1h1zm17-1v1h2v-1h-1zm37 0v1h1v-1zm0 1h-2v1h2zm0 1v1h1v-1zm8-2v1h1v-1zm1 1v1h1v-1zm23-1v1h1v-1zm12 0v1h1v-1zm7 0v1h1v-1zm-131 1v1h2v-1h-1zm40 0v1h1v-1zm9 0v1h1v-1zm2 0v3h1v-3zm13 0v1h1v-1zm0 1h-1v1h1zm2-1v1h1v-1zm19 0v1h1v-1zm1 1v2h1v-2zm-1 0h-1v1h1zm15-1v1h1v-1zm9 0v1h1v-1zm-119 1v1h1v-1zm6 0v1h1v-1zm0 1h-1v1h1zm7-1v1h1v-1zm20 0v1h1v-1zm4 0v1h1v-1zm0 1h-1v1h1zm-1 1h-1v1h1zm4-2v1h1v-1zm5 0v1h-1v1h2v-2zm39 0v1h1v-1zm19 0v1h1v-1zm2 0v1h2v-1h-1zm16 0v1h1v-1zm0 1h-1v1h1zm0 1v1h3v-2h-1v1h-1zm0 1h-1v1h1zm-1 1h-1v2h1v-1zm-1 0v-1h-1v1zm10-4v1h2v-1h-1zm2 1v1h-1v2h1v-1h1v-1h1v-1h-1zm-128 0v1h1v-1zm14 0v1h1v-1zm33 0v1h1v-1zm0 1h-1v1h1zm3-1v3h2v-1h-1v-2zm3 0v1h2v-1h-1zm2 1v1h2v-1h-1zm2 1v2h1v-1h1v-1h-1zm2 1v2h1v-1h1v-1h-1zm-2 1h-1v1h1zm0 1v1h1v-1zm-1 0h-1v2h1v-1zm4-5v1h1v-1zm1 1v1h2v-1h-1zm7-1v1h1v-1zm6 0v1h2v-1h-1zm24 0v1h1v-1zm9 0v1h1v-1zm7 0v1h1v-1zm0 1h-1v1h1zm-1 1h-1v1h1zm10-2v1h1v-1zm12 0v1h1v-1zm-130 1v1h1v-1zm2 0v1h1v-1zm1 1v1h1v-1zm1 0h1v-1h-1zm1 0v1h1v-1zm25-1v1h1v-1zm0 1h-1v1h1zm36-1v1h2v-1h-1zm2 1v1h1v-1zm13-1v1h1v-1zm3 0v1h1v-1zm20 0v1h2v-1h-1zm31 0v1h1v-1zm-123 1v1h1v-1zm1 1v2h2v-1h-1v-1zm10-1v1h1v-1zm1 1v1h1v-1zm8-1v1h1v-1zm1 1v1h1v-1zm-1 0h-1v1h1zm6-1v1h1v-1zm24 0v1h1v-1zm9 0v2h1v1h1v-2h-1v-1zm30 0v1h1v-1zm26 0v1h1v-1zm10 0v1h1v-1zm1 1v1h1v-1zm-1 0h-1v1h1zm-1 1h-1v1h1zm-1 1h-1v1h1zm-143-2v1h1v-1zm6 0v1h1v-1zm78 0v1h1v-1zm3 0v1h1v-1zm15 0v1h1v-1zm1 1v1h1v-1zm10-1v1h1v-1zm13 0v1h1v-1zm0 1h-1v1h1zm6-1v1h1v-1zm-135 1v1h1v-1zm1 1v1h1v-1zm0 1h-1v1h1zm0 1v1h2v-1h-1zm0 1h-1v2h1v-1zm-1 2h-1v1h1zm0-2v-1h-1v1zm7-4v1h1v-1zm40 0v1h1v-1zm1 1v2h1v-2zm22-1v1h1v-1zm7 0v1h1v-1zm24 0v1h1v-1zm1 1v2h1v-2zm37-1v1h2v-1h-1zm-126 1v1h2v-1h-1zm3 0v1h1v-1zm6 0v1h1v-1zm6 0v1h1v-1zm1 1v1h2v-1h-1zm2 1v1h2v-1h-1zm-3-1h-1v1h1zm15-1v1h1v-1zm12 0v1h1v-1zm2 0v1h1v-1zm24 0v1h1v-1zm10 0v1h1v-1zm0 1h-2v1h2zm3-1v1h1v-1zm3 0v1h1v-1zm14 0v1h2v-1h-1zm3 0v1h1v-1zm10 0v1h1v-1zm12 0v1h1v-1zm0 1h-2v1h2zm-97 0v1h1v-1zm11 0v1h1v-1zm16 0v1h1v-1zm0 1h-1v1h1zm-1 1h-1v1h1zm9-2v1h2v-1h-1zm9 0v2h1v-1h1v-1h-1zm2 1v1h1v-1zm-2 1h-1v1h1zm16-2v1h1v-1zm0 1h-2v1h2zm0 1v1h2v-1h-1zm39-2v1h1v-1zm9 0v1h1v-1zm-136 1v1h1v-1zm6 0v1h1v-1zm0 1h-2v1h2zm18-1v1h1v-1zm8 0v1h1v-1zm1 1v1h1v1h1v-1h1v-1h-2zm8-1v1h1v-1zm1 1v1h1v-1zm3-1v1h1v-1zm24 0v1h1v-1zm27 0v1h1v-1zm6 0v1h1v-1zm3 0v1h1v-1zm0 1h-1v1h1zm4-1v1h1v-1zm5 0v1h1v-1zm3 0v1h1v-1zm0 1h-1v1h1zm12-1v1h1v-1zm3 0v1h1v-1zm-130 1v1h1v-1zm0 1h-2v2h1v-1h1zm15-1v1h1v-1zm11 0v1h1v-1zm23 0v1h1v-1zm8 0v1h1v-1zm5 0v3h1v-2h1v-1h-1zm1 3v1h1v-1zm12-3v1h1v-1zm0 1h-1v1h1zm5-1v1h1v-1zm16 0v1h1v-1zm0 1h-1v1h1zm21-1v1h1v-1zm0 1h-1v1h1zm2-1v1h1v-1zm16 0v1h1v-1zm-124 1v1h1v-1zm0 1h-1v1h1zm0 1v1h1v-1zm0 1h-1v2h1v-1zm9-3v1h1v-1zm0 1h-1v1h1zm-1 1h-1v1h1zm26-2v1h1v-1zm1 1v1h1v-1zm7-1v1h1v-1zm18 0v1h1v-1zm0 1h-1v1h1zm0 1v1h2v1h2v-1h-1v-1h-2zm0 1h-1v2h1v-1zm33-3v1h1v-1zm0 1h-1v1h1zm-1 1h-2v1h2zm4-2v1h1v-1zm0 1h-1v1h1zm-1 1h-1v1h1zm21-2v1h2v-1h-1zm-132 1v1h1v-1zm12 0v1h1v-1zm19 0v1h1v-1zm14 0v1h1v-1zm1 1v1h2v-1h-1zm14-1v1h1v-1zm1 1v1h1v-1zm2-1v1h1v-1zm21 0v1h1v-1zm8 0v1h1v-1zm4 0v1h1v-1zm30 0v1h2v-1h-1zm0 1h-1v1h1zm-133 0v1h1v-1zm1 1v1h2v-1h-1zm2 1v2h1v-2zm12-2v1h1v-1zm12 0v1h1v-1zm21 0v1h1v-1zm8 0v1h1v-1zm22 0v1h1v-1zm30 0v1h1v-1zm3 0v1h1v-1zm12 0v1h1v-1zm0 1h-1v1h1zm5-1v1h1v-1zm-108 1v1h1v-1zm23 0v1h1v1h1v-1h1v-1h-2zm16 0v1h1v-1zm2 0v2h1v-1h1v-1h-1zm4 0v1h1v-1zm24 0v1h1v-1zm1 1v1h1v-1zm13-1v1h2v-1h-1zm3 0v1h1v-1zm13 0v1h1v-1zm0 1h-1v1h1zm0 1v2h1v-2zm20-2v1h2v-1h-1zm4 0v1h1v-1zm0 1h-1v1h1zm-133 0v1h1v-1zm3 0v1h1v-1zm0 1h-1v1h1zm-1 1h-1v1h1zm4-2v1h1v-1zm9 0v1h1v-1zm0 1h-1v1h1zm-1 1h-1v1h1zm13-2v1h1v-1zm2 0v1h1v-1zm10 0v1h1v-1zm20 0v2h1v-1h1v-1h-1zm24 0v1h2v-1h-1zm0 1h-1v1h-1v1h2v-1zm8-1v2h1v-2zm23 0v1h1v-1zm1 1v1h1v-1zm-1 0h-1v1h1zm9-1v1h1v-1zm1 1v2h1v-1h1v-1h-1zm-128 0v1h1v-1zm0 1h-1v1h1zm22-1v2h1v-2zm5 0v1h1v-1zm9 0v1h1v-1zm1 1v1h1v-1zm11-1v1h1v-1zm12 0v2h2v-1h-1v-1zm9 0v1h1v-1zm9 0v1h1v-1zm1 1v1h1v-1zm20-1v1h1v-1zm5 0v1h1v-1zm6 0v2h1v-2zm13 0v1h1v-1zm0 1h-1v1h1zm9-1v1h1v-1zm1 1v1h1v-1zm8-1v1h1v-1zm-148 1v1h1v-1zm0 1h-1v1h1zm9-1v1h1v-1zm6 0v1h1v-1zm6 0v1h1v-1zm6 0v1h1v-1zm5 0v1h1v-1zm4 0v1h1v-1zm11 0v1h1v-1zm6 0v1h1v-1zm4 0v1h1v-1zm8 0v1h1v-1zm9 0v1h1v-1zm9 0v1h1v-1zm-87 1v1h1v-1zm0 1h-1v1h1zm6-1v2h1v-2zm4 1v1h1v-1zm5 0v1h1v-1zm4 0v1h2v-1h-1zm3 0v1h2v-1h-1zm7 0v1h2v-1h-1zm6 0v1h1v-1zm13 0v1h1v-1zm3 0v1h1v-1zm5 0v1h2v-1h-1zm4 0v1h1v-1zm8 0v1h1v-1zm8 0v1h1v-1zm3 0v1h1v-1zm2 0v1h3v-1h-2zm6 0v1h1v-1zm5 0v1h1v-1zm2 0v1h1v-1zm4 0v1h1v-1z"/>
</svg>
