<?xml version="1.0" encoding="UTF-8"?>
<svg version="1.1" viewBox="0 0 157 30" xmlns="http://www.w3.org/2000/svg">
 <path id="A" opacity="0.25" d="m3 0v1 1h1v-1h1 1v-1h-1-1-1zm4 0v1h1 1v-1h-1-1zm3 0v1h1v-1h-1zm2 0v1h1v-1h-1zm2 0v1h1 1 1 1v-1h-1-1-1-1zm5 0v1h1 1v-1h-1-1zm3 0v1h1v-1h-1zm3 0v1h1 1v-1h-1-1zm3 0v1h1 1v-1h-1-1zm3 0v1h1 1 1v-1h-1-1-1zm4 0v1h1v-1h-1zm2 0v1h1 1v-1h-1-1zm3 0v1h1v-1h-1zm14 0v1h1v-1h-1zm-18 2v1h1v-1h-1zm0 1h-1v1 1h1 1v-1h-1v-1zm1 2v1 1h1v-1-1h-1zm0 2h-1v1h1v-1zm-1 1h-1-1v1h1 1v-1zm3-6v1h1v-1h-1zm1 1v1h1v-1h-1zm3-1v1h1v-1h-1zm0 1h-1v1h1v-1zm-37 0v1h1 1v-1h-1-1zm2 1v1h1v-1h-1zm4-1v1 1h1v-1-1h-1zm3 0v1h1v-1h-1zm6 0v1h1v-1h-1zm4 0v1h1v-1h-1zm1 1v1h1 1v-1h-1-1zm2 1v1h1 1v-1h-1-1zm-2 0h-1v1h1v-1zm6-2v1 1h1v-1-1h-1zm13 0v1 1h1v-1h1v-1h-1-1zm2 1v1h1 1v-1-1h-1v1h-1zm7-1v1h1v-1h-1zm13 0v1h1v-1h-1zm0 1h-1-1v1h-1v1h-1v1h1 1v-1h1v-1h1v-1zm-1 2v1h1 1v-1h-1-1zm2 0h1v-1h-1v1zm1-1h1v-1h-1v1zm1-1h1v-1h-1v1zm6-1v1h1v-1h-1zm2 0v1 1h1v-1h1v-1h-1-1zm12 0v1h1v-1h-1zm0 1h-1v1 1h1v-1-1zm0 2v1h1 1v-1h-1-1zm2 0h1v-1h-1v1zm1-1h1v-1-1h-1v1 1zm1 0v1h1 1v-1h1v-1h-1-1v1h-1zm3 0v1 1h1v-1h1v-1-1h-1v1h-1zm0 2h-1v1h1v-1zm0 1v1h1v-1h-1zm0 1h-1v1h1v-1zm-1 1h-1v1 1h1v-1-1zm0 2v1h1v-1h-1zm1 0h1 1v-1h-1-1v1zm2 0v1h1 1v-1h-1-1zm2 0h1v-1h-1v1zm-5-3v-1h-1v1h1zm-2-3h-1v1h1v-1zm-1 1h-1v1h1v-1zm-1 1h-1v1h1v-1zm-3-2h-1-1v1 1h1v-1h1v-1zm-2 0v-1-1h-1v1 1h1zm16-3v1h1v-1h-1zm1 1v1h-1v1 1h1v-1h1v-1-1h-1zm1 0h1v-1h-1v1zm-2 1v-1h-1-1v1h-1v1h1 1v-1h1zm5-2v1h1v-1h-1zm0 1h-1v1h1v-1zm-1 1h-1v1h1v-1zm5-2v1h1v-1h-1zm3 0v1h1v-1h-1zm20 0v1h1v-1h-1zm3 0v1 1h1v-1h1v-1h-1-1zm2 1v1h1v-1h-1zm0 1h-1v1h1v-1zm4-2v1h-1v1h1 1v-1-1h-1zm1 2v1h1 1v-1-1h-1v1h-1zm9-2v1h1v-1h-1zm-137 1v1h-1v1h1 1v-1-1h-1zm1 2v1h1v-1h-1zm1 0h1 1v-1h-1-1v1zm4-2v1h1v-1h-1zm96 0v1h1v-1h-1zm0 1h-1v1h1v-1zm-1 1h-1v1h1v-1zm-1 1h-1v1h1v-1zm-1 1h-1v1h1v-1zm0-1v-1h-1v1h1zm0-1h1v-1h-1v1zm12-2v1h1v-1h-1zm3 0v1h1v-1h-1zm19 0v1h1v-1h-1zm0 1h-1-1v1 1h1v-1h1v-1zm-2 2h-1v1h1v-1zm0 1v1h1v-1h-1zm0 1h-1v1h1v-1zm4-5v1h1v-1h-1zm-142 1v1 1h1v-1-1h-1zm30 0v1h1 1v-1h-1-1zm10 0v1h1v-1h-1zm0 1h-1-1v1h1 1v-1zm0 1v1h1v-1h-1zm6-2v1h1v-1h-1zm1 1v1h1 1v-1h-1-1zm2 1v1h1v-1h-1zm0 1h-1v1h1v-1zm-2-1h-1v1h1v-1zm-1 1h-1v1h1v-1zm-1 0v-1h-1-1v1h1 1zm-2 0h-1v1h-1v1h1 1v-1-1zm0 2v1h1v-1h-1zm0-3v-1h-1v1h1zm59-2v1h1v-1h-1zm0 1h-1v1 1h1v-1-1zm0 2v1h-1v1h1 1v-1h1v-1-1h-1v1h-1zm10-3v1h1v-1h-1zm0 1h-1-1v1h1 1v-1zm-2 1h-1v1h1v-1zm14-2v1h1v-1h-1zm1 1v1h1 1v-1-1h-1v1h-1zm19-1v1h1v-1h-1zm-141 1v1h1v-1h-1zm9 0v1h1v-1h-1zm11 0v1h1v-1h-1zm10 0v1h1v-1h-1zm1 1v1 1h1v-1-1h-1zm1 2v1h1v-1h-1zm1 0h1 1v-1h-1-1v1zm2 0v1h1v-1h-1zm0 1h-1v1h1v-1zm-4-1h-1-1v1h1 1v-1zm-2 0v-1h-1-1v1h1 1zm34-3v1h1v-1h-1zm32 0v1h1 1v-1h-1-1zm16 0v1h1v-1h-1zm2 0v1h1v-1h-1zm5 0v1h1 1v-1h-1-1zm2 1v1h1v-1h-1zm-2 0h-1v1 1h-1v1h1 1v-1h1v-1h-1v-1zm-2 3h-1v1h-1v1h1 1v-1-1zm-2 1v-1-1h-1v1 1h1zm2-2v-1-1h-1v1 1h1zm-123-2v1h1v-1h-1zm10 0v1h1v-1h-1zm8 0v1h1v-1h-1zm45 0v1h1v-1h-1zm2 0v1 1h1v-1-1h-1zm0 2h-1v1h1v-1zm30-2v1h-1v1h1 1v-1-1h-1zm5 0v1 1h1v-1-1h-1zm44 0v1h1v-1h-1zm1 1v1h1 1v-1h-1-1zm-143 0v1h1v-1h-1zm6 0v1h1v-1h-1zm0 1h-1v1h1v-1zm8-1v1 1h1v-1-1h-1zm1 2v1h1v-1h-1zm1 0h1v-1h-1v1zm14-2v1h1v-1h-1zm24 0v1h1v-1h-1zm21 0v1h1v-1h-1zm1 1v1h1v-1h-1zm37-1v1h1v-1h-1zm15 0v1h1v-1h-1zm4 0v1h1v-1h-1zm3 0v1h1v-1h-1zm0 1h-1v1h1v-1zm0 1v1 1h1v-1-1h-1zm-1 0h-1v1h1v-1zm3-2v1 1 1h1v-1-1-1h-1zm-127 1v1h1v-1h-1zm0 1h-1v1 1h1v-1-1zm-1 2h-1v1h1v-1zm10-3v1h1v-1h-1zm0 1h-1v1h1v-1zm51-1v1h1 1v-1h-1-1zm2 1v1h-1v1h1 1v-1h1v-1h-1-1zm-1 2h-1v1h-1v1h1 1v-1-1zm-2 1v-1-1h-1v1 1h1zm0-2h1v-1h-1v1zm26-2v1h1v-1h-1zm1 1v1h1v-1h-1zm13-1v1 1h1v-1h1v-1h-1-1zm6 0v1h1v-1h-1zm-117 1v1h1v-1h-1zm2 0v1 1h1v-1h1v-1h-1-1zm3 0v1 1h1v-1-1h-1zm1 2v1h1v-1h-1zm1 0h1 1v-1h-1-1v1zm-2 0h-1v1 1 1h1v-1-1-1zm21-2v1 1h1v-1h1v-1h-1-1zm7 0v1h1v-1h-1zm17 0v1h1 1v-1h-1-1zm2 1v1h-1v1h-1v1h1 1v-1h1v-1h1v-1h-1-1zm0 3v1h1v-1h-1zm0 1h-1v1h1v-1zm-2-1h-1v1h1v-1zm-1 1h-1v1h1v-1zm-1 0v-1h1v-1h-1-1v1 1h1zm-1 0h-1v1h1v-1zm9-5v1h1 1v-1h-1-1zm2 1v1 1h1v-1h1v-1h-1-1zm2 0h1v-1h-1v1zm1 0v1h1 1v-1h-1-1zm-2 2v1h1 1v-1h-1-1zm2 1v1h-1v1h1 1v-1-1h-1zm1 2v1h1v-1h-1zm0 1h-1v1h1v-1zm-2-1h-1v1 1h1v-1-1zm-4-5h-1v1h1v-1zm25-1v1h1v-1h-1zm6 0v1h1v-1h-1zm0 1h-1-1v1 1h1v-1h1v-1zm-1 2v1h1v-1h-1zm0 1h-1v1h1v-1zm22-4v1h1v-1h-1zm19 0v1 1h1 1v-1h-1v-1h-1zm16 0v1 1h1v-1h1v-1h-1-1zm2 1v1h1v-1h-1zm1 0h1v-1h-1v1zm-133 0v1 1h1 1v-1-1h-1-1zm10 0v1h1v-1h-1zm1 1v1h-1v1 1h1v-1h1v-1-1h-1zm-1 3h-1v1h1v-1zm0 1v1h1 1v-1h-1-1zm2 1v1 1h1v-1-1h-1zm0 2h-1v1 1 1h1v-1h1v-1h-1v-1zm6-8v1h1v-1h-1zm12 0v1 1h1v-1-1h-1zm1 2v1h1 1v-1h-1-1zm24-2v1h1v-1h-1zm33 0v1h1v-1h-1zm14 0v1 1h-1-1v1h1 1 1v-1-1h1v-1h-1-1zm3 0v1h1v-1h-1zm30 0v1 1h1v-1-1h-1zm-148 1v1h1v-1h-1zm33 0v1h1 1v-1h-1-1zm2 1v1h1 1v-1h-1-1zm-2 0h-1v1h1v-1zm-1 1h-1v1h1v-1zm44-2v1h1v-1h-1zm30 0v1h1v-1h-1zm1 1v1h-1v1h1 1v-1h1v-1h-1-1zm2 0h1v-1h-1v1zm1 0v1 1h1v-1h1v-1h-1-1zm1 2v1h1 1v-1h-1-1zm2 1v1h1 1v-1-1h-1v1h-1zm-2 0h-1v1h1v-1zm-1 1h-1v1 1h1v-1-1zm0 2v1h1v-1h-1zm0 1h-1v1h1v-1zm-1-3v-1h1v-1h-1-1v1 1h1zm23-5v1 1h1v-1-1h-1zm0 2h-1v1h1v-1zm7-2v1h1v-1h-1zm-131 1v1h1v-1h-1zm0 1h-1v1h1v-1zm18-1v1h1 1v-1h-1-1zm3 0v1 1 1h1v-1-1-1h-1zm0 3h-1v1 1h1v-1-1zm-1 0v-1h-1v1h1zm37-3v1h1 1v-1h-1-1zm15 0v1h1v-1h-1zm18 0v1h-1v1h1 1v-1-1h-1zm4 0v1h1v-1h-1zm1 1v1 1h1v-1-1h-1zm1 0h1v-1h-1v1zm25-1v1h1v-1h-1zm0 1h-1v1h1v-1zm0 1v1h1v-1h-1zm0 1h-1v1h-1v1h-1v1h1 1v-1h1v-1-1zm-1 0v-1h-1v1h1zm16-3v1h1v-1h-1zm2 0v1 1h1v-1-1h-1zm1 2v1h1v-1h-1zm0 1h-1v1h1v-1zm-1 1h-1v1 1h1v-1-1zm-144-3v1h1v-1h-1zm9 0v1h1v-1h-1zm27 0v1h1v-1h-1zm2 0v1h1v-1h-1zm36 0v1h1v-1h-1zm6 0v1h1v-1h-1zm8 0v1 1h1v-1-1h-1zm4 0v1h1v-1h-1zm6 0v1 1h1v-1-1h-1zm25 0v1h1v-1h-1zm11 0v1h1 1v-1h-1-1zm0 1h-1v1h1v-1zm-1 1h-1v1h1v-1zm7-2v1h1v-1h-1zm-133 1v1 1h1v-1-1h-1zm4 0v1h1v-1h-1zm1 1v1h1v-1h-1zm0 1h-1v1h-1v1h1 1v-1-1zm0 2v1h1v-1h-1zm1 0h1 1v-1h-1-1v1zm-3-1v-1h-1v1h1zm-1 0h-1v1h1v-1zm-1 1h-1-1v1h1 1v-1zm-2 1h-1v1h-1v1h1 1v-1-1zm-2 2h-1v1h1v-1zm1-2v-1h-1-1v1h1 1zm-2 0h-1v1h1v-1zm0-1v-1-1h-1v1 1h1zm0-2h1v-1h-1v1zm2 2h1v-1-1h-1v1 1zm5-2h1v-1h-1v1zm7-2v1h1v-1h-1zm1 1v1h1v-1h-1zm-1 0h-1v1h1v-1zm14-1v1h1v-1h-1zm24 0v1 1h1v-1-1h-1zm13 0v1h1v-1h-1zm2 0v1 1h1v-1-1h-1zm1 2v1 1h1v-1-1h-1zm1 0h1v-1h-1v1zm-2 0h-1v1h1v-1zm-1 1h-1-1v1h1 1v-1zm47-3v1h1v-1h-1zm1 1v1h1v-1h-1zm0 1h-1v1h-1v1h1 1v-1-1zm-1 0v-1h-1-1v1h1 1zm3-2v1h1v-1h-1zm1 1v1 1h1v-1-1h-1zm1 2v1h1v-1h-1zm-88-2v1h-1v1h1 1v-1-1h-1zm5 0v1 1h1v-1h1v-1h-1-1zm4 0v1h1v-1h-1zm9 0v1h1v-1h-1zm0 1h-1v1 1h1v-1-1zm-1 2h-1v1h1v-1zm13-3v1h1v-1h-1zm12 0v1h1v-1h-1zm0 1h-1v1h1v-1zm3-1v1 1h1v-1-1h-1zm13 0v1h1v-1h-1zm2 0v1h1 1v-1h-1-1zm3 0v1h1v-1h-1zm39 0v1h1 1v-1h-1-1zm2 1v1h1v-1h-1zm0 1h-1v1 1h1v-1-1zm0 2v1h-1v1h1 1v-1h1v-1-1h-1v1h-1zm-1 1v-1h-1v1h1zm5-5v1h1v-1h-1zm6 0v1h1v-1h-1zm-118 1v1h1v-1h-1zm6 0v1 1h1v-1-1h-1zm1 2v1h1 1v-1h-1-1zm9-2v1h1v-1h-1zm1 1v1h1v-1h-1zm-1 0h-1v1h1v-1zm-1 1h-1v1h1v-1zm9-2v1h-1v1h1 1v-1-1h-1zm30 0v1h1v-1h-1zm3 0v1h-1v1h1 1v-1h1v-1h-1-1zm13 0v1h1v-1h-1zm3 0v1h1v-1h-1zm-86 1v1h1v-1h-1zm1 1v1h1v-1h-1zm0 1h-1v1 1 1h1v-1-1-1zm0 3v1h1v-1h-1zm1 0h1v-1h-1v1zm2-5v1h1v-1h-1zm20 0v1 1h1v-1h1v-1h-1-1zm1 2v1h1v-1h-1zm0 1h-1v1h1v-1zm14-3v1h1v-1h-1zm9 0v1h1v-1h-1zm1 1v1h1v-1h-1zm1 1v1h1v-1h-1zm-2-1h-1v1h1v-1zm27-1v1 1h1v-1-1h-1zm4 0v1h1v-1h-1zm0 1h-1-1v1 1h1v-1h1v-1zm-1 2v1 1h1v-1h1v-1h-1-1zm2 1v1h1v-1h-1zm1 1v1h1v-1h-1zm-4-2h-1v1h1v-1zm4-3v1h1v-1h-1zm15 0v1h1v-1h-1zm18 0v1h1v-1h-1zm0 1h-1v1h1v-1zm10-1v1h1v-1h-1zm1 1v1 1h1v-1-1h-1zm-108 0v1h1v-1h-1zm0 1h-1v1h1v-1zm-1 1h-1v1h1v-1zm29-2v1h1v-1h-1zm15 0v1h1v-1h-1zm5 0v1h1v-1h-1zm0 1h-1v1 1h1v-1-1zm18-1v1h1 1v-1h-1-1zm2 1v1 1h1v-1h1v-1h-1-1zm0 2h-1v1h1v-1zm32-3v1h1v-1h-1zm0 1h-1v1h1v-1zm0 1v1h1v-1h-1zm0 1h-1v1h1v-1zm15-3v1h1v-1h-1zm-148 1v1h1v-1h-1zm26 0v1h1v-1h-1zm3 0v1h-1v1h1 1v-1-1h-1zm26 0v1h1v-1h-1zm13 0v1h1v-1h-1zm16 0v1h1v-1h-1zm2 0v1h1v-1h-1zm30 0v1h1v-1h-1zm4 0v1h1v-1h-1zm1 1v1h1 1v-1h1v-1h-1-1v1h-1zm22-1v1h1 1v-1h-1-1zm-145 1v1h1v-1h-1zm10 0v1h1v-1h-1zm5 0v1h-1v1h-1v1h1 1v-1h1v-1h1v-1h-1-1zm1 2v1h1v-1h-1zm1 1v1 1 1h1v-1-1-1h-1zm1 3v1h1v-1h-1zm1 0h1 1v-1h-1-1v1zm2 0v1h1v-1h-1zm16-6v1h1v-1h-1zm0 1h-1v1h1v-1zm3-1v1h1v-1h-1zm8 0v1h1v-1h-1zm3 0v1 1h1v-1-1h-1zm3 0v1h1v-1h-1zm6 0v1h1v-1h-1zm0 1h-1v1h1v-1zm12-1v1h1 1v-1h-1-1zm2 1v1 1h1v-1-1h-1zm0 2h-1-1v1h1 1v-1zm0 1v1 1h1v-1h1v-1h-1-1zm-2-1v-1-1h-1v1 1h1zm7-3v1h1v-1h-1zm11 0v1h1 1v-1h-1-1zm0 1h-1v1h1v-1zm21-1v1 1h1v-1h1v-1h-1-1zm3 0v1 1h1v-1-1h-1zm13 0v1h1v-1h-1zm5 0v1 1h1v-1-1h-1zm0 2h-1v1h1v-1zm18-2v1h-1v1h-1v1h1 1v-1h1v-1-1h-1zm-2 3h-1v1h-1v1h1 1v-1-1zm-1 0v-1h-1v1h1zm-145-2v1h1v-1h-1zm24 0v1h1v-1h-1zm19 0v1h1v-1h-1zm0 1h-1-1v1 1h1v-1h1v-1zm-2 2h-1v1h1v-1zm-1 1h-1v1h1v-1zm0 1v1h1v-1h-1zm15-5v1h1v-1h-1zm6 0v1h1v-1h-1zm1 1v1h1 1v-1h-1-1zm23-1v1h1v-1h-1zm20 0v1h1v-1h-1zm1 1v1h1v-1h-1zm1 1v1h1v-1h-1zm1 1v1h-1v1h1 1v-1-1h-1zm-1 2h-1v1h1v-1zm10-5v1h1v-1h-1zm24 0v1 1h1v-1-1h-1zm-133 1v1h1v-1h-1zm0 1h-1v1 1h1v-1-1zm0 2v1h1 1v-1h-1-1zm2 1v1h1v-1h-1zm1 0h1v-1h-1v1zm10-4v1h1v-1h-1zm15 0v1h1v-1h-1zm0 1h-1-1v1h1 1v-1zm-2 1h-1v1h1v-1zm4-2v1h1v-1h-1zm13 0v1h1v-1h-1zm26 0v1h1v-1h-1zm0 1h-1v1 1h1v-1-1zm3-1v1 1h1v-1-1h-1zm0 2h-1v1h1v-1zm-1 1h-1v1h1v-1zm0 1v1h1v-1h-1zm11-4v1h1v-1h-1zm1 1v1 1h1v-1-1h-1zm1 0h1v-1h-1v1zm-1 2h-1-1v1h-1v1h1 1v-1h1v-1zm-2 0v-1h-1-1v1h1 1zm13-3v1h1v-1h-1zm0 1h-1-1v1h-1v1 1h1v-1h1v-1h1v-1zm-3 3h-1v1h1v-1zm21-4v1h1v-1h-1zm1 1v1 1h1v-1-1h-1zm1 2v1h-1v1h1 1v-1-1h-1zm-1 1v-1h-1v1h1zm4-4v1h1v-1h-1zm0 1h-1v1h1v-1zm-127 0v1h1 1v-1h-1-1zm2 1v1h1 1v-1h-1-1zm0 1h-1v1h1v-1zm-1 1h-1v1h1v-1zm0 1v1h1 1v-1h-1-1zm-1 0h-1v1 1h1v-1-1zm6-4v1h1v-1h-1zm15 0v1h1v-1h-1zm7 0v1h1v-1h-1zm1 1v1 1h1v-1h1v-1h-1-1zm2 0h1v-1h-1v1zm1 0v1h1 1v-1h-1-1zm23-1v1h1v-1h-1zm0 1h-1v1h1v-1zm-1 1h-1-1v1h1 1v-1zm-2 1h-1v1h1v-1zm-1 0v-1h-1-1v1h1 1zm18-3v1h1v-1h-1zm0 1h-1v1h1v-1zm28-1v1h1v-1h-1zm1 1v1 1h1v-1h1v-1h-1-1zm0 2h-1v1h1v-1zm14-3v1h1v-1h-1zm6 0v1h1v-1h-1zm0 1h-1v1h1v-1zm2-1v1h1v-1h-1zm9 0v1h1v-1h-1zm4 0v1h1v-1h-1zm1 1v1h1v-1h-1zm1 0h1 1v-1h-1-1v1zm2 0v1h1v-1h-1zm1 0h1v-1h-1v1zm-5 0h-1v1h1v-1zm-110 0v1 1h1v-1-1h-1zm1 2v1h1v-1h-1zm1 0h1v-1h-1v1zm20-2v1h1v-1h-1zm15 0v1h1v-1h-1zm0 1h-1-1v1h1 1v-1zm0 1v1h1 1v-1h-1-1zm2 0h1v-1h-1v1zm4-2v1h1v-1h-1zm21 0v1h1v-1h-1zm18 0v1h1v-1h-1zm1 1v1 1h1v-1-1h-1zm1 0h1v-1h-1v1zm-2 0h-1v1h1v-1zm-1 1h-1v1h1v-1zm39-2v1h1v-1h-1zm-106 1v1h1 1v-1h-1-1zm2 1v1h1v-1h-1zm-2 0h-1v1h1v-1zm27-1v1h1v-1h-1zm6 0v1h1v-1h-1zm13 0v1h1v-1h-1zm12 0v1h1v-1h-1zm44 0v1 1h1v-1-1h-1zm-133 1v1h1v-1h-1zm66 0v1h1v-1h-1zm40 0v1h1v-1h-1zm20 0v1h1 1v-1h-1-1zm10 0v1h1v-1h-1zm2 0v1h1v-1h-1zm-140 1v1h1v-1h-1zm9 1v1h1v-1h-1zm26 0v1h1v-1h-1zm21 0v1h1v-1h-1zm6 0v1h1v-1h-1zm16 0v1h1 1v-1h-1-1zm3 0v1h1 1 1v-1h-1-1-1zm8 0v1h1v-1h-1zm10 0v1h1v-1h-1z"/>
 <path id="C" opacity="1" d="m41 0v1h1 1 1 1v-1h-1-1-1-1zm6 0v1h1v-1h-1zm2 0v1h1 1v-1h-1-1zm3 0v1h1 1v-1h-1-1zm3 0v1h1 1v-1h-1-1zm-47 2v1 1h1 1v-1h-1v-1h-1zm2 2v1h1 1v-1h-1-1zm2 1v1h1v-1h-1zm1 0h1v-1h1v-1h1v-1h-1-1v1h-1v1 1zm3-2v1h1 1 1v-1h-1-1-1zm3 1v1h1v-1h-1zm-11 0h-1-1v1h1v1h1v-1-1zm0 2v1h1v-1h-1zm13-4v1h1v-1h-1zm1 1v1 1h1v-1h1v1h-1v1h1v1h1 1v1h1v1h1 1v-1h1v-1h1v-1-1h-1v1h-1v1h-1-1v-1h1v-1h-1-1v1h-1v-1h1v-1h-1v-1-1h-1v1h-1-1zm6 2h1v-1h-1v1zm0-1v-1h1 1v1h1v1h1v-1-1h-1v-1h-1-1-1-1v1 1h1zm1 5v1h1v-1h-1zm0 1h-1-1v1h-1v-1h-1v1 1h1v1h-1v1 1h1v-1h1 1 1v-1h1v-1h-1-1v1h-1v-1h1v-1h1v-1zm1 2h1v-1h-1v1zm1-1h1v-1h-1v1zm0 1v1h1 1 1 1v-1h-1v-1h-1v1h-1-1zm-5 3v1h1v1h-1-1v1 1h1 1v1h-1v1 1h1v-1h1v-1h1v-1h-1v-1-1h1v-1h-1v-1h-1-1zm2 6v1 1h1 1v-1-1h-1-1zm0 2h-1v1h1v-1zm-1 1h-1-1v1 1h1v-1h1v-1zm-1-2h-1v1h1v-1zm0-12h1v-1h-1v1zm-4-5h-1v1h-1v1h-1-1v1h-1-1v1h-1v1 1 1h1v-1h1v-1h1v-1h1v1 1h1v-1h1v-1h-1v-1h1v-1h1v-1-1zm-3 6h-1v1h-1v1h1 1v-1-1zm-2 2h-1-1v1h-1v1h-1v1 1h1v-1h1v-1h1v-1h1v-1zm-3 4v1h1 1v-1h-1-1zm2 0h1 1v-1h1v-1-1h-1v1h-1v1h-1v1zm-3 0h-1-1v1h1v1h1v-1-1zm0 2v1h1v-1h-1zm0 1h-1-1v1h-1v1 1h1v-1h1v-1h1v-1zm-2 3v1 1h1v-1h1v-1h-1-1zm2 0h1v-1h-1v1zm1-1h1 1v-1-1h-1v1h-1v1zm0 1v1h-1v1 1h1v-1h1v-1h1v-1h-1-1zm2 1v1 1h1v-1h1v-1h1v-1h-1v-1h-1v1 1h-1zm3 0v1h1 1 1 1v-1h-1-1-1-1zm-8 1h-1v1h1v-1zm-1 1h-1v1h1v-1zm0 1v1h1 1v-1h-1-1zm-1 0h-1v1h1v-1zm1-6v-1h-1v1h1zm-1 0h-1v1h1v-1zm-1 1h-1v1h-1v1h1 1v-1-1zm0 2v1h1v-1h-1zm0 1h-1v1h1v-1zm-1 1h-1v1h1v-1zm3-6h1v-1h-1v1zm1-3v-1h-1-1v1h1 1zm-2-1v-1h-1-1v-1h1 1v1h1v-1-1h-1v-1h-1-1v1h-1v1 1 1h1 1 1zm-2-4v-1h-1v1h1zm0-1h1v-1h-1v1zm0-1v-1-1h-1v1 1h1zm2 2h1v-1h-1v1zm1-1h1v-1h-1v1zm3 4v-1h1v-1h-1-1v1h-1v1h1 1zm1-2h1v-1h-1v1zm2-5v-1h-1v1h1zm-1-1v-1h-1v1h1zm-1 0h-1v1 1h1v-1-1zm-1 2h-1v1h1v-1zm0 1v1h1v-1h-1zm0 1h-1v1h1v-1zm25-9v1h-1v1h1v1h1v-1-1-1h-1zm1 3v1h-1v1h-1v1h1 1v-1h1v-1-1h-1zm0 3v1h-1v1h1 1v1h1v-1h1v-1h-1-1v-1h-1zm3 1h1v-1h1v-1h-1-1-1v1h1v1zm-2 2h-1-1v1 1h1v-1h1v-1zm-1 2v1h-1v1h-1-1v1h-1v1h1 1 1v1 1h1v-1h1v-1h-1v-1-1h1v1h1 1v-1h-1v-1-1h-1-1zm2 0h1v-1h-1v1zm1-1h1v-1h-1v1zm1-1h1v-1h-1v1zm1-1h1v-1h-1v1zm-4 8v1 1h1v-1h1 1v-1h-1-1-1zm3 1v1h1v-1h-1zm0 1h-1v1h-1v1h1 1v-1-1zm0 2v1h-1v1h1 1v-1h1 1v-1h-1-1-1zm-1 2h-1v1h1v-1zm0 1v1h1 1v-1h-1-1zm-1 0h-1v1 1h1v-1-1zm0 2v1h1v-1h-1zm-1-7h-1-1v1h1 1v-1zm-2 0v-1h-1v1h1zm-1 0h-1v1h1v-1zm-1 1h-1v1h-1v1h1 1v-1-1zm-2 2h-1v1h-1v1h1 1v-1-1zm-2 2h-1v1h1v-1zm3-9v-1-1h-1-1-1-1v1h1 1 1v1h1zm-1 0h-1v1 1h1v-1-1zm-3-1h-1v1h1v-1zm7-1v-1h-1v1h1zm0-3v-1h-1v1h1zm-1 0h-1v1h1v-1zm4-9v1 1h1v-1h1v-1h-1-1zm2 1v1 1h1v-1h1v-1h-1-1zm4-1v1 1h1v-1-1h-1zm0 2h-1v1h1v-1zm-14-1v1 1h1 1v-1-1h-1-1zm17 0v1h-1v1h1 1 1 1v-1h-1-1v-1h-1zm3 1h1v-1h-1v1zm-4 1h-1v1h1v-1zm-1 1h-1v1h1v-1zm-1 1h-1v1h1v-1zm8-4v1h1v1h1v-1h1v-1h-1-1-1zm1 2h-1-1v1h1 1v-1zm0 1v1h1v-1h-1zm0 1h-1v1h1v-1zm-1 1h-1-1v1 1h1v1h-1v1 1h1v-1h1v-1h1v-1h-1v-1-1zm-2 3v-1h-1-1v-1h-1-1v1 1h1 1v1h1v-1h1zm-4-2v-1h-1v1h1zm-1 0h-1v1h1v-1zm1-1h1v-1h-1v1zm2 1h1v-1h-1v1zm1-1h1v-1h-1v1zm0-1v-1h-1v1h1zm10-4v1h1v-1h-1zm0 1h-1-1-1v1h1v1h1v-1h1v-1zm-2 2h-1v1h1v-1zm0 1v1h-1v1 1 1h1v-1h1 1 1v-1h-1-1v-1h1 1v-1-1h-1v1h-1-1zm3-1h1v-1h-1v1zm1-1h1v-1h-1v1zm1-1h1v-1h-1v1zm-2 4v1h1v-1h-1zm-3 3v1h1v-1h-1zm0 1h-1v1h1v-1zm-1-4v-1h-1v1h1zm-1 0h-1v1h1v-1zm10-5v1h1v-1h-1zm0 1h-1v1h1v-1zm-1 1h-1v1h1v-1zm4-2v1h1 1v1h1v-1h1v-1h-1-1-1-1zm2 2h-1-1v-1h-1v1h-1v1h-1v1h-1v1h1 1v-1h1v-1h1 1v1 1 1h1v-1h1 1v-1h-1-1v-1-1zm2 3v1h1v-1h-1zm-8 0h-1-1v1 1h1v-1h1v-1zm-2 2h-1v1h1v-1zm-1 1h-1v1h1v-1zm-1 1h-1v1h1v-1zm-1 1h-1v1h-1-1v1h-1v1h-1v1 1h1v-1h1v-1h1v-1h1 1v1h-1v1h1 1v-1-1-1h-1v-1zm-1 4h-1-1v1 1h1v-1h1v-1zm-2 2h-1v1h1v-1zm0 1v1 1h1v-1-1h-1zm-1 0h-1v1h1v-1zm-1 1h-1v1h1v-1zm-1 1h-1-1v1h1 1v-1zm1-4h-1v1h1v-1zm-1 1h-1v1h1v-1zm-1 1h-1v1h1v-1zm2-4v-1h-1v1h1zm0-1h1v-1h-1v1zm20-12v1h1v-1h-1zm9 0v1h1 1v-1h-1-1zm2 1v1h1v-1h-1zm0 1h-1v1h1v-1zm-1 1h-1v1 1h-1-1v1h1v1h1 1 1v-1h-1v-1-1-1zm1 3h1v-1h1v-1h-1-1v1 1zm0 1v1h1v-1h-1zm0 1h-1v1h1v-1zm-1 1h-1v1h1v-1zm0 1v1h1 1v-1h-1-1zm2 0h1 1v-1-1h1v-1h-1-1v1 1h-1v1zm3-3h1v-1h-1v1zm1-1h1v-1h-1v1zm1-1h1v-1h-1v1zm1-1h1v-1h-1v1zm-1 2v1 1h1v-1h1v-1h-1-1zm0 2h-1v1 1 1h-1v1 1h1 1v-1h1 1v-1h-1v-1h1v-1h-1-1v-1zm2 1h1v-1h-1v1zm1-1h1v-1h-1v1zm1-1h1v-1h1v-1h-1v-1-1h-1v1h-1v1h1v1 1zm1-4h1v-1h-1v1zm1-1h1v-1h-1v1zm0-1v-1h-1-1v1h1 1zm-3 8v1 1h1v-1h1v-1h-1-1zm2 0h1v-1h-1v1zm1-1h1v-1h-1v1zm-6 5v1h1v-1h-1zm0 1h-1v1h1v-1zm-1 1h-1v1h1v-1zm-1 1h-1v1 1h1v-1-1zm0-5v-1h-1v1h1zm-1 0h-1v1h1v-1zm-7-5h-1-1v1 1h1v-1h1v-1zm0-1v-1h-1-1-1v1h1 1 1zm-3-1v-1h-1v1h1zm0-1h1v-1h-1v1zm1-1h1v-1h-1v1zm4-1h-1-1v1h1 1v-1zm6-1v1h1v-1h-1zm0 1h-1-1v1 1h1 1v-1-1zm0 2v1h1v-1h-1zm1 0h1v-1h-1v1zm2-3v1h1v-1h-1zm7 0v1h1v-1h-1zm1 1v1h1v-1h-1zm1 0h1v-1h-1v1zm-1 1h-1v1h1v-1zm-1 1h-1v1h1v-1zm0 1v1h1 1 1v1h1v-1-1h-1v-1h-1v1h-1-1zm4 2v1 1h1 1v-1-1h1 1v-1-1h-1v1h-1-1v1h-1zm2 2v1h1 1v-1h-1-1zm2 1v1h1v-1h-1zm-5-3h-1v1h1v-1zm2-6v1h1v-1h-1zm0 1h-1v1h1v-1zm2-1v1 1h1 1v-1h1v-1h-1-1-1zm0 2h-1v1h1v-1zm-1 1h-1v1h1v-1zm8-3v1h1 1v-1h-1-1zm0 1h-1v1h1v-1zm6-1v1h1 1v-1h-1-1zm2 1v1h1v-1h-1zm-2 0h-1v1h1v-1zm-1 1h-1v1h1v-1zm-1 1h-1v1h1v-1zm-1 1h-1v1h1v-1zm-1 1h-1v1h1v-1zm8-5v1h1v1h-1v1h1v1h1 1v1h1v-1h1v-1h-1-1-1v-1-1h1v-1h-1-1-1zm3 1v1h1 1v-1h-1-1zm2 0h1v-1h-1v1zm1 0v1h1 1 1v-1-1h-1v1h-1-1zm3 1v1h1v-1h-1zm0 1h-1v1h1v-1zm-9 0h-1v1h1v-1zm11-3v1h1v-1h-1zm3 0v1h1v-1h-1zm0 1h-1v1h1v-1zm-1 1h-1v1h-1v1h1v1 1h1v-1-1-1-1zm0 4v1 1h1 1v-1-1h-1-1zm2 0h1 1v-1h-1v-1h-1v1 1zm2 0v1h1v-1h-1zm1 1v1h1v-1h-1zm1 1v1h1v-1h-1zm-4 0v1h1v-1h-1zm0 1h-1v1h1v-1zm-2-1h-1-1v-1h-1-1v-1h-1v1 1h1 1v1h1 1 1v-1zm-3 1h-1v1h1v-1zm-1 1h-1v1h1v-1zm-1 1h-1-1v1h1 1v-1zm0 1v1h1v-1h-1zm0 1h-1-1v1h1 1v-1zm-2 0v-1h-1v1h1zm-1 0h-1v1 1h1v-1-1zm0 2v1h-1-1v-1h-1v-1-1h-1v1h-1-1v1h1v1h-1v1 1h1 1 1v-1h-1v-1h1v1h1 1 1 1v-1-1h-1zm1 2v1 1 1h1 1v-1h-1v-1-1h-1zm2 3v1h-1v1h1 1v-1h1v-1h1v-1h-1v-1h-1v1 1h-1zm2-2h1v-1h-1v1zm0 3v1 1 1h1v-1-1h1v-1h-1-1zm2 0h1v-1h-1v1zm-13-7v-1h-1v1h1zm-1 0h-1v1h1v-1zm-1 1h-1v1 1h1v-1-1zm2-2h1v-1h-1v1zm10-7h1v-1h-1v1zm1-1h1v-1h-1v1zm9-5v1h1 1v-1h-1-1zm2 1v1 1h1v-1h1 1v-1h-1-1-1zm3 1v1 1h1v-1-1h-1zm1 2v1h1v-1h-1zm0 1h-1v1h1v-1zm-1 1h-1v1h1v-1zm-1 1h-1v1h1v-1zm3-7v1h1 1v-1h-1-1zm2 1v1h1v1h-1v-1h-1v1 1h1 1 1 1v-1-1h-1v-1-1h-1v1h-1zm-75 0v1h1v-1h-1zm63 0v1h1v-1h-1zm1 1v1h1v1 1h1v-1-1-1h-1-1zm-1 0h-1v1h1v-1zm-67 0v1h1 1v-1h-1-1zm38 1v1h1v-1h-1zm0 1h-1v1h1v-1zm3-1v1h1v-1h-1zm0 1h-1v1h1v-1zm7-1v1h1v-1h-1zm-113 1v1h-1v1h1 1v-1-1h-1zm67 0v1 1 1h1v-1h1 1v-1h-1-1v-1h-1zm3 2v1h1v-1h-1zm0 1h-1-1v1 1h1v-1h1v-1zm-3 0h-1v1h1v-1zm-1 1h-1v1 1h1v-1-1zm0 2v1h1v-1h-1zm0 1h-1v1h-1v1h1v1 1h1v-1h1v-1h-1v-1-1zm-1 4h-1v1h1v-1zm0 1v1h1 1v-1h-1-1zm-1-3h-1v1h1v-1zm-1 1h-1v1h1v-1zm-1 1h-1-1v-1h-1v1 1h1v1 1 1 1h1 1v-1h1v-1h-1-1v-1-1h1v-1zm1 3h1v-1h-1v1zm-3 2h-1v1h1v-1zm0-6h1v-1h-1v1zm51-10v1h1v-1h-1zm1 1v1h1 1v-1h-1-1zm-1 0h-1v1 1h1v-1-1zm11-1v1h1v-1h-1zm16 0v1h1v-1h-1zm0 1h-1-1v1 1h1v-1h1v-1zm-125 0v1h1 1v-1h-1-1zm8 0v1h1v-1h-1zm122 0v1 1h1v-1-1h-1zm1 2v1h1v-1h-1zm0 1h-1v1 1h1v-1-1zm0 2v1h1v-1h-1zm1 0h1v-1h-1v1zm1-1h1v-1-1h-1v1 1zm0 1v1h1v-1h-1zm0-5v1h1v-1h-1zm-123 1v1h1v-1h-1zm35 0v1h-1v1h1 1v-1-1h-1zm1 2v1h-1v1h1 1v1h1v-1-1-1h-1-1zm1 3h-1v1h1v-1zm-1 1h-1v1h1v-1zm-1 1h-1v1h1v-1zm-1 1h-1v1h-1-1v1 1h1v-1h1 1v1h1v-1-1h-1v-1zm1 3v1 1h1v-1-1h-1zm0 2h-1v1h1v-1zm-1 1h-1v1h1v-1zm-1 1h-1v1h1v-1zm-1 1h-1-1-1v1h1 1 1v-1zm-3 1h-1-1v1h1 1v-1zm0 1v1h1 1v-1h-1-1zm-2 0h-1v1h1v-1zm0-1v-1h-1v1h1zm7-6h-1-1v1h1 1v-1zm-2 1h-1v1h1v-1zm3-8h-1v1h1v-1zm-1 1h-1v1h1v-1zm-1 1h-1v1h1v-1zm1-4h-1v1h1v-1zm-1 1h-1v1h1v-1zm47-3v1h1 1v-1h-1-1zm2 1v1h1v-1h-1zm-2 0h-1v1 1h1v-1-1zm0 2v1h1 1v-1h-1-1zm2 1v1h-1v1h1 1v-1-1h-1zm1 2v1h1v-1h-1zm0 1h-1v1h1v-1zm-1 1h-1v1h1v-1zm-1 1h-1-1v-1h1v-1h-1-1v1 1 1h1v1h1 1v-1-1zm0 2v1h-1-1v1h1 1v1h1 1 1v-1h-1-1v-1-1h-1zm-2 1v-1h-1v1h1zm-1-5v-1h-1v1h1zm0-1h1v-1h-1v1zm1-1h1v-1h-1v1zm13-5v1 1h1v-1-1h-1zm1 2v1h1v-1h-1zm2-2v1h1v-1h-1zm3 0v1h1v-1h-1zm1 1v1h1v-1h-1zm-1 0h-1v1h-1v1h1 1v-1-1zm-109 0v1 1 1h1 1v-1h-1v-1-1h-1zm51 0v1h1v-1h-1zm0 1h-1v1 1h1v-1-1zm0 2v1h1v-1h-1zm0 1h-1v1h1v-1zm49-4v1h1v-1h-1zm-77 1v1h1v-1h-1zm0 1h-1v1h-1v1h1 1v-1-1zm57-1v1h1 1v-1h-1-1zm2 1v1h1v-1h-1zm1 1v1 1h1v-1h1v-1h-1-1zm2 1v1h1v1h1v-1-1h-1-1zm-2 1h-1-1v1 1 1h1v-1-1h1v-1zm-2 3h-1-1v1h1 1v-1zm-2 0v-1h-1v1h1zm2-3v-1h-1v-1-1h-1v1 1 1 1h1v-1h1zm14-4v1 1h1 1 1v-1h-1v-1h-1-1zm33 0v1 1h1v-1-1h-1zm1 2v1h1v-1h-1zm0 1h-1-1v1h-1v1 1h1v-1h1v-1h1v-1zm-1 2v1 1h1v-1h1v-1h-1-1zm2 0h1v-1h-1v1zm-4 1h-1-1v1 1h1v-1h1v-1zm-2 0v-1h-1v1h1zm0-1h1v-1h-1v1zm1-1h1v-1h-1v1zm0-1v-1h-1-1v1h1 1zm-2 0h-1v1h1v-1zm-1 1h-1v1h1v-1zm-1 1h-1-1v1h-1v1 1h1v-1h1 1v-1-1zm0 2v1h1v-1h-1zm0 1h-1v1h1v-1zm-1 1h-1v1h1v-1zm-1 1h-1v1h1v-1zm-1-2h-1-1v1h1 1v-1zm0-2v-1h1v-1h-1-1v-1h-1v1h-1v1h-1v1h-1v1 1h1v-1h1v-1h1 1 1zm-5 2h-1v1h1v-1zm3-5v-1h-1v1h1zm9-1h1v-1h-1v1zm-91-1v1h1v-1h-1zm0 1h-1v1h1v-1zm-1 1h-1v1h1v-1zm-1 1h-1v1h1v-1zm-1 1h-1v1h1v-1zm27-4v1h1v-1h-1zm0 1h-1v1h1v-1zm-1 1h-1v1h1v-1zm0 1v1 1h1v-1h1v1 1h1v-1h1v-1h-1v-1h-1-1-1zm4 2v1 1h1v-1h1v-1h-1-1zm-2 1h-1v1h-1-1v1 1h1 1 1v1 1 1h1 1v-1h-1v-1-1-1h-1v-1-1zm2 6v1h1v-1h-1zm-2 0h-1v1h1v-1zm-1 1h-1v1h1v-1zm-1 1h-1v1h1v-1zm-1 1h-1v1h1v-1zm2-3v-1-1h-1v1h-1v1h1 1zm-2 0h-1v1h1v-1zm-1 1h-1v1h1v-1zm1-4h-1v1h1v-1zm1-4h-1v1h1v-1zm4-5v1h-1v1h1 1v-1-1h-1zm1 2v1h1v-1h-1zm1 1v1h1 1v-1h-1-1zm37-3v1h1 1v-1h-1-1zm2 1v1h1 1v-1h-1-1zm0 1h-1-1v1 1h1v-1h1v-1zm-2 2h-1v1h1v-1zm-1 1h-1v1h1v-1zm-1 1h-1-1v-1h-1v1h-1v1h1v1 1h1v-1h1v-1h1v-1zm-2-1h1v-1h-1v1zm1-1h1v-1h-1v1zm24-4v1h1v-1h-1zm0 1h-1v1h1v-1zm-15 0v1h1 1 1v-1h-1-1-1zm0 1h-1v1h1v-1zm-108 0v1 1h1v-1-1h-1zm1 2v1h1v1h1v-1h1v-1-1h-1-1v1h-1zm2 2v1h-1-1v1h1 1 1v-1-1h-1zm25-4v1h1 1v-1h-1-1zm2 1v1h1v-1h-1zm49-1v1h1v-1h-1zm0 1h-1v1h1v-1zm-1 1h-1-1v1 1h1 1v-1-1zm0 2v1h-1-1v1h1 1v1 1h-1v1h-1-1-1v1h1v1h1v-1h1 1v-1h1v-1h1v-1-1h-1v-1-1h-1zm-3 7h-1v1h1v-1zm1-6v-1h-1v1h1zm-1 0h-1v1h1v-1zm-50-4v1 1h-1v1h1 1v-1-1-1h-1zm110 0v1h1v-1h-1zm0 1h-1v1h1v-1zm0 1v1h1v1h1v-1-1h-1-1zm1 2h-1-1v-1-1h-1v1h-1v1h1v1h1v1 1h-1v1h1 1v-1h1v-1h-1v-1h1v-1zm-3 3v-1h-1v1h1zm-1 0h-1v1h1v-1zm0-3h-1v1h1v-1zm-64-3v1h1 1v-1h-1-1zm2 1v1h1v-1h-1zm0 1h-1v1h1v-1zm16-2v1 1h1v-1-1h-1zm1 2v1h1 1v-1h-1-1zm2 1v1h1v-1h-1zm0 1h-1v1h-1-1v1h-1v1h1v1h1 1 1 1v-1-1h-1v1h-1-1v-1h1 1v-1-1zm1 4v1 1h1v-1-1h-1zm1 0h1v-1h-1v1zm0 2v1h1v-1h-1zm1 0h1v-1h-1v1zm1-1h1v-1h-1v1zm1 0v1 1h1v-1h1v-1h-1-1zm2 0h1v-1h-1v1zm-2 2h-1v1h1v-1zm-3 0h-1v1h1v-1zm-5-3h-1v1h1v-1zm-1 0v-1h-1v1h1zm0-2v-1h-1v1h1zm-1-1v-1h-1-1v1h1 1zm3-2h-1v1h1v-1zm-101-2v1h1v-1h-1zm42 0v1h1v-1h-1zm6 0v1h1v-1h-1zm-37 1v1h1v-1h-1zm34 0v1h1v-1h-1zm1 1v1h1v-1h-1zm34-1v1h-1v1h1v1h1 1v-1h-1v-1-1h-1zm-1 2h-1v1 1h1v-1-1zm0 2v1h1 1v-1h-1-1zm-54-3v1h1v-1h-1zm1 1v1 1h1v-1h1v-1h1v-1h-1-1v1h-1zm15-1v1h1v-1h-1zm14 0v1h1 1v-1h-1-1zm-44 1v1h1 1 1v-1h-1-1-1zm3 1v1h1v-1h-1zm25-1v1h1v-1h-1zm5 0v1 1h1 1v-1h-1v-1h-1zm0 2h-1-1v-1h-1v1 1h1v1h-1-1v1h1 1 1v-1-1h1v-1zm-1 3v1h1v-1h-1zm1 0h1v-1h-1v1zm70-5v1h1v-1h-1zm1 1v1h1v1h1v-1h1v-1h-1-1-1zm2 2v1h-1-1-1v1h-1-1v1h1 1 1v1h-1v1h1 1 1v-1h1v-1h-1-1v-1h1 1v-1h1v-1h-1-1zm1 2v1h1v-1h-1zm-4-4h-1v1 1h1v-1-1zm27-1v1h1 1v-1h-1-1zm2 1v1h1v-1h-1zm0 1h-1-1v1h-1v1h-1v1 1h1v-1h1v-1h1 1v-1-1zm0 2v1h1v-1h-1zm0 1h-1v1h1v-1zm0 1v1 1h1v-1h1v-1h-1-1zm2 0h1v-1h-1v1zm0 1v1h1 1v-1h-1-1zm2 0h1 1v-1-1h-1v1h-1v1zm2-2h1v-1h-1v1zm1 0v1h1v-1h-1zm-8 1h-1v1h1v-1zm-1 1h-1v1h1v-1zm-2-1h-1v1 1h1v-1-1zm0-2v-1h-1v-1-1h-1v1 1h-1v1h1v1h1v-1h1zm-2 1h-1v1h1v-1zm-1 1h-1v1 1h1v-1-1zm5-4v-1h-1v1h1zm-124-1v1h1v-1h-1zm0 1h-1v1h1v-1zm38-1v1h1v1h1v-1-1h-1-1zm2 2v1h1v-1h-1zm26-2v1 1h1v-1-1h-1zm1 2v1h1v-1h-1zm0 1h-1v1 1h1v-1-1zm-52-2v1h1v-1h-1zm0 1h-1v1h1v-1zm0 1v1h1v-1h-1zm0 1h-1v1 1h1v-1-1zm0 2v1h1v-1h-1zm36-5v1h1v-1h-1zm1 1v1h1v-1h-1zm17-1v1h1v-1h-1zm9 0v1h1v-1h-1zm1 1v1h-1-1v1 1h1v-1h1 1v-1-1h-1zm1 2v1h1v-1h-1zm0 1h-1v1h1v-1zm-1 1h-1v1h1v-1zm25-5v1 1h1v-1h1v-1h-1-1zm2 1v1h1v-1h-1zm0 1h-1v1h1v-1zm-77-1v1h1v-1h-1zm8 0v1h1v-1h-1zm-31 1v1h1v-1h-1zm0 1h-1v1h1v-1zm6-1v1h1v-1h-1zm19 0v1h-1v1 1 1h1v-1h1v-1h1 1v-1h1v-1h-1-1-1-1zm17 0v1h1v-1h-1zm14 0v1h1 1 1v-1h-1-1-1zm46 0v1h-1v1h1 1v-1-1h-1zm1 2v1h1v-1h-1zm-2 0h-1v1h1v-1zm10-2v1h1v-1h-1zm0 1h-1v1h1v-1zm-72 0v1h1v-1h-1zm5 0v1h-1v1h1 1v-1-1h-1zm-1 2h-1v1h1v-1zm-54-1v1h1v-1h-1zm3 0v1h1 1v-1h-1-1zm12 0v1 1h1v-1-1h-1zm12 0v1h1v-1h-1zm1 1v1h1 1v-1h-1-1zm20-1v1h1v-1h-1zm15 0v1h1 1v-1h-1-1zm2 1v1h1v-1h-1zm-2 0h-1v1h1v-1zm4-1v1h1v-1h-1zm1 1v1h1v-1h-1zm5-1v1h1v-1h-1zm1 1v1h1v-1h-1zm4-1v1h1v-1h-1zm0 1h-1v1h1v-1zm10-1v1h1v-1h-1zm-92 1v1h1v-1h-1zm11 0v1h1 1v-1h-1-1zm4 0v1h1v-1h-1zm21 0v1h1v-1h-1zm6 0v1h1v-1h-1zm33 0v1h1v-1h-1zm15 0v1h1v-1h-1zm12 0v1h1v-1h-1zm10 0v1h1v-1h-1zm8 0v1h1v-1h-1zm-133 2v1h1v-1h-1zm6 0v1h1 1v-1h-1-1zm3 0v1h1v-1h-1zm6 0v1h1 1v-1h-1-1zm5 0v1h1v-1h-1zm3 0v1h1v-1h-1zm4 0v1h1 1 1 1v-1h-1-1-1-1zm8 0v1h1 1v-1h-1-1zm3 0v1h1 1 1 1 1 1v-1h-1-1-1-1-1-1zm8 0v1h1 1 1 1v-1h-1-1-1-1zm5 0v1h1 1v-1h-1-1zm3 0v1h1 1 1 1v-1h-1-1-1-1zm6 0v1h1 1v-1h-1-1zm4 0v1h1v-1h-1zm2 0v1h1 1 1v-1h-1-1-1zm6 0v1h1 1 1 1 1v-1h-1-1-1-1-1zm10 0v1h1v-1h-1zm13 0v1h1v-1h-1zm9 0v1h1v-1h-1zm3 0v1h1v-1h-1z"/>
 <path id="G" opacity="0.75" d="m0 0v1h1 1 1v-1h-1-1-1zm9 0v1h1v-1h-1zm2 0v1h1v-1h-1zm2 0v1h1v-1h-1zm5 0v1h1v-1h-1zm3 0v1h1v-1h-1zm2 0v1h1v-1h-1zm4 0v1h1v-1h-1zm3 0v1h1v-1h-1zm9 0v1h1v-1h-1zm6 0v1h1 1v-1h-1-1zm3 0v1h1v-1h-1zm3 0v1h1v-1h-1zm-46 1v1h1v-1h-1zm4 1v1h1v-1h-1zm2 0v1 1h1v-1-1h-1zm6 0v1h1 1v-1h-1-1zm2 1v1h1v1h1 1v-1h-1v-1-1h-1v1h-1zm3 2v1h1v-1h-1zm1 1v1h-1v1h1 1v-1-1h-1zm-1 2h-1-1v1h1v1h1v-1-1zm-3-4h-1v1h1v-1zm4-2v1h1v-1h-1zm3 0v1 1h1v-1-1h-1zm6 0v1h1 1v-1h-1-1zm3 0v1h1v-1h-1zm1 1v1h1v-1h-1zm1 0h1v-1h-1v1zm0 1v1h1v-1h-1zm0 1h-1v1h-1v1h-1v1h1 1v-1h1v-1-1zm-1 3v1h1v-1h-1zm0 1h-1-1v1 1h1v-1h1v-1zm0 1v1h1v-1h-1zm-2-1v-1h-1v1h1zm-1 0h-1v1h1v-1zm0-1v-1-1h-1v1h-1v1h1 1zm-2 0h-1v1 1h1v-1-1zm1-2v-1h-1v1h1zm-1-1v-1h-1v-1h-1v1 1h1 1zm2 1h1 1v-1h-1-1v1zm7-4v1h1v-1h-1zm4 0v1h1v-1h-1zm2 0v1h1v-1h-1zm2 0v1h1v-1h-1zm1 1v1h1v-1h-1zm1 0h1v-1h-1v1zm8 0v1 1h1v-1h1 1 1v-1h-1-1-1-1zm0 2h-1v1h1v-1zm5-2v1h1v-1h-1zm12 0v1h1v-1h-1zm1 1v1h1v-1h-1zm-1 0h-1v1h1v-1zm5-1v1h1 1v-1h-1-1zm3 0v1 1h1v-1-1h-1zm1 2v1h1v-1h-1zm0 1h-1v1h1v-1zm-1 0v-1h-1v1h1zm-1 0h-1v1h1v-1zm-1 1h-1-1v1h1 1v-1zm0 1v1 1h1v-1h1v-1h-1-1zm0-2v-1h-1-1-1v1h1 1 1zm-3 0h-1v1h1v-1zm-1 1h-1v1 1h1v-1-1zm-1 0v-1h-1-1-1v1h1 1 1zm12-4v1h1 1v-1h-1-1zm0 1h-1v1h1v-1zm3-1v1h1v-1h-1zm1 1v1h1v-1h-1zm2-1v1 1h1v-1-1h-1zm2 0v1h1v-1h-1zm1 1v1h1v-1h-1zm0 1h-1v1 1h1v-1-1zm4-2v1h1v-1h-1zm5 0v1h1v-1h-1zm7 0v1h-1-1v1h-1v1 1 1h1v-1-1h1v-1h1 1v1h1 1v-1h-1v-1-1h-1-1zm-2 5v1h1v-1h-1zm0 1h-1-1v1h1v1 1h1 1v-1-1h-1v-1zm-1 3h-1-1-1v1 1h1v-1h1v1h1v-1-1zm0 2v1h1v-1h-1zm1 0h1v-1h-1v1zm0 1v1h1v-1h-1zm0 1h-1-1v1h1 1v-1zm-2 1h-1v1h1v-1zm-1 0v-1-1h-1v1 1h1zm1-7h-1v1h1v-1zm10-7v1h1v-1h-1zm0 1h-1-1v1 1h1v-1h1v-1zm0 1v1h1v-1h-1zm0 1h-1v1h1v-1zm-1 1h-1v1h1v-1zm-1 1h-1v1h-1v1h1v1h1v-1-1-1zm-2 1v-1-1h-1v1 1h1zm10-6v1 1h1 1v-1h-1v-1h-1zm11 0v1 1h1v1h1v-1-1h-1v-1h-1zm5 0v1 1h1v-1-1h-1zm1 2v1h1v-1h-1zm1 1v1 1h1v-1-1h-1zm1 2v1h1v-1h-1zm-2-2h-1v-1h-1v1 1h-1v1h1 1v-1h1v-1zm1-3v1h1v-1h-1zm5 0v1h1 1v-1h-1-1zm8 0v1h1v-1h-1zm-142 1v1h1v-1h-1zm1 1v1 1h1v-1-1h-1zm1 0h1v-1h-1v1zm-2 0h-1v1h1v-1zm25-1v1h1 1v-1h-1-1zm5 0v1h1v-1h-1zm1 1v1h-1v1h1 1 1v-1h-1v-1h-1zm2 1h1v-1h-1v1zm0 1v1h1 1v-1h-1-1zm2 1v1h1 1v-1h-1-1zm-5-2v-1h-1-1v1h-1v1h1 1v-1h1zm-3 1h-1v1h1v-1zm12-3v1h1v-1h-1zm2 0v1h1v-1h-1zm13 0v1h1v-1h-1zm0 1h-1v1h1v-1zm3-1v1h1 1v-1h-1-1zm28 0v1h1v-1h-1zm46 0v1h1v-1h-1zm6 0v1h1v-1h-1zm1 1v1 1 1h1v-1-1-1h-1zm1 0h1v-1h-1v1zm-147 0v1h1v-1h-1zm3 0v1 1h-1-1v1h1 1 1v-1-1-1h-1zm40 0v1h1v-1h-1zm1 1v1h1v-1h-1zm1 0h1v-1h-1v1zm11-1v1h1v-1h-1zm43 0v1h1v-1h-1zm2 0v1h1v-1h-1zm14 0v1h1v-1h-1zm1 1v1 1h1 1v1h1v-1-1h-1-1v-1h-1zm1 0h1v-1h-1v1zm5-1v1h1 1 1v-1h-1-1-1zm4 0v1h1v-1h-1zm-121 1v1h1v-1h-1zm6 0v1 1h1v-1-1h-1zm2 0v1h1v-1h-1zm34 0v1h1 1 1v-1h-1-1-1zm12 0v1h1v-1h-1zm0 1h-1-1v1h1v1h1v-1-1zm6-1v1h1v-1h-1zm0 1h-1v1h-1v1 1h1v-1h1v-1-1zm0 2v1h1v1h1v-1-1h-1-1zm2 2v1h1v-1h-1zm1 1v1h1v-1h-1zm-3-2h-1v1h1v-1zm18-4v1h1v-1h-1zm1 1v1 1h1v-1h1v-1h-1-1zm2 1v1h1v-1h-1zm1 0h1v-1h-1v1zm1 0v1h1v-1h-1zm0 1h-1v1h1v-1zm-1 1h-1v1h1v-1zm-3-1h-1-1v1h1v1h-1v1h1 1v-1-1-1zm9-3v1h1v1h1v-1-1h-1-1zm46 0v1h1 1 1v-1h-1-1-1zm-120 1v1h1v-1h-1zm60 0v1h1v-1h-1zm22 0v1h1 1v-1h-1-1zm13 0v1h1v-1h-1zm6 0v1 1h1v1 1h1v-1-1-1-1h-1-1zm5 0v1h1v-1h-1zm1 1v1h1v1h1v-1h1v-1h1v-1h-1-1v1h-1-1zm3 1v1h1v-1h-1zm2-2v1h1v-1h-1zm17 0v1h1 1 1v-1h-1-1-1zm-142 1v1h1v-1h-1zm0 1h-1v1h1v-1zm0 1v1h1v-1h-1zm3-2v1h1v-1h-1zm0 1h-1v1 1h1v-1-1zm28-1v1h1v-1h-1zm2 0v1h1v-1h-1zm16 0v1h1v-1h-1zm6 0v1h-1v1h1 1v-1-1h-1zm-1 2h-1v1h1v-1zm8-2v1 1h1v-1-1h-1zm22 0v1h1v-1h-1zm1 1v1h1v-1h-1zm0 1h-1v1h1v-1zm5-2v1h1v-1h-1zm0 1h-1v1 1h1v-1-1zm2-1v1h1v-1h-1zm1 1v1h1v-1h-1zm24-1v1h1v-1h-1zm20 0v1h1v-1h-1zm1 1v1h1v-1h-1zm1 1v1h1v-1h-1zm1 0h1v-1h-1v1zm-3-1h-1v1h1v-1zm-1 1h-1-1v1 1 1h1v-1h1 1v-1h-1v-1zm1 2v1h-1-1v1h1 1 1v-1-1h-1zm-2 2h-1v1h1v-1zm0 1v1h1v-1h-1zm-1 0h-1-1v1h1 1v-1zm-139-6v1h1 1 1v-1h-1-1-1zm16 0v1h1v-1h-1zm1 1v1 1 1h-1v1h1v1 1h1v-1-1-1h1v-1h-1v-1-1h-1zm1 0h1v-1h-1v1zm0 6v1h1v-1h-1zm0 1h-1v1h1v-1zm-2-3h-1v1h1v-1zm-1 1h-1v1h1v-1zm0-1v-1-1-1h-1v1 1 1h1zm34-5v1h1v-1h-1zm2 0v1 1h1v-1-1h-1zm0 2h-1-1v1h1 1v-1zm41-2v1h1v-1h-1zm20 0v1h-1v1h1v1h1 1v-1h-1v-1-1h-1zm2 2h1v-1h1v-1h-1-1v1 1zm2-1v1 1h1v-1h1v-1h-1-1zm2 1v1h-1v1h1 1 1v-1h-1v-1h-1zm2 2v1h1v-1h-1zm1 0h1 1v-1h-1-1v1zm-1 1h-1v1 1 1h1v-1-1-1zm10-5v1 1h1 1v-1-1h-1-1zm4 0v1h1v-1h-1zm1 1v1 1h1v-1-1h-1zm13-1v1 1 1h1v-1-1-1h-1zm1 3v1h1v-1h-1zm0 1h-1v1h1v-1zm0 1v1h1v-1h-1zm-1 0h-1-1v1h1 1v-1zm-137-4v1h1v-1h-1zm23 0v1h-1v1h1 1v-1h1v-1h-1-1zm1 2v1h1 1v-1h-1-1zm2 0h1v-1-1h-1v1 1zm1 0v1h1v-1h-1zm1 0h1v-1-1h-1v1 1zm1 0v1h-1v1h1 1v-1h1v-1-1-1h-1v1 1h-1zm2 1v1h1v-1h-1zm1 0h1 1v1h-1v1h1 1v-1-1-1-1h-1v1h-1-1v1zm-4 1h-1v1h1v-1zm0 1v1h1 1v1h1v1h1v-1-1h-1v-1h-1-1-1zm4 3v1h1v-1h-1zm1 0h1 1v-1h-1v-1h-1v1 1zm2-1h1v-1h-1v1zm0 1v1 1h1 1v-1h-1v-1h-1zm2 2v1 1h1v-1h1v-1-1h-1v1h-1zm1 2v1h1v-1h-1zm1 1v1h1v1 1h1v-1h1 1v-1h-1-1v-1h1v-1h-1v-1-1h-1v1 1 1h-1zm4 2v1h1v-1h-1zm1 0h1 1 1v-1h-1-1-1v1zm3-1h1v-1h-1v1zm0-1v-1h-1v1h1zm-1-1v-1h-1v1h1zm-1-1v-1h-1-1v1h1 1zm-2-1v-1h-1v1h1zm3 1h1v-1h-1v1zm1-1h1 1v-1h-1-1v1zm2 0v1 1h1v-1-1h-1zm1 0h1v-1h-1v1zm0 2v1h-1v1h1v1h1v-1-1-1h-1zm1 0h1v-1h-1v1zm-1 3h-1v1 1h1v-1-1zm0 2v1h1 1 1v-1h-1v-1h-1v1h-1zm2-1h1v1h1v-1-1h-1-1v1zm2-1h1v-1h1v1h1v-1-1h-1v-1h-1-1v1 1 1zm2-3h1 1v1h1v-1-1h-1v-1h-1v1h-1v1zm1-2v-1h-1v1h1zm0 5v1 1h1v-1-1h-1zm1 0h1v-1h-1v1zm0 2v1h1v-1h-1zm-9-2v-1h-1v1h1zm-1 0h-1v1h1v-1zm-8 1h-1v1h1v-1zm0 1v1h1v-1h-1zm-2-4h-1-1v-1-1h-1v1h-1v1h1v1h1 1 1v-1zm-4 0h-1v1h1v-1zm-1 0v-1h-1v1h1zm-1-1v-1h-1v1h1zm-1-1v-1h-1-1v1h1 1zm-2-1v-1h-1v1h1zm-1-1v-1h-1-1v1h1 1zm1 0h1v-1-1h-1v1 1zm2 1h1v-1h-1v1zm-4-5h-1v-1h-1-1v1h1v1h-1v1 1h1v-1h1 1v-1-1zm16-5v1h1v-1h-1zm1 1v1h1v-1h-1zm0 1h-1v1h1v-1zm0 1v1h1v-1h-1zm-1 0h-1v1h1v-1zm22-3v1h1v-1h-1zm1 1v1 1h1 1v-1h1v-1h-1v-1h-1v1h-1zm-1 0h-1-1v1h1 1v-1zm20-1v1h1v-1h-1zm10 0v1h1v-1h-1zm1 1v1h1v-1h-1zm17-1v1h1v-1h-1zm1 1v1h-1v1h1 1v-1-1h-1zm-125 0v1h1v-1h-1zm21 0v1h1v-1h-1zm3 0v1h1v-1h-1zm46 0v1 1h1v-1-1h-1zm28 0v1 1h1v-1-1h-1zm30 0v1h1v-1h-1zm0 1h-1v1h1v-1zm9-1v1 1h-1v1h1 1v-1-1-1h-1zm-135 1v1h1v-1h-1zm2 0v1 1h1v-1-1h-1zm26 0v1h1v-1h-1zm0 1h-1v1 1h1v-1-1zm42-1v1h1v-1h-1zm1 1v1h1v1h1v-1-1h-1-1zm2 2v1h1 1 1v-1h-1v-1h-1v1h-1zm3 0h1v-1h-1v1zm0 1v1 1h-1v1h1 1v-1-1-1h-1zm-1 3h-1-1-1v1h1 1 1v-1zm-4-5h-1v1h1v-1zm12-2v1h1v-1h-1zm10 0v1h1v1h1v-1-1h-1-1zm14 0v1h1v-1h-1zm21 0v1h1v-1h-1zm0 1h-1v1h-1v1h1 1v-1-1zm2-1v1 1 1h1v-1-1-1h-1zm13 0v1h1v-1h-1zm-135 1v1h1v-1h-1zm0 1h-1v1h1v-1zm2-1v1 1h1v-1-1h-1zm12 0v1h1v-1h-1zm3 0v1h1v-1h-1zm24 0v1h1v-1h-1zm6 0v1h1v-1h-1zm1 1v1h1v-1h-1zm0 1h-1v1 1h1v-1-1zm-1 2h-1v1h1v-1zm-1 1h-1v1h1v-1zm26-5v1h1 1v-1h-1-1zm6 0v1h1 1v-1h-1-1zm2 1v1h1 1v-1-1h-1v1h-1zm2 1v1h1v1h1v-1-1h-1-1zm1 2h-1v1h1v-1zm0 1v1 1h1v-1-1h-1zm-1-1v-1h-1v1h1zm1-4v1h1v-1h-1zm18 0v1h-1v1h1 1v-1-1h-1zm-111 1v1h1v-1h-1zm19 0v1h1 1 1v-1h-1-1-1zm3 1v1h1v-1h-1zm39-1v1h1v-1h-1zm1 1v1h1v-1h-1zm4-1v1h1 1v-1h-1-1zm3 0v1h1v1h1v-1-1h-1-1zm11 0v1 1 1 1 1h1v1h1v-1-1h-1v-1-1h1v-1h-1v-1h-1zm2 4h1v-1h-1v1zm31-4v1h1v1h1v-1-1h-1-1zm4 0v1h1v-1h-1zm5 0v1h1v-1h-1zm1 1v1h1v-1h-1zm1 1v1h1v-1h-1zm1 0h1v-1h-1v1zm0 1v1h1v-1h-1zm-3-2h-1v1h1v-1zm12-1v1h1v-1h-1zm10 0v1h-1v1h1 1v-1-1h-1zm-142 1v1h1v-1h-1zm0 1h-1v1h1v-1zm0 1v1h-1v1h1 1v-1-1h-1zm-1 2h-1v1h1v-1zm-1 1h-1v1h1v-1zm0-1v-1h-1v1h1zm0-1h1v-1h-1v1zm0-1v-1h-1v1h1zm4-2v1h1v1h1v-1-1h-1-1zm21 0v1h1v-1h-1zm23 0v1 1h1v1h1v-1-1h-1v-1h-1zm5 0v1 1h1v-1h1v-1h-1-1zm11 0v1h1v-1h-1zm20 0v1 1h1v1h1v-1h1v-1h-1-1v-1h-1zm4 0v1 1h1v-1-1h-1zm7 0v1h1v-1h-1zm3 0v1 1 1h1v-1-1-1h-1zm0 3h-1v1h1v-1zm-1 1h-1v1h1v-1zm0 1v1h1v1h1v-1-1h-1-1zm9-5v1h1v-1h-1zm-94 1v1h1v-1h-1zm0 1h-1v1h1v-1zm20-1v1h1 1v-1h-1-1zm27 0v1h1v-1h-1zm8 0v1h-1v1h1 1v-1-1h-1zm43 0v1h1v-1h-1zm0 1h-1v1h1v-1zm39-1v1h1v-1h-1zm-140 1v1h1v-1h-1zm0 1h-1-1v1h1 1v-1zm0 1v1 1h1v-1h1v-1h-1-1zm1 2v1h1v-1h-1zm0 1h-1v1h1v-1zm11-5v1h1v-1h-1zm1 1v1 1h-1v1h1 1v-1-1h1v-1-1h-1v1h-1zm-1 3h-1v1h1v-1zm4-4v1 1 1h1v-1h1v-1h-1v-1h-1zm4 0v1h1v-1h-1zm0 1h-1v1 1h1 1v-1h-1v-1zm35-1v1h1v-1h-1zm5 0v1h1v-1h-1zm1 1v1 1h1v-1h1v-1h-1-1zm3-1v1h1v-1h-1zm22 0v1h1v-1h-1zm10 0v1h1 1v-1h-1-1zm2 1v1h1v-1h-1zm1 1v1h1v-1h-1zm7-2v1h1v-1h-1zm0 1h-1v1 1 1h1v-1-1-1zm7-1v1h1v-1h-1zm1 1v1h1v-1h-1zm7-1v1h-1v1 1h1v-1h1v-1h1v1h1v-1-1h-1-1-1zm3 2v1h1v-1h-1zm-4 1h-1v1h1v-1zm-1 1h-1v1 1h1v-1-1zm-1 0v-1-1h-1v1 1h1zm0-2h1v-1h-1v1zm10-2v1h1v-1h-1zm4 0v1h1v1h1 1v-1h-1v-1h-1-1zm1 2h-1v1h1v-1zm-1 0v-1h-1v1h1zm6-2v1h1v-1h-1zm1 1v1h1v-1h-1zm-144 0v1h1v-1h-1zm9 0v1h1v-1h-1zm0 1h-1v1h1v-1zm19-1v1h1v-1h-1zm71 0v1 1h1 1v-1h-1v-1h-1zm2 2v1h1 1v-1h-1-1zm0 1h-1-1v1 1h1v-1h1v-1zm0 1v1 1h1 1v-1h-1v-1h-1zm13-4v1h1v-1h-1zm0 1h-1v1h1v-1zm-1 1h-1v1h1v-1zm-98-1v1h1v-1h-1zm0 1h-1v1 1h1v-1-1zm67-1v1 1h-1v1h1 1v-1-1-1h-1zm1 3v1h1v-1h-1zm1 0h1v-1h-1v1zm1-1h1 1v-1h-1-1v1zm0-1v-1h-1v1h1zm0 2v1h1v-1h-1zm-4 0h-1v1h1v-1zm-1 0v-1-1h-1v1 1h1zm28-3v1h-1v1h1 1v-1-1h-1zm24 0v1h1v-1h-1zm1 1v1h1v-1h-1zm1 0h1v-1h-1v1zm-2 0h-1v1 1h1v-1-1zm9-1v1h1v-1h-1zm1 1v1 1h1v-1-1h-1zm0 2h-1v1h1v-1zm0 1v1h1v-1h-1zm1 1v1h1v-1h-1zm1 1v1h1v-1h-1zm1 0h1v-1-1h-1v1 1zm0 1v1h1v-1h-1zm-3-2h-1v1h1v-1zm-1 0v-1h-1v-1h1v-1h-1v-1h-1v1 1 1 1 1h1v-1h1zm-138-4v1h1v-1h-1zm7 0v1h1v-1h-1zm20 0v1h1v-1h-1zm2 0v1h1v1h1 1v-1h-1v-1h-1-1zm29 0v1h1v-1h-1zm13 0v1h1v-1h-1zm1 1v1h1v1 1h1v-1h1v-1h-1v-1h-1-1zm3 2v1h1v-1h-1zm40-3v1h1v-1h-1zm0 1h-1v1h1v-1zm0 1v1h1v1h1v-1h1v-1-1h-1v1h-1-1zm3 1v1h1v-1h-1zm6-3v1h1v-1h-1zm1 1v1 1 1h1v-1-1-1h-1zm0 3h-1v1h1v-1zm-1 1h-1v1h1v-1zm0 1v1h1 1v1h1v-1-1h-1-1-1zm0 1h-1v1h1v-1zm0-6h-1v1 1h1v-1-1zm18-1v1h1v-1h-1zm-147 1v1 1 1h1 1v-1h-1v-1-1h-1zm24 0v1 1h1v-1h1v-1h-1-1zm1 2v1h1v-1h-1zm-1 0h-1v1h1v-1zm-1 1h-1v1h1v-1zm0 1v1h1v-1h-1zm-1-1v-1h-1v1h1zm0-1h1v-1h-1v1zm7-2v1h1v-1h-1zm0 1h-1-1v1 1 1h1v-1-1h1v-1zm42-1v1h1v-1h-1zm3 0v1 1h1v1h1v-1-1h-1v-1h-1zm18 0v1h1v-1h-1zm0 1h-1v1h1v-1zm0 1v1h1v-1h-1zm-1 0h-1v1h1v-1zm-1 1h-1v1h1v-1zm-1 1h-1v1h1v-1zm-1 0v-1h-1v1h1zm19-4v1h1v-1h-1zm9 0v1h1 1v-1h-1-1zm0 1h-1v1h1v-1zm-113 0v1h1v-1h-1zm1 1v1h1v-1h-1zm1 0h1v-1h-1v1zm5-1v1h1v-1h-1zm4 0v1h1v-1h-1zm1 1v1 1h1v-1-1h-1zm16-1v1h-1v1 1h1 1v-1h1v-1-1h-1-1zm21 0v1h1v-1h-1zm42 0v1 1h1v-1-1h-1zm1 2v1h1v-1h-1zm14-2v1h-1v1 1 1 1 1h1v-1-1-1-1h1v-1-1h-1zm1 2v1h1v-1h-1zm1 0h1v-1h-1v1zm1-1h1v-1h-1v1zm23-1v1h1v1h1v-1h1v-1h-1-1-1zm-123 1v1h1v-1h-1zm5 0v1h1v-1h-1zm2 0v1h1v-1h-1zm17 0v1h-1v1 1h1v-1h1v-1-1h-1zm1 2v1 1h1v-1-1h-1zm1-2v1h1v-1h-1zm68 0v1h1v-1h-1zm11 0v1h1v-1h-1zm0 1h-1v1 1 1 1h1v-1h1v-1h-1v-1-1zm1 2h1 1v-1h-1-1v1zm14-3v1h1v-1h-1zm-123 1v1h1v-1h-1zm1 1v1h1 1v-1h-1-1zm-1 0h-1v1h1v-1zm63-1v1h1v1h1 1v-1h-1v-1h-1-1zm3 2v1 1h1 1v-1h-1v-1h-1zm1 0h1 1v-1h-1-1v1zm2 0v1h1v1h1v-1-1-1h-1v1h-1zm4-2v1 1h1 1v-1-1h-1-1zm2 2v1h1v1h1v-1h1v-1h-1-1-1zm-2 0h-1v1h1v-1zm0 1v1h1v-1h-1zm15-3v1 1h1v-1h1v-1h-1-1zm0 2h-1v1 1h1v-1-1zm-100-1v1h1v-1h-1zm6 0v1 1h1 1v-1h-1v-1h-1zm2 1h1v-1h-1v1zm1 0v1 1h1v-1-1h-1zm7-1v1h1v-1h-1zm4 0v1h1v1h1 1v-1h-1v-1h-1-1zm8 0v1 1h1v-1-1h-1zm1 2v1h1v-1h-1zm15-2v1h1v-1h-1zm1 1v1h1v1h1v-1-1h-1-1zm-1 0h-1-1v1h1v1h1v-1-1zm72-1v1h1v-1h-1zm11 0v1h1v1h1v1h1v-1-1-1h-1-1-1zm1 2h-1-1-1v1h1 1 1v-1zm10-2v1h1v-1h-1zm2 0v1h1 1v-1h-1-1zm2 1v1h1v-1h-1zm-140 0v1h1v-1h-1zm1 1v1h1v-1h-1zm1 0h1v-1h-1v1zm14-1v1h1v-1h-1zm0 1h-1v1h1v-1zm6-1v1h1v-1h-1zm8 0v1h1 1v-1h-1-1zm2 1v1h1v-1h-1zm-2 0h-1v1h1v-1zm4-1v1h1v-1h-1zm21 0v1h1v-1h-1zm16 0v1 1h1v-1-1h-1zm20 0v1h1v-1h-1zm0 1h-1v1h1v-1zm4-1v1h1v-1h-1zm0 1h-1v1h1v-1zm5-1v1h-1v1h1 1v-1-1h-1zm11 0v1 1h1v-1h1v-1h-1-1zm32 0v1h1 1v-1h-1-1zm-134 1v1h1v-1h-1zm3 0v1h1 1v-1h-1-1zm12 0v1h1v-1h-1zm12 0v1h1v-1h-1zm11 0v1h1v-1h-1zm6 0v1h1v-1h-1zm4 0v1h1v-1h-1zm8 0v1h1v-1h-1zm9 0v1h1v-1h-1zm29 0v1h1v-1h-1zm4 0v1h1v-1h-1zm8 0v1h1v-1h-1zm5 0v1h1v-1h-1zm15 0v1h1v-1h-1zm-139 1v1h-1v1h1 1v-1-1h-1zm7 0v1 1h1 1v-1h-1v-1h-1zm-11 1v1h1v-1h-1zm6 0v1h1v-1h-1zm8 0v1h1 1v-1h-1-1zm6 0v1h1v-1h-1zm7 0v1h1v-1h-1zm7 0v1h1 1v-1h-1-1zm12 0v1h1v-1h-1zm18 0v1h1v-1h-1zm6 0v1h1v-1h-1zm8 0v1h1v-1h-1zm2 0v1h1 1v-1h-1-1zm7 0v1h1v-1h-1zm7 0v1h1v-1h-1zm4 0v1h1v-1h-1zm2 0v1h1v-1h-1zm2 0v1h1 1 1v-1h-1-1-1zm4 0v1h1 1v-1h-1-1z"/>
 <path id="T" opacity="0.5" d="m6 0v1h1v-1zm18 0v1h1v-1zm10 0v1h1v-1zm2 0v1h1v-1zm-32 1v1h1v-1zm2 1v1h2v-1h-1zm4 0v2h1v-2zm0 2h-1v1h1zm-1 1h-1v1h1zm-1 1h-2v1h2zm4-4v1h2v-1h-1zm4 0v1h1v-1zm3 0v1h1v-1zm3 0v1h1v-1zm3 0v1h1v-1zm6 0v1h1v-1zm3 0v1h1v-1zm11 0v1h1v-1zm4 0v1h1v-1zm-21 1v1h1v-1zm11 0v1h1v-1zm12 0v1h2v-1h-1zm13 0v1h1v-1zm0 1h-2v1h2zm-2 1h-1v1h-1v1h2v-1zm-2 1v-1h-2v1h1zm-2-1v-1h-1v1zm8-2v1h1v-1zm3 0v1h1v-1zm13 0v1h1v-1zm0 1h-2v1h2zm2-1v1h2v-1h-1zm13 0v1h1v-1zm3 0v1h1v-1zm18 0v1h1v-1zm2 0v2h1v-1h1v-1h-1zm2 1v1h2v-1h-1zm2 0h1v-1h-1zm0 1v1h2v-1h-1zm5-2v1h2v-1h-1zm3 0v1h2v-1h-1zm10 0v1h1v-1zm5 0v1h1v-1zm3 0v1h2v-1h-1zm-135 1v1h1v-1zm0 1h-1v1h1zm26-1v1h2v-1h-1zm13 0v1h1v-1zm0 1h-2v1h2zm21-1v1h1v-1zm0 1h-2v1h2zm2-1v2h1v-2zm1 2v2h1v-1h1v-1h-1zm27-2v1h1v-1zm3 0v1h1v-1zm1 1v1h1v-1zm7-1v1h1v-1zm19 0v1h1v-1zm21 0v1h1v-1zm-145 1v1h1v-1zm1 1v1h-1v2h1v-1h1v-2zm-1 3h-1v1h1zm7-4v1h1v-1zm14 0v1h1v-1zm0 1h-1v1h1zm-1 1h-1v1h1zm-1 1h-1v1h1zm-1 1h-1v1h1zm0 1v1h2v-1h-1zm2 0h1v-1h-1zm1-1h1v-1h-1zm1-1h1v-1h-1zm1-1h1v-1h-1zm1-1h1v-1h-1zm3-1v1h1v-1zm6 0v1h1v-1zm2 0v1h1v-1zm37 0v1h1v-1zm1 1v2h1v-1h1v-2h-1v1zm-1 0h-1v1h1zm5-1v1h1v-1zm25 0v1h1v-1zm1 1v1h1v-1zm-1 0h-1v1h1zm18-1v1h1v-1zm2 0v2h1v-2zm18 0v2h1v-2zm-135 1v1h1v-1zm11 0v1h2v-1h-1zm13 0v1h1v-1zm0 1h-1v1h1zm30-1v1h1v-1zm24 0v1h1v-1zm1 1v1h1v-1zm7-1v1h1v-1zm3 0v1h2v-1h-1zm34 0v1h1v-1zm3 0v2h1v-2zm7 0v2h1v-2zm-135 1v1h1v-1zm7 0v1h1v-1zm24 0v1h1v-1zm6 0v1h1v-1zm6 0v1h1v-1zm0 1h-1v1h1zm0 1v1h1v-1zm-1 0h-1v1h1zm9-2v1h2v-1h-1zm10 0v1h1v-1zm24 0v1h1v-1zm26 0v2h1v-2zm0 2h-1v1h1zm20-2v1h2v-1h-1zm8 0v1h1v-1zm1 1v2h1v-1h1v-1h-1zm2 1v1h1v-1zm-2 1h-1v1h1zm-1 1h-1v1h1zm-1 1h-1v1h1zm-145-4v1h1v-1zm18 0v1h2v-1h-1zm12 0v1h-1v1h2v-2zm1 2v1h1v-1zm-2 0h-1v1h-1v1h1v1h2v-1h-1v-1zm32-2v1h1v-1zm5 0v2h1v-2zm1 2v1h2v-1h1v-1h-2v1zm6-2v1h1v-1zm7 0v1h1v-1zm2 0v1h1v-1zm1 1v1h2v-1h-1zm13-1v1h1v-1zm0 1h-1v2h1v-1zm7-1v1h1v-1zm8 0v1h2v-1h-1zm19 0v1h1v-1zm0 1h-1v1h1zm2-1v1h1v-1zm-93 1v1h1v-1zm0 1h-1v1h1zm17-1v1h2v-1h-1zm37 0v1h1v-1zm0 1h-2v1h2zm0 1v1h1v-1zm8-2v1h1v-1zm1 1v1h1v-1zm23-1v1h1v-1zm12 0v1h1v-1zm7 0v1h1v-1zm-131 1v1h2v-1h-1zm40 0v1h1v-1zm9 0v1h1v-1zm2 0v3h1v-3zm13 0v1h1v-1zm0 1h-1v1h1zm2-1v1h1v-1zm19 0v1h1v-1zm1 1v2h1v-2zm-1 0h-1v1h1zm15-1v1h1v-1zm9 0v1h1v-1zm-119 1v1h1v-1zm6 0v1h1v-1zm0 1h-1v1h1zm7-1v1h1v-1zm20 0v1h1v-1zm4 0v1h1v-1zm0 1h-1v1h1zm-1 1h-1v1h1zm4-2v1h1v-1zm5 0v1h-1v1h2v-2zm39 0v1h1v-1zm19 0v1h1v-1zm2 0v1h2v-1h-1zm16 0v1h1v-1zm0 1h-1v1h1zm0 1v1h3v-2h-1v1h-1zm0 1h-1v1h1zm-1 1h-1v2h1v-1zm-1 0v-1h-1v1zm10-4v1h2v-1h-1zm2 1v1h-1v2h1v-1h1v-1h1v-1h-1zm-128 0v1h1v-1zm14 0v1h1v-1zm33 0v1h1v-1zm0 1h-1v1h1zm3-1v3h2v-1h-1v-2zm3 0v1h2v-1h-1zm2 1v1h2v-1h-1zm2 1v2h1v-1h1v-1h-1zm2 1v2h1v-1h1v-1h-1zm-2 1h-1v1h1zm0 1v1h1v-1zm-1 0h-1v2h1v-1zm4-5v1h1v-1zm1 1v1h2v-1h-1zm7-1v1h1v-1zm6 0v1h2v-1h-1zm24 0v1h1v-1zm9 0v1h1v-1zm7 0v1h1v-1zm0 1h-1v1h1zm-1 1h-1v1h1zm10-2v1h1v-1zm12 0v1h1v-1zm-130 1v1h1v-1zm2 0v1h1v-1zm1 1v1h1v-1zm1 0h1v-1h-1zm1 0v1h1v-1zm25-1v1h1v-1zm0 1h-1v1h1zm36-1v1h2v-1h-1zm2 1v1h1v-1zm13-1v1h1v-1zm3 0v1h1v-1zm20 0v1h2v-1h-1zm31 0v1h1v-1zm-123 1v1h1v-1zm1 1v2h2v-1h-1v-1zm10-1v1h1v-1zm1 1v1h1v-1zm8-1v1h1v-1zm1 1v1h1v-1zm-1 0h-1v1h1zm6-1v1h1v-1zm24 0v1h1v-1zm9 0v2h1v1h1v-2h-1v-1zm30 0v1h1v-1zm26 0v1h1v-1zm10 0v1h1v-1zm1 1v1h1v-1zm-1 0h-1v1h1zm-1 1h-1v1h1zm-1 1h-1v1h1zm-143-2v1h1v-1zm6 0v1h1v-1zm78 0v1h1v-1zm3 0v1h1v-1zm15 0v1h1v-1zm1 1v1h1v-1zm10-1v1h1v-1zm13 0v1h1v-1zm0 1h-1v1h1zm6-1v1h1v-1zm-135 1v1h1v-1zm1 1v1h1v-1zm0 1h-1v1h1zm0 1v1h2v-1h-1zm0 1h-1v2h1v-1zm-1 2h-1v1h1zm0-2v-1h-1v1zm7-4v1h1v-1zm40 0v1h1v-1zm1 1v2h1v-2zm22-1v1h1v-1zm7 0v1h1v-1zm24 0v1h1v-1zm1 1v2h1v-2zm37-1v1h2v-1h-1zm-126 1v1h2v-1h-1zm3 0v1h1v-1zm6 0v1h1v-1zm6 0v1h1v-1zm1 1v1h2v-1h-1zm2 1v1h2v-1h-1zm-3-1h-1v1h1zm15-1v1h1v-1zm12 0v1h1v-1zm2 0v1h1v-1zm24 0v1h1v-1zm10 0v1h1v-1zm0 1h-2v1h2zm3-1v1h1v-1zm3 0v1h1v-1zm14 0v1h2v-1h-1zm3 0v1h1v-1zm10 0v1h1v-1zm12 0v1h1v-1zm0 1h-2v1h2zm-97 0v1h1v-1zm11 0v1h1v-1zm16 0v1h1v-1zm0 1h-1v1h1zm-1 1h-1v1h1zm9-2v1h2v-1h-1zm9 0v2h1v-1h1v-1h-1zm2 1v1h1v-1zm-2 1h-1v1h1zm16-2v1h1v-1zm0 1h-2v1h2zm0 1v1h2v-1h-1zm39-2v1h1v-1zm9 0v1h1v-1zm-136 1v1h1v-1zm6 0v1h1v-1zm0 1h-2v1h2zm18-1v1h1v-1zm8 0v1h1v-1zm1 1v1h1v1h1v-1h1v-1h-2zm8-1v1h1v-1zm1 1v1h1v-1zm3-1v1h1v-1zm24 0v1h1v-1zm27 0v1h1v-1zm6 0v1h1v-1zm3 0v1h1v-1zm0 1h-1v1h1zm4-1v1h1v-1zm5 0v1h1v-1zm3 0v1h1v-1zm0 1h-1v1h1zm12-1v1h1v-1zm3 0v1h1v-1zm-130 1v1h1v-1zm0 1h-2v2h1v-1h1zm15-1v1h1v-1zm11 0v1h1v-1zm23 0v1h1v-1zm8 0v1h1v-1zm5 0v3h1v-2h1v-1h-1zm1 3v1h1v-1zm12-3v1h1v-1zm0 1h-1v1h1zm5-1v1h1v-1zm16 0v1h1v-1zm0 1h-1v1h1zm21-1v1h1v-1zm0 1h-1v1h1zm2-1v1h1v-1zm16 0v1h1v-1zm-124 1v1h1v-1zm0 1h-1v1h1zm0 1v1h1v-1zm0 1h-1v2h1v-1zm9-3v1h1v-1zm0 1h-1v1h1zm-1 1h-1v1h1zm26-2v1h1v-1zm1 1v1h1v-1zm7-1v1h1v-1zm18 0v1h1v-1zm0 1h-1v1h1zm0 1v1h2v1h2v-1h-1v-1h-2zm0 1h-1v2h1v-1zm33-3v1h1v-1zm0 1h-1v1h1zm-1 1h-2v1h2zm4-2v1h1v-1zm0 1h-1v1h1zm-1 1h-1v1h1zm21-2v1h2v-1h-1zm-132 1v1h1v-1zm12 0v1h1v-1zm19 0v1h1v-1zm14 0v1h1v-1zm1 1v1h2v-1h-1zm14-1v1h1v-1zm1 1v1h1v-1zm2-1v1h1v-1zm21 0v1h1v-1zm8 0v1h1v-1zm4 0v1h1v-1zm30 0v1h2v-1h-1zm0 1h-1v1h1zm-133 0v1h1v-1zm1 1v1h2v-1h-1zm2 1v2h1v-2zm12-2v1h1v-1zm12 0v1h1v-1zm21 0v1h1v-1zm8 0v1h1v-1zm22 0v1h1v-1zm30 0v1h1v-1zm3 0v1h1v-1zm12 0v1h1v-1zm0 1h-1v1h1zm5-1v1h1v-1zm-108 1v1h1v-1zm23 0v1h1v1h1v-1h1v-1h-2zm16 0v1h1v-1zm2 0v2h1v-1h1v-1h-1zm4 0v1h1v-1zm24 0v1h1v-1zm1 1v1h1v-1zm13-1v1h2v-1h-1zm3 0v1h1v-1zm13 0v1h1v-1zm0 1h-1v1h1zm0 1v2h1v-2zm20-2v1h2v-1h-1zm4 0v1h1v-1zm0 1h-1v1h1zm-133 0v1h1v-1zm3 0v1h1v-1zm0 1h-1v1h1zm-1 1h-1v1h1zm4-2v1h1v-1zm9 0v1h1v-1zm0 1h-1v1h1zm-1 1h-1v1h1zm13-2v1h1v-1zm2 0v1h1v-1zm10 0v1h1v-1zm20 0v2h1v-1h1v-1h-1zm24 0v1h2v-1h-1zm0 1h-1v1h-1v1h2v-1zm8-1v2h1v-2zm23 0v1h1v-1zm1 1v1h1v-1zm-1 0h-1v1h1zm9-1v1h1v-1zm1 1v2h1v-1h1v-1h-1zm-128 0v1h1v-1zm0 1h-1v1h1zm22-1v2h1v-2zm5 0v1h1v-1zm9 0v1h1v-1zm1 1v1h1v-1zm11-1v1h1v-1zm12 0v2h2v-1h-1v-1zm9 0v1h1v-1zm9 0v1h1v-1zm1 1v1h1v-1zm20-1v1h1v-1zm5 0v1h1v-1zm6 0v2h1v-2zm13 0v1h1v-1zm0 1h-1v1h1zm9-1v1h1v-1zm1 1v1h1v-1zm8-1v1h1v-1zm-148 1v1h1v-1zm0 1h-1v1h1zm9-1v1h1v-1zm6 0v1h1v-1zm6 0v1h1v-1zm6 0v1h1v-1zm5 0v1h1v-1zm4 0v1h1v-1zm11 0v1h1v-1zm6 0v1h1v-1zm4 0v1h1v-1zm8 0v1h1v-1zm9 0v1h1v-1zm9 0v1h1v-1zm-87 1v1h1v-1zm0 1h-1v1h1zm6-1v2h1v-2zm4 1v1h1v-1zm5 0v1h1v-1zm4 0v1h2v-1h-1zm3 0v1h2v-1h-1zm7 0v1h2v-1h-1zm6 0v1h1v-1zm13 0v1h1v-1zm3 0v1h1v-1zm5 0v1h2v-1h-1zm4 0v1h1v-1zm8 0v1h1v-1zm8 0v1h1v-1zm3 0v1h1v-1zm2 0v1h3v-1h-2zm6 0v1h1v-1zm5 0v1h1v-1zm2 0v1h1v-1zm4 0v1h1v-1z"/>
</svg>