<?xml version="1.0" encoding="UTF-8"?>
<svg version="1.1" viewBox="0 0 157 30" xmlns="http://www.w3.org/2000/svg">
 <path d="m41 0v1h1 1 1 1v-1h-1-1-1-1zm6 0v1h1v-1h-1zm2 0v1h1 1v-1h-1-1zm3 0v1h1 1v-1h-1-1zm3 0v1h1 1v-1h-1-1zm-47 2v1 1h1 1v-1h-1v-1h-1zm2 2v1h1 1v-1h-1-1zm2 1v1h1v-1h-1zm1 0h1v-1h1v-1h1v-1h-1-1v1h-1v1 1zm3-2v1h1 1 1v-1h-1-1-1zm3 1v1h1v-1h-1zm-11 0h-1-1v1h1v1h1v-1-1zm0 2v1h1v-1h-1zm13-4v1h1v-1h-1zm1 1v1 1h1v-1h1v1h-1v1h1v1h1 1v1h1v1h1 1v-1h1v-1h1v-1-1h-1v1h-1v1h-1-1v-1h1v-1h-1-1v1h-1v-1h1v-1h-1v-1-1h-1v1h-1-1zm6 2h1v-1h-1v1zm0-1v-1h1 1v1h1v1h1v-1-1h-1v-1h-1-1-1-1v1 1h1zm1 5v1h1v-1h-1zm0 1h-1-1v1h-1v-1h-1v1 1h1v1h-1v1 1h1v-1h1 1 1v-1h1v-1h-1-1v1h-1v-1h1v-1h1v-1zm1 2h1v-1h-1v1zm1-1h1v-1h-1v1zm0 1v1h1 1 1 1v-1h-1v-1h-1v1h-1-1zm-5 3v1h1v1h-1-1v1 1h1 1v1h-1v1 1h1v-1h1v-1h1v-1h-1v-1-1h1v-1h-1v-1h-1-1zm2 6v1 1h1 1v-1-1h-1-1zm0 2h-1v1h1v-1zm-1 1h-1-1v1 1h1v-1h1v-1zm-1-2h-1v1h1v-1zm0-12h1v-1h-1v1zm-4-5h-1v1h-1v1h-1-1v1h-1-1v1h-1v1 1 1h1v-1h1v-1h1v-1h1v1 1h1v-1h1v-1h-1v-1h1v-1h1v-1-1zm-3 6h-1v1h-1v1h1 1v-1-1zm-2 2h-1-1v1h-1v1h-1v1 1h1v-1h1v-1h1v-1h1v-1zm-3 4v1h1 1v-1h-1-1zm2 0h1 1v-1h1v-1-1h-1v1h-1v1h-1v1zm-3 0h-1-1v1h1v1h1v-1-1zm0 2v1h1v-1h-1zm0 1h-1-1v1h-1v1 1h1v-1h1v-1h1v-1zm-2 3v1 1h1v-1h1v-1h-1-1zm2 0h1v-1h-1v1zm1-1h1 1v-1-1h-1v1h-1v1zm0 1v1h-1v1 1h1v-1h1v-1h1v-1h-1-1zm2 1v1 1h1v-1h1v-1h1v-1h-1v-1h-1v1 1h-1zm3 0v1h1 1 1 1v-1h-1-1-1-1zm-8 1h-1v1h1v-1zm-1 1h-1v1h1v-1zm0 1v1h1 1v-1h-1-1zm-1 0h-1v1h1v-1zm1-6v-1h-1v1h1zm-1 0h-1v1h1v-1zm-1 1h-1v1h-1v1h1 1v-1-1zm0 2v1h1v-1h-1zm0 1h-1v1h1v-1zm-1 1h-1v1h1v-1zm3-6h1v-1h-1v1zm1-3v-1h-1-1v1h1 1zm-2-1v-1h-1-1v-1h1 1v1h1v-1-1h-1v-1h-1-1v1h-1v1 1 1h1 1 1zm-2-4v-1h-1v1h1zm0-1h1v-1h-1v1zm0-1v-1-1h-1v1 1h1zm2 2h1v-1h-1v1zm1-1h1v-1h-1v1zm3 4v-1h1v-1h-1-1v1h-1v1h1 1zm1-2h1v-1h-1v1zm2-5v-1h-1v1h1zm-1-1v-1h-1v1h1zm-1 0h-1v1 1h1v-1-1zm-1 2h-1v1h1v-1zm0 1v1h1v-1h-1zm0 1h-1v1h1v-1zm25-9v1h-1v1h1v1h1v-1-1-1h-1zm1 3v1h-1v1h-1v1h1 1v-1h1v-1-1h-1zm0 3v1h-1v1h1 1v1h1v-1h1v-1h-1-1v-1h-1zm3 1h1v-1h1v-1h-1-1-1v1h1v1zm-2 2h-1-1v1 1h1v-1h1v-1zm-1 2v1h-1v1h-1-1v1h-1v1h1 1 1v1 1h1v-1h1v-1h-1v-1-1h1v1h1 1v-1h-1v-1-1h-1-1zm2 0h1v-1h-1v1zm1-1h1v-1h-1v1zm1-1h1v-1h-1v1zm1-1h1v-1h-1v1zm-4 8v1 1h1v-1h1 1v-1h-1-1-1zm3 1v1h1v-1h-1zm0 1h-1v1h-1v1h1 1v-1-1zm0 2v1h-1v1h1 1v-1h1 1v-1h-1-1-1zm-1 2h-1v1h1v-1zm0 1v1h1 1v-1h-1-1zm-1 0h-1v1 1h1v-1-1zm0 2v1h1v-1h-1zm-1-7h-1-1v1h1 1v-1zm-2 0v-1h-1v1h1zm-1 0h-1v1h1v-1zm-1 1h-1v1h-1v1h1 1v-1-1zm-2 2h-1v1h-1v1h1 1v-1-1zm-2 2h-1v1h1v-1zm3-9v-1-1h-1-1-1-1v1h1 1 1v1h1zm-1 0h-1v1 1h1v-1-1zm-3-1h-1v1h1v-1zm7-1v-1h-1v1h1zm0-3v-1h-1v1h1zm-1 0h-1v1h1v-1zm4-9v1 1h1v-1h1v-1h-1-1zm2 1v1 1h1v-1h1v-1h-1-1zm4-1v1 1h1v-1-1h-1zm0 2h-1v1h1v-1zm-14-1v1 1h1 1v-1-1h-1-1zm17 0v1h-1v1h1 1 1 1v-1h-1-1v-1h-1zm3 1h1v-1h-1v1zm-4 1h-1v1h1v-1zm-1 1h-1v1h1v-1zm-1 1h-1v1h1v-1zm8-4v1h1v1h1v-1h1v-1h-1-1-1zm1 2h-1-1v1h1 1v-1zm0 1v1h1v-1h-1zm0 1h-1v1h1v-1zm-1 1h-1-1v1 1h1v1h-1v1 1h1v-1h1v-1h1v-1h-1v-1-1zm-2 3v-1h-1-1v-1h-1-1v1 1h1 1v1h1v-1h1zm-4-2v-1h-1v1h1zm-1 0h-1v1h1v-1zm1-1h1v-1h-1v1zm2 1h1v-1h-1v1zm1-1h1v-1h-1v1zm0-1v-1h-1v1h1zm10-4v1h1v-1h-1zm0 1h-1-1-1v1h1v1h1v-1h1v-1zm-2 2h-1v1h1v-1zm0 1v1h-1v1 1 1h1v-1h1 1 1v-1h-1-1v-1h1 1v-1-1h-1v1h-1-1zm3-1h1v-1h-1v1zm1-1h1v-1h-1v1zm1-1h1v-1h-1v1zm-2 4v1h1v-1h-1zm-3 3v1h1v-1h-1zm0 1h-1v1h1v-1zm-1-4v-1h-1v1h1zm-1 0h-1v1h1v-1zm10-5v1h1v-1h-1zm0 1h-1v1h1v-1zm-1 1h-1v1h1v-1zm4-2v1h1 1v1h1v-1h1v-1h-1-1-1-1zm2 2h-1-1v-1h-1v1h-1v1h-1v1h-1v1h1 1v-1h1v-1h1 1v1 1 1h1v-1h1 1v-1h-1-1v-1-1zm2 3v1h1v-1h-1zm-8 0h-1-1v1 1h1v-1h1v-1zm-2 2h-1v1h1v-1zm-1 1h-1v1h1v-1zm-1 1h-1v1h1v-1zm-1 1h-1v1h-1-1v1h-1v1h-1v1 1h1v-1h1v-1h1v-1h1 1v1h-1v1h1 1v-1-1-1h-1v-1zm-1 4h-1-1v1 1h1v-1h1v-1zm-2 2h-1v1h1v-1zm0 1v1 1h1v-1-1h-1zm-1 0h-1v1h1v-1zm-1 1h-1v1h1v-1zm-1 1h-1-1v1h1 1v-1zm1-4h-1v1h1v-1zm-1 1h-1v1h1v-1zm-1 1h-1v1h1v-1zm2-4v-1h-1v1h1zm0-1h1v-1h-1v1zm20-12v1h1v-1h-1zm9 0v1h1 1v-1h-1-1zm2 1v1h1v-1h-1zm0 1h-1v1h1v-1zm-1 1h-1v1 1h-1-1v1h1v1h1 1 1v-1h-1v-1-1-1zm1 3h1v-1h1v-1h-1-1v1 1zm0 1v1h1v-1h-1zm0 1h-1v1h1v-1zm-1 1h-1v1h1v-1zm0 1v1h1 1v-1h-1-1zm2 0h1 1v-1-1h1v-1h-1-1v1 1h-1v1zm3-3h1v-1h-1v1zm1-1h1v-1h-1v1zm1-1h1v-1h-1v1zm1-1h1v-1h-1v1zm-1 2v1 1h1v-1h1v-1h-1-1zm0 2h-1v1 1 1h-1v1 1h1 1v-1h1 1v-1h-1v-1h1v-1h-1-1v-1zm2 1h1v-1h-1v1zm1-1h1v-1h-1v1zm1-1h1v-1h1v-1h-1v-1-1h-1v1h-1v1h1v1 1zm1-4h1v-1h-1v1zm1-1h1v-1h-1v1zm0-1v-1h-1-1v1h1 1zm-3 8v1 1h1v-1h1v-1h-1-1zm2 0h1v-1h-1v1zm1-1h1v-1h-1v1zm-6 5v1h1v-1h-1zm0 1h-1v1h1v-1zm-1 1h-1v1h1v-1zm-1 1h-1v1 1h1v-1-1zm0-5v-1h-1v1h1zm-1 0h-1v1h1v-1zm-7-5h-1-1v1 1h1v-1h1v-1zm0-1v-1h-1-1-1v1h1 1 1zm-3-1v-1h-1v1h1zm0-1h1v-1h-1v1zm1-1h1v-1h-1v1zm4-1h-1-1v1h1 1v-1zm6-1v1h1v-1h-1zm0 1h-1-1v1 1h1 1v-1-1zm0 2v1h1v-1h-1zm1 0h1v-1h-1v1zm2-3v1h1v-1h-1zm7 0v1h1v-1h-1zm1 1v1h1v-1h-1zm1 0h1v-1h-1v1zm-1 1h-1v1h1v-1zm-1 1h-1v1h1v-1zm0 1v1h1 1 1v1h1v-1-1h-1v-1h-1v1h-1-1zm4 2v1 1h1 1v-1-1h1 1v-1-1h-1v1h-1-1v1h-1zm2 2v1h1 1v-1h-1-1zm2 1v1h1v-1h-1zm-5-3h-1v1h1v-1zm2-6v1h1v-1h-1zm0 1h-1v1h1v-1zm2-1v1 1h1 1v-1h1v-1h-1-1-1zm0 2h-1v1h1v-1zm-1 1h-1v1h1v-1zm8-3v1h1 1v-1h-1-1zm0 1h-1v1h1v-1zm6-1v1h1 1v-1h-1-1zm2 1v1h1v-1h-1zm-2 0h-1v1h1v-1zm-1 1h-1v1h1v-1zm-1 1h-1v1h1v-1zm-1 1h-1v1h1v-1zm-1 1h-1v1h1v-1zm8-5v1h1v1h-1v1h1v1h1 1v1h1v-1h1v-1h-1-1-1v-1-1h1v-1h-1-1-1zm3 1v1h1 1v-1h-1-1zm2 0h1v-1h-1v1zm1 0v1h1 1 1v-1-1h-1v1h-1-1zm3 1v1h1v-1h-1zm0 1h-1v1h1v-1zm-9 0h-1v1h1v-1zm11-3v1h1v-1h-1zm3 0v1h1v-1h-1zm0 1h-1v1h1v-1zm-1 1h-1v1h-1v1h1v1 1h1v-1-1-1-1zm0 4v1 1h1 1v-1-1h-1-1zm2 0h1 1v-1h-1v-1h-1v1 1zm2 0v1h1v-1h-1zm1 1v1h1v-1h-1zm1 1v1h1v-1h-1zm-4 0v1h1v-1h-1zm0 1h-1v1h1v-1zm-2-1h-1-1v-1h-1-1v-1h-1v1 1h1 1v1h1 1 1v-1zm-3 1h-1v1h1v-1zm-1 1h-1v1h1v-1zm-1 1h-1-1v1h1 1v-1zm0 1v1h1v-1h-1zm0 1h-1-1v1h1 1v-1zm-2 0v-1h-1v1h1zm-1 0h-1v1 1h1v-1-1zm0 2v1h-1-1v-1h-1v-1-1h-1v1h-1-1v1h1v1h-1v1 1h1 1 1v-1h-1v-1h1v1h1 1 1 1v-1-1h-1zm1 2v1 1 1h1 1v-1h-1v-1-1h-1zm2 3v1h-1v1h1 1v-1h1v-1h1v-1h-1v-1h-1v1 1h-1zm2-2h1v-1h-1v1zm0 3v1 1 1h1v-1-1h1v-1h-1-1zm2 0h1v-1h-1v1zm-13-7v-1h-1v1h1zm-1 0h-1v1h1v-1zm-1 1h-1v1 1h1v-1-1zm2-2h1v-1h-1v1zm10-7h1v-1h-1v1zm1-1h1v-1h-1v1zm9-5v1h1 1v-1h-1-1zm2 1v1 1h1v-1h1 1v-1h-1-1-1zm3 1v1 1h1v-1-1h-1zm1 2v1h1v-1h-1zm0 1h-1v1h1v-1zm-1 1h-1v1h1v-1zm-1 1h-1v1h1v-1zm3-7v1h1 1v-1h-1-1zm2 1v1h1v1h-1v-1h-1v1 1h1 1 1 1v-1-1h-1v-1-1h-1v1h-1zm-75 0v1h1v-1h-1zm63 0v1h1v-1h-1zm1 1v1h1v1 1h1v-1-1-1h-1-1zm-1 0h-1v1h1v-1zm-67 0v1h1 1v-1h-1-1zm38 1v1h1v-1h-1zm0 1h-1v1h1v-1zm3-1v1h1v-1h-1zm0 1h-1v1h1v-1zm7-1v1h1v-1h-1zm-113 1v1h-1v1h1 1v-1-1h-1zm67 0v1 1 1h1v-1h1 1v-1h-1-1v-1h-1zm3 2v1h1v-1h-1zm0 1h-1-1v1 1h1v-1h1v-1zm-3 0h-1v1h1v-1zm-1 1h-1v1 1h1v-1-1zm0 2v1h1v-1h-1zm0 1h-1v1h-1v1h1v1 1h1v-1h1v-1h-1v-1-1zm-1 4h-1v1h1v-1zm0 1v1h1 1v-1h-1-1zm-1-3h-1v1h1v-1zm-1 1h-1v1h1v-1zm-1 1h-1-1v-1h-1v1 1h1v1 1 1 1h1 1v-1h1v-1h-1-1v-1-1h1v-1zm1 3h1v-1h-1v1zm-3 2h-1v1h1v-1zm0-6h1v-1h-1v1zm51-10v1h1v-1h-1zm1 1v1h1 1v-1h-1-1zm-1 0h-1v1 1h1v-1-1zm11-1v1h1v-1h-1zm16 0v1h1v-1h-1zm0 1h-1-1v1 1h1v-1h1v-1zm-125 0v1h1 1v-1h-1-1zm8 0v1h1v-1h-1zm122 0v1 1h1v-1-1h-1zm1 2v1h1v-1h-1zm0 1h-1v1 1h1v-1-1zm0 2v1h1v-1h-1zm1 0h1v-1h-1v1zm1-1h1v-1-1h-1v1 1zm0 1v1h1v-1h-1zm0-5v1h1v-1h-1zm-123 1v1h1v-1h-1zm35 0v1h-1v1h1 1v-1-1h-1zm1 2v1h-1v1h1 1v1h1v-1-1-1h-1-1zm1 3h-1v1h1v-1zm-1 1h-1v1h1v-1zm-1 1h-1v1h1v-1zm-1 1h-1v1h-1-1v1 1h1v-1h1 1v1h1v-1-1h-1v-1zm1 3v1 1h1v-1-1h-1zm0 2h-1v1h1v-1zm-1 1h-1v1h1v-1zm-1 1h-1v1h1v-1zm-1 1h-1-1-1v1h1 1 1v-1zm-3 1h-1-1v1h1 1v-1zm0 1v1h1 1v-1h-1-1zm-2 0h-1v1h1v-1zm0-1v-1h-1v1h1zm7-6h-1-1v1h1 1v-1zm-2 1h-1v1h1v-1zm3-8h-1v1h1v-1zm-1 1h-1v1h1v-1zm-1 1h-1v1h1v-1zm1-4h-1v1h1v-1zm-1 1h-1v1h1v-1zm47-3v1h1 1v-1h-1-1zm2 1v1h1v-1h-1zm-2 0h-1v1 1h1v-1-1zm0 2v1h1 1v-1h-1-1zm2 1v1h-1v1h1 1v-1-1h-1zm1 2v1h1v-1h-1zm0 1h-1v1h1v-1zm-1 1h-1v1h1v-1zm-1 1h-1-1v-1h1v-1h-1-1v1 1 1h1v1h1 1v-1-1zm0 2v1h-1-1v1h1 1v1h1 1 1v-1h-1-1v-1-1h-1zm-2 1v-1h-1v1h1zm-1-5v-1h-1v1h1zm0-1h1v-1h-1v1zm1-1h1v-1h-1v1zm13-5v1 1h1v-1-1h-1zm1 2v1h1v-1h-1zm2-2v1h1v-1h-1zm3 0v1h1v-1h-1zm1 1v1h1v-1h-1zm-1 0h-1v1h-1v1h1 1v-1-1zm-109 0v1 1 1h1 1v-1h-1v-1-1h-1zm51 0v1h1v-1h-1zm0 1h-1v1 1h1v-1-1zm0 2v1h1v-1h-1zm0 1h-1v1h1v-1zm49-4v1h1v-1h-1zm-77 1v1h1v-1h-1zm0 1h-1v1h-1v1h1 1v-1-1zm57-1v1h1 1v-1h-1-1zm2 1v1h1v-1h-1zm1 1v1 1h1v-1h1v-1h-1-1zm2 1v1h1v1h1v-1-1h-1-1zm-2 1h-1-1v1 1 1h1v-1-1h1v-1zm-2 3h-1-1v1h1 1v-1zm-2 0v-1h-1v1h1zm2-3v-1h-1v-1-1h-1v1 1 1 1h1v-1h1zm14-4v1 1h1 1 1v-1h-1v-1h-1-1zm33 0v1 1h1v-1-1h-1zm1 2v1h1v-1h-1zm0 1h-1-1v1h-1v1 1h1v-1h1v-1h1v-1zm-1 2v1 1h1v-1h1v-1h-1-1zm2 0h1v-1h-1v1zm-4 1h-1-1v1 1h1v-1h1v-1zm-2 0v-1h-1v1h1zm0-1h1v-1h-1v1zm1-1h1v-1h-1v1zm0-1v-1h-1-1v1h1 1zm-2 0h-1v1h1v-1zm-1 1h-1v1h1v-1zm-1 1h-1-1v1h-1v1 1h1v-1h1 1v-1-1zm0 2v1h1v-1h-1zm0 1h-1v1h1v-1zm-1 1h-1v1h1v-1zm-1 1h-1v1h1v-1zm-1-2h-1-1v1h1 1v-1zm0-2v-1h1v-1h-1-1v-1h-1v1h-1v1h-1v1h-1v1 1h1v-1h1v-1h1 1 1zm-5 2h-1v1h1v-1zm3-5v-1h-1v1h1zm9-1h1v-1h-1v1zm-91-1v1h1v-1h-1zm0 1h-1v1h1v-1zm-1 1h-1v1h1v-1zm-1 1h-1v1h1v-1zm-1 1h-1v1h1v-1zm27-4v1h1v-1h-1zm0 1h-1v1h1v-1zm-1 1h-1v1h1v-1zm0 1v1 1h1v-1h1v1 1h1v-1h1v-1h-1v-1h-1-1-1zm4 2v1 1h1v-1h1v-1h-1-1zm-2 1h-1v1h-1-1v1 1h1 1 1v1 1 1h1 1v-1h-1v-1-1-1h-1v-1-1zm2 6v1h1v-1h-1zm-2 0h-1v1h1v-1zm-1 1h-1v1h1v-1zm-1 1h-1v1h1v-1zm-1 1h-1v1h1v-1zm2-3v-1-1h-1v1h-1v1h1 1zm-2 0h-1v1h1v-1zm-1 1h-1v1h1v-1zm1-4h-1v1h1v-1zm1-4h-1v1h1v-1zm4-5v1h-1v1h1 1v-1-1h-1zm1 2v1h1v-1h-1zm1 1v1h1 1v-1h-1-1zm37-3v1h1 1v-1h-1-1zm2 1v1h1 1v-1h-1-1zm0 1h-1-1v1 1h1v-1h1v-1zm-2 2h-1v1h1v-1zm-1 1h-1v1h1v-1zm-1 1h-1-1v-1h-1v1h-1v1h1v1 1h1v-1h1v-1h1v-1zm-2-1h1v-1h-1v1zm1-1h1v-1h-1v1zm24-4v1h1v-1h-1zm0 1h-1v1h1v-1zm-15 0v1h1 1 1v-1h-1-1-1zm0 1h-1v1h1v-1zm-108 0v1 1h1v-1-1h-1zm1 2v1h1v1h1v-1h1v-1-1h-1-1v1h-1zm2 2v1h-1-1v1h1 1 1v-1-1h-1zm25-4v1h1 1v-1h-1-1zm2 1v1h1v-1h-1zm49-1v1h1v-1h-1zm0 1h-1v1h1v-1zm-1 1h-1-1v1 1h1 1v-1-1zm0 2v1h-1-1v1h1 1v1 1h-1v1h-1-1-1v1h1v1h1v-1h1 1v-1h1v-1h1v-1-1h-1v-1-1h-1zm-3 7h-1v1h1v-1zm1-6v-1h-1v1h1zm-1 0h-1v1h1v-1zm-50-4v1 1h-1v1h1 1v-1-1-1h-1zm110 0v1h1v-1h-1zm0 1h-1v1h1v-1zm0 1v1h1v1h1v-1-1h-1-1zm1 2h-1-1v-1-1h-1v1h-1v1h1v1h1v1 1h-1v1h1 1v-1h1v-1h-1v-1h1v-1zm-3 3v-1h-1v1h1zm-1 0h-1v1h1v-1zm0-3h-1v1h1v-1zm-64-3v1h1 1v-1h-1-1zm2 1v1h1v-1h-1zm0 1h-1v1h1v-1zm16-2v1 1h1v-1-1h-1zm1 2v1h1 1v-1h-1-1zm2 1v1h1v-1h-1zm0 1h-1v1h-1-1v1h-1v1h1v1h1 1 1 1v-1-1h-1v1h-1-1v-1h1 1v-1-1zm1 4v1 1h1v-1-1h-1zm1 0h1v-1h-1v1zm0 2v1h1v-1h-1zm1 0h1v-1h-1v1zm1-1h1v-1h-1v1zm1 0v1 1h1v-1h1v-1h-1-1zm2 0h1v-1h-1v1zm-2 2h-1v1h1v-1zm-3 0h-1v1h1v-1zm-5-3h-1v1h1v-1zm-1 0v-1h-1v1h1zm0-2v-1h-1v1h1zm-1-1v-1h-1-1v1h1 1zm3-2h-1v1h1v-1zm-101-2v1h1v-1h-1zm42 0v1h1v-1h-1zm6 0v1h1v-1h-1zm-37 1v1h1v-1h-1zm34 0v1h1v-1h-1zm1 1v1h1v-1h-1zm34-1v1h-1v1h1v1h1 1v-1h-1v-1-1h-1zm-1 2h-1v1 1h1v-1-1zm0 2v1h1 1v-1h-1-1zm-54-3v1h1v-1h-1zm1 1v1 1h1v-1h1v-1h1v-1h-1-1v1h-1zm15-1v1h1v-1h-1zm14 0v1h1 1v-1h-1-1zm-44 1v1h1 1 1v-1h-1-1-1zm3 1v1h1v-1h-1zm25-1v1h1v-1h-1zm5 0v1 1h1 1v-1h-1v-1h-1zm0 2h-1-1v-1h-1v1 1h1v1h-1-1v1h1 1 1v-1-1h1v-1zm-1 3v1h1v-1h-1zm1 0h1v-1h-1v1zm70-5v1h1v-1h-1zm1 1v1h1v1h1v-1h1v-1h-1-1-1zm2 2v1h-1-1-1v1h-1-1v1h1 1 1v1h-1v1h1 1 1v-1h1v-1h-1-1v-1h1 1v-1h1v-1h-1-1zm1 2v1h1v-1h-1zm-4-4h-1v1 1h1v-1-1zm27-1v1h1 1v-1h-1-1zm2 1v1h1v-1h-1zm0 1h-1-1v1h-1v1h-1v1 1h1v-1h1v-1h1 1v-1-1zm0 2v1h1v-1h-1zm0 1h-1v1h1v-1zm0 1v1 1h1v-1h1v-1h-1-1zm2 0h1v-1h-1v1zm0 1v1h1 1v-1h-1-1zm2 0h1 1v-1-1h-1v1h-1v1zm2-2h1v-1h-1v1zm1 0v1h1v-1h-1zm-8 1h-1v1h1v-1zm-1 1h-1v1h1v-1zm-2-1h-1v1 1h1v-1-1zm0-2v-1h-1v-1-1h-1v1 1h-1v1h1v1h1v-1h1zm-2 1h-1v1h1v-1zm-1 1h-1v1 1h1v-1-1zm5-4v-1h-1v1h1zm-124-1v1h1v-1h-1zm0 1h-1v1h1v-1zm38-1v1h1v1h1v-1-1h-1-1zm2 2v1h1v-1h-1zm26-2v1 1h1v-1-1h-1zm1 2v1h1v-1h-1zm0 1h-1v1 1h1v-1-1zm-52-2v1h1v-1h-1zm0 1h-1v1h1v-1zm0 1v1h1v-1h-1zm0 1h-1v1 1h1v-1-1zm0 2v1h1v-1h-1zm36-5v1h1v-1h-1zm1 1v1h1v-1h-1zm17-1v1h1v-1h-1zm9 0v1h1v-1h-1zm1 1v1h-1-1v1 1h1v-1h1 1v-1-1h-1zm1 2v1h1v-1h-1zm0 1h-1v1h1v-1zm-1 1h-1v1h1v-1zm25-5v1 1h1v-1h1v-1h-1-1zm2 1v1h1v-1h-1zm0 1h-1v1h1v-1zm-77-1v1h1v-1h-1zm8 0v1h1v-1h-1zm-31 1v1h1v-1h-1zm0 1h-1v1h1v-1zm6-1v1h1v-1h-1zm19 0v1h-1v1 1 1h1v-1h1v-1h1 1v-1h1v-1h-1-1-1-1zm17 0v1h1v-1h-1zm14 0v1h1 1 1v-1h-1-1-1zm46 0v1h-1v1h1 1v-1-1h-1zm1 2v1h1v-1h-1zm-2 0h-1v1h1v-1zm10-2v1h1v-1h-1zm0 1h-1v1h1v-1zm-72 0v1h1v-1h-1zm5 0v1h-1v1h1 1v-1-1h-1zm-1 2h-1v1h1v-1zm-54-1v1h1v-1h-1zm3 0v1h1 1v-1h-1-1zm12 0v1 1h1v-1-1h-1zm12 0v1h1v-1h-1zm1 1v1h1 1v-1h-1-1zm20-1v1h1v-1h-1zm15 0v1h1 1v-1h-1-1zm2 1v1h1v-1h-1zm-2 0h-1v1h1v-1zm4-1v1h1v-1h-1zm1 1v1h1v-1h-1zm5-1v1h1v-1h-1zm1 1v1h1v-1h-1zm4-1v1h1v-1h-1zm0 1h-1v1h1v-1zm10-1v1h1v-1h-1zm-92 1v1h1v-1h-1zm11 0v1h1 1v-1h-1-1zm4 0v1h1v-1h-1zm21 0v1h1v-1h-1zm6 0v1h1v-1h-1zm33 0v1h1v-1h-1zm15 0v1h1v-1h-1zm12 0v1h1v-1h-1zm10 0v1h1v-1h-1zm8 0v1h1v-1h-1zm-133 2v1h1v-1h-1zm6 0v1h1 1v-1h-1-1zm3 0v1h1v-1h-1zm6 0v1h1 1v-1h-1-1zm5 0v1h1v-1h-1zm3 0v1h1v-1h-1zm4 0v1h1 1 1 1v-1h-1-1-1-1zm8 0v1h1 1v-1h-1-1zm3 0v1h1 1 1 1 1 1v-1h-1-1-1-1-1-1zm8 0v1h1 1 1 1v-1h-1-1-1-1zm5 0v1h1 1v-1h-1-1zm3 0v1h1 1 1 1v-1h-1-1-1-1zm6 0v1h1 1v-1h-1-1zm4 0v1h1v-1h-1zm2 0v1h1 1 1v-1h-1-1-1zm6 0v1h1 1 1 1 1v-1h-1-1-1-1-1zm10 0v1h1v-1h-1zm13 0v1h1v-1h-1zm9 0v1h1v-1h-1zm3 0v1h1v-1h-1z"/>
</svg>
