<svg xmlns="http://www.w3.org/2000/svg" viewBox="0 0 157 30"><rect x="0" y="0" width="1" height="1"/><rect x="1" y="0" width="1" height="1"/><rect x="2" y="0" width="1" height="1"/><rect x="9" y="0" width="1" height="1"/><rect x="11" y="0" width="1" height="1"/><rect x="13" y="0" width="1" height="1"/><rect x="18" y="0" width="1" height="1"/><rect x="21" y="0" width="1" height="1"/><rect x="23" y="0" width="1" height="1"/><rect x="27" y="0" width="1" height="1"/><rect x="30" y="0" width="1" height="1"/><rect x="39" y="0" width="1" height="1"/><rect x="45" y="0" width="1" height="1"/><rect x="46" y="0" width="1" height="1"/><rect x="48" y="0" width="1" height="1"/><rect x="51" y="0" width="1" height="1"/><rect x="5" y="1" width="1" height="1"/><rect x="9" y="2" width="1" height="1"/><rect x="11" y="2" width="1" height="1"/><rect x="17" y="2" width="1" height="1"/><rect x="18" y="2" width="1" height="1"/><rect x="20" y="2" width="1" height="1"/><rect x="23" y="2" width="1" height="1"/><rect x="26" y="2" width="1" height="1"/><rect x="32" y="2" width="1" height="1"/><rect x="33" y="2" width="1" height="1"/><rect x="35" y="2" width="1" height="1"/><rect x="37" y="2" width="1" height="1"/><rect x="40" y="2" width="1" height="1"/><rect x="44" y="2" width="1" height="1"/><rect x="46" y="2" width="1" height="1"/><rect x="48" y="2" width="1" height="1"/><rect x="50" y="2" width="1" height="1"/><rect x="11" y="3" width="1" height="1"/><rect x="19" y="3" width="1" height="1"/><rect x="20" y="3" width="1" height="1"/><rect x="26" y="3" width="1" height="1"/><rect x="29" y="3" width="1" height="1"/><rect x="36" y="3" width="1" height="1"/><rect x="49" y="3" width="1" height="1"/><rect x="58" y="3" width="1" height="1"/><rect x="59" y="3" width="1" height="1"/><rect x="60" y="3" width="1" height="1"/><rect x="61" y="3" width="1" height="1"/><rect x="63" y="3" width="1" height="1"/><rect x="75" y="3" width="1" height="1"/><rect x="80" y="3" width="1" height="1"/><rect x="81" y="3" width="1" height="1"/><rect x="83" y="3" width="1" height="1"/><rect x="88" y="3" width="1" height="1"/><rect x="89" y="3" width="1" height="1"/><rect x="91" y="3" width="1" height="1"/><rect x="94" y="3" width="1" height="1"/><rect x="96" y="3" width="1" height="1"/><rect x="101" y="3" width="1" height="1"/><rect x="106" y="3" width="1" height="1"/><rect x="113" y="3" width="1" height="1"/><rect x="114" y="3" width="1" height="1"/><rect x="119" y="3" width="1" height="1"/><rect x="125" y="3" width="1" height="1"/><rect x="136" y="3" width="1" height="1"/><rect x="141" y="3" width="1" height="1"/><rect x="143" y="3" width="1" height="1"/><rect x="148" y="3" width="1" height="1"/><rect x="149" y="3" width="1" height="1"/><rect x="156" y="3" width="1" height="1"/><rect x="14" y="4" width="1" height="1"/><rect x="16" y="4" width="1" height="1"/><rect x="18" y="4" width="1" height="1"/><rect x="20" y="4" width="1" height="1"/><rect x="21" y="4" width="1" height="1"/><rect x="29" y="4" width="1" height="1"/><rect x="30" y="4" width="1" height="1"/><rect x="37" y="4" width="1" height="1"/><rect x="39" y="4" width="1" height="1"/><rect x="40" y="4" width="1" height="1"/><rect x="44" y="4" width="1" height="1"/><rect x="53" y="4" width="1" height="1"/><rect x="55" y="4" width="1" height="1"/><rect x="58" y="4" width="1" height="1"/><rect x="68" y="4" width="1" height="1"/><rect x="71" y="4" width="1" height="1"/><rect x="72" y="4" width="1" height="1"/><rect x="74" y="4" width="1" height="1"/><rect x="76" y="4" width="1" height="1"/><rect x="83" y="4" width="1" height="1"/><rect x="87" y="4" width="1" height="1"/><rect x="92" y="4" width="1" height="1"/><rect x="94" y="4" width="1" height="1"/><rect x="97" y="4" width="1" height="1"/><rect x="99" y="4" width="1" height="1"/><rect x="111" y="4" width="1" height="1"/><rect x="112" y="4" width="1" height="1"/><rect x="113" y="4" width="1" height="1"/><rect x="114" y="4" width="1" height="1"/><rect x="117" y="4" width="1" height="1"/><rect x="118" y="4" width="1" height="1"/><rect x="125" y="4" width="1" height="1"/><rect x="126" y="4" width="1" height="1"/><rect x="136" y="4" width="1" height="1"/><rect x="137" y="4" width="1" height="1"/><rect x="141" y="4" width="1" height="1"/><rect x="145" y="4" width="1" height="1"/><rect x="151" y="4" width="1" height="1"/><rect x="153" y="4" width="1" height="1"/><rect x="6" y="5" width="1" height="1"/><rect x="9" y="5" width="1" height="1"/><rect x="13" y="5" width="1" height="1"/><rect x="15" y="5" width="1" height="1"/><rect x="22" y="5" width="1" height="1"/><rect x="31" y="5" width="1" height="1"/><rect x="33" y="5" width="1" height="1"/><rect x="34" y="5" width="1" height="1"/><rect x="36" y="5" width="1" height="1"/><rect x="42" y="5" width="1" height="1"/><rect x="43" y="5" width="1" height="1"/><rect x="45" y="5" width="1" height="1"/><rect x="47" y="5" width="1" height="1"/><rect x="49" y="5" width="1" height="1"/><rect x="51" y="5" width="1" height="1"/><rect x="57" y="5" width="1" height="1"/><rect x="62" y="5" width="1" height="1"/><rect x="67" y="5" width="1" height="1"/><rect x="78" y="5" width="1" height="1"/><rect x="79" y="5" width="1" height="1"/><rect x="80" y="5" width="1" height="1"/><rect x="82" y="5" width="1" height="1"/><rect x="84" y="5" width="1" height="1"/><rect x="96" y="5" width="1" height="1"/><rect x="105" y="5" width="1" height="1"/><rect x="107" y="5" width="1" height="1"/><rect x="110" y="5" width="1" height="1"/><rect x="111" y="5" width="1" height="1"/><rect x="114" y="5" width="1" height="1"/><rect x="115" y="5" width="1" height="1"/><rect x="117" y="5" width="1" height="1"/><rect x="119" y="5" width="1" height="1"/><rect x="121" y="5" width="1" height="1"/><rect x="123" y="5" width="1" height="1"/><rect x="128" y="5" width="1" height="1"/><rect x="129" y="5" width="1" height="1"/><rect x="130" y="5" width="1" height="1"/><rect x="132" y="5" width="1" height="1"/><rect x="137" y="5" width="1" height="1"/><rect x="140" y="5" width="1" height="1"/><rect x="142" y="5" width="1" height="1"/><rect x="152" y="5" width="1" height="1"/><rect x="9" y="6" width="1" height="1"/><rect x="11" y="6" width="1" height="1"/><rect x="15" y="6" width="1" height="1"/><rect x="17" y="6" width="1" height="1"/><rect x="19" y="6" width="1" height="1"/><rect x="23" y="6" width="1" height="1"/><rect x="32" y="6" width="1" height="1"/><rect x="35" y="6" width="1" height="1"/><rect x="36" y="6" width="1" height="1"/><rect x="41" y="6" width="1" height="1"/><rect x="42" y="6" width="1" height="1"/><rect x="44" y="6" width="1" height="1"/><rect x="45" y="6" width="1" height="1"/><rect x="46" y="6" width="1" height="1"/><rect x="50" y="6" width="1" height="1"/><rect x="53" y="6" width="1" height="1"/><rect x="54" y="6" width="1" height="1"/><rect x="55" y="6" width="1" height="1"/><rect x="65" y="6" width="1" height="1"/><rect x="71" y="6" width="1" height="1"/><rect x="73" y="6" width="1" height="1"/><rect x="74" y="6" width="1" height="1"/><rect x="75" y="6" width="1" height="1"/><rect x="77" y="6" width="1" height="1"/><rect x="81" y="6" width="1" height="1"/><rect x="83" y="6" width="1" height="1"/><rect x="89" y="6" width="1" height="1"/><rect x="96" y="6" width="1" height="1"/><rect x="99" y="6" width="1" height="1"/><rect x="100" y="6" width="1" height="1"/><rect x="110" y="6" width="1" height="1"/><rect x="118" y="6" width="1" height="1"/><rect x="122" y="6" width="1" height="1"/><rect x="140" y="6" width="1" height="1"/><rect x="141" y="6" width="1" height="1"/><rect x="143" y="6" width="1" height="1"/><rect x="145" y="6" width="1" height="1"/><rect x="146" y="6" width="1" height="1"/><rect x="147" y="6" width="1" height="1"/><rect x="152" y="6" width="1" height="1"/><rect x="7" y="7" width="1" height="1"/><rect x="8" y="7" width="1" height="1"/><rect x="9" y="7" width="1" height="1"/><rect x="17" y="7" width="1" height="1"/><rect x="22" y="7" width="1" height="1"/><rect x="23" y="7" width="1" height="1"/><rect x="25" y="7" width="1" height="1"/><rect x="31" y="7" width="1" height="1"/><rect x="32" y="7" width="1" height="1"/><rect x="34" y="7" width="1" height="1"/><rect x="35" y="7" width="1" height="1"/><rect x="40" y="7" width="1" height="1"/><rect x="47" y="7" width="1" height="1"/><rect x="48" y="7" width="1" height="1"/><rect x="63" y="7" width="1" height="1"/><rect x="64" y="7" width="1" height="1"/><rect x="70" y="7" width="1" height="1"/><rect x="76" y="7" width="1" height="1"/><rect x="79" y="7" width="1" height="1"/><rect x="80" y="7" width="1" height="1"/><rect x="85" y="7" width="1" height="1"/><rect x="90" y="7" width="1" height="1"/><rect x="91" y="7" width="1" height="1"/><rect x="93" y="7" width="1" height="1"/><rect x="100" y="7" width="1" height="1"/><rect x="107" y="7" width="1" height="1"/><rect x="108" y="7" width="1" height="1"/><rect x="110" y="7" width="1" height="1"/><rect x="114" y="7" width="1" height="1"/><rect x="117" y="7" width="1" height="1"/><rect x="120" y="7" width="1" height="1"/><rect x="122" y="7" width="1" height="1"/><rect x="123" y="7" width="1" height="1"/><rect x="124" y="7" width="1" height="1"/><rect x="126" y="7" width="1" height="1"/><rect x="127" y="7" width="1" height="1"/><rect x="131" y="7" width="1" height="1"/><rect x="134" y="7" width="1" height="1"/><rect x="135" y="7" width="1" height="1"/><rect x="137" y="7" width="1" height="1"/><rect x="139" y="7" width="1" height="1"/><rect x="140" y="7" width="1" height="1"/><rect x="143" y="7" width="1" height="1"/><rect x="152" y="7" width="1" height="1"/><rect x="154" y="7" width="1" height="1"/><rect x="155" y="7" width="1" height="1"/><rect x="156" y="7" width="1" height="1"/><rect x="12" y="8" width="1" height="1"/><rect x="15" y="8" width="1" height="1"/><rect x="20" y="8" width="1" height="1"/><rect x="21" y="8" width="1" height="1"/><rect x="30" y="8" width="1" height="1"/><rect x="33" y="8" width="1" height="1"/><rect x="36" y="8" width="1" height="1"/><rect x="43" y="8" width="1" height="1"/><rect x="45" y="8" width="1" height="1"/><rect x="49" y="8" width="1" height="1"/><rect x="50" y="8" width="1" height="1"/><rect x="61" y="8" width="1" height="1"/><rect x="64" y="8" width="1" height="1"/><rect x="67" y="8" width="1" height="1"/><rect x="69" y="8" width="1" height="1"/><rect x="70" y="8" width="1" height="1"/><rect x="74" y="8" width="1" height="1"/><rect x="76" y="8" width="1" height="1"/><rect x="81" y="8" width="1" height="1"/><rect x="82" y="8" width="1" height="1"/><rect x="90" y="8" width="1" height="1"/><rect x="92" y="8" width="1" height="1"/><rect x="94" y="8" width="1" height="1"/><rect x="96" y="8" width="1" height="1"/><rect x="102" y="8" width="1" height="1"/><rect x="104" y="8" width="1" height="1"/><rect x="111" y="8" width="1" height="1"/><rect x="114" y="8" width="1" height="1"/><rect x="116" y="8" width="1" height="1"/><rect x="124" y="8" width="1" height="1"/><rect x="126" y="8" width="1" height="1"/><rect x="127" y="8" width="1" height="1"/><rect x="129" y="8" width="1" height="1"/><rect x="132" y="8" width="1" height="1"/><rect x="133" y="8" width="1" height="1"/><rect x="134" y="8" width="1" height="1"/><rect x="144" y="8" width="1" height="1"/><rect x="149" y="8" width="1" height="1"/><rect x="7" y="9" width="1" height="1"/><rect x="8" y="9" width="1" height="1"/><rect x="9" y="9" width="1" height="1"/><rect x="11" y="9" width="1" height="1"/><rect x="14" y="9" width="1" height="1"/><rect x="21" y="9" width="1" height="1"/><rect x="23" y="9" width="1" height="1"/><rect x="25" y="9" width="1" height="1"/><rect x="30" y="9" width="1" height="1"/><rect x="32" y="9" width="1" height="1"/><rect x="34" y="9" width="1" height="1"/><rect x="35" y="9" width="1" height="1"/><rect x="56" y="9" width="1" height="1"/><rect x="58" y="9" width="1" height="1"/><rect x="66" y="9" width="1" height="1"/><rect x="67" y="9" width="1" height="1"/><rect x="69" y="9" width="1" height="1"/><rect x="71" y="9" width="1" height="1"/><rect x="72" y="9" width="1" height="1"/><rect x="74" y="9" width="1" height="1"/><rect x="81" y="9" width="1" height="1"/><rect x="88" y="9" width="1" height="1"/><rect x="89" y="9" width="1" height="1"/><rect x="93" y="9" width="1" height="1"/><rect x="97" y="9" width="1" height="1"/><rect x="99" y="9" width="1" height="1"/><rect x="101" y="9" width="1" height="1"/><rect x="105" y="9" width="1" height="1"/><rect x="109" y="9" width="1" height="1"/><rect x="110" y="9" width="1" height="1"/><rect x="115" y="9" width="1" height="1"/><rect x="116" y="9" width="1" height="1"/><rect x="119" y="9" width="1" height="1"/><rect x="121" y="9" width="1" height="1"/><rect x="122" y="9" width="1" height="1"/><rect x="127" y="9" width="1" height="1"/><rect x="133" y="9" width="1" height="1"/><rect x="135" y="9" width="1" height="1"/><rect x="137" y="9" width="1" height="1"/><rect x="138" y="9" width="1" height="1"/><rect x="141" y="9" width="1" height="1"/><rect x="148" y="9" width="1" height="1"/><rect x="150" y="9" width="1" height="1"/><rect x="152" y="9" width="1" height="1"/><rect x="155" y="9" width="1" height="1"/><rect x="12" y="10" width="1" height="1"/><rect x="14" y="10" width="1" height="1"/><rect x="18" y="10" width="1" height="1"/><rect x="24" y="10" width="1" height="1"/><rect x="34" y="10" width="1" height="1"/><rect x="36" y="10" width="1" height="1"/><rect x="41" y="10" width="1" height="1"/><rect x="42" y="10" width="1" height="1"/><rect x="44" y="10" width="1" height="1"/><rect x="46" y="10" width="1" height="1"/><rect x="48" y="10" width="1" height="1"/><rect x="58" y="10" width="1" height="1"/><rect x="61" y="10" width="1" height="1"/><rect x="65" y="10" width="1" height="1"/><rect x="70" y="10" width="1" height="1"/><rect x="72" y="10" width="1" height="1"/><rect x="83" y="10" width="1" height="1"/><rect x="85" y="10" width="1" height="1"/><rect x="89" y="10" width="1" height="1"/><rect x="92" y="10" width="1" height="1"/><rect x="96" y="10" width="1" height="1"/><rect x="101" y="10" width="1" height="1"/><rect x="103" y="10" width="1" height="1"/><rect x="108" y="10" width="1" height="1"/><rect x="110" y="10" width="1" height="1"/><rect x="111" y="10" width="1" height="1"/><rect x="113" y="10" width="1" height="1"/><rect x="116" y="10" width="1" height="1"/><rect x="118" y="10" width="1" height="1"/><rect x="119" y="10" width="1" height="1"/><rect x="121" y="10" width="1" height="1"/><rect x="123" y="10" width="1" height="1"/><rect x="124" y="10" width="1" height="1"/><rect x="127" y="10" width="1" height="1"/><rect x="131" y="10" width="1" height="1"/><rect x="137" y="10" width="1" height="1"/><rect x="138" y="10" width="1" height="1"/><rect x="142" y="10" width="1" height="1"/><rect x="146" y="10" width="1" height="1"/><rect x="147" y="10" width="1" height="1"/><rect x="151" y="10" width="1" height="1"/><rect x="155" y="10" width="1" height="1"/><rect x="7" y="11" width="1" height="1"/><rect x="21" y="11" width="1" height="1"/><rect x="24" y="11" width="1" height="1"/><rect x="28" y="11" width="1" height="1"/><rect x="31" y="11" width="1" height="1"/><rect x="40" y="11" width="1" height="1"/><rect x="41" y="11" width="1" height="1"/><rect x="44" y="11" width="1" height="1"/><rect x="46" y="11" width="1" height="1"/><rect x="48" y="11" width="1" height="1"/><rect x="52" y="11" width="1" height="1"/><rect x="56" y="11" width="1" height="1"/><rect x="57" y="11" width="1" height="1"/><rect x="62" y="11" width="1" height="1"/><rect x="73" y="11" width="1" height="1"/><rect x="77" y="11" width="1" height="1"/><rect x="81" y="11" width="1" height="1"/><rect x="82" y="11" width="1" height="1"/><rect x="84" y="11" width="1" height="1"/><rect x="85" y="11" width="1" height="1"/><rect x="86" y="11" width="1" height="1"/><rect x="88" y="11" width="1" height="1"/><rect x="89" y="11" width="1" height="1"/><rect x="105" y="11" width="1" height="1"/><rect x="110" y="11" width="1" height="1"/><rect x="111" y="11" width="1" height="1"/><rect x="114" y="11" width="1" height="1"/><rect x="119" y="11" width="1" height="1"/><rect x="120" y="11" width="1" height="1"/><rect x="123" y="11" width="1" height="1"/><rect x="125" y="11" width="1" height="1"/><rect x="132" y="11" width="1" height="1"/><rect x="135" y="11" width="1" height="1"/><rect x="142" y="11" width="1" height="1"/><rect x="144" y="11" width="1" height="1"/><rect x="146" y="11" width="1" height="1"/><rect x="147" y="11" width="1" height="1"/><rect x="148" y="11" width="1" height="1"/><rect x="155" y="11" width="1" height="1"/><rect x="9" y="12" width="1" height="1"/><rect x="11" y="12" width="1" height="1"/><rect x="21" y="12" width="1" height="1"/><rect x="24" y="12" width="1" height="1"/><rect x="25" y="12" width="1" height="1"/><rect x="37" y="12" width="1" height="1"/><rect x="42" y="12" width="1" height="1"/><rect x="43" y="12" width="1" height="1"/><rect x="45" y="12" width="1" height="1"/><rect x="47" y="12" width="1" height="1"/><rect x="48" y="12" width="1" height="1"/><rect x="50" y="12" width="1" height="1"/><rect x="51" y="12" width="1" height="1"/><rect x="52" y="12" width="1" height="1"/><rect x="61" y="12" width="1" height="1"/><rect x="74" y="12" width="1" height="1"/><rect x="77" y="12" width="1" height="1"/><rect x="79" y="12" width="1" height="1"/><rect x="84" y="12" width="1" height="1"/><rect x="85" y="12" width="1" height="1"/><rect x="92" y="12" width="1" height="1"/><rect x="102" y="12" width="1" height="1"/><rect x="103" y="12" width="1" height="1"/><rect x="105" y="12" width="1" height="1"/><rect x="107" y="12" width="1" height="1"/><rect x="108" y="12" width="1" height="1"/><rect x="109" y="12" width="1" height="1"/><rect x="116" y="12" width="1" height="1"/><rect x="124" y="12" width="1" height="1"/><rect x="125" y="12" width="1" height="1"/><rect x="126" y="12" width="1" height="1"/><rect x="128" y="12" width="1" height="1"/><rect x="129" y="12" width="1" height="1"/><rect x="131" y="12" width="1" height="1"/><rect x="132" y="12" width="1" height="1"/><rect x="134" y="12" width="1" height="1"/><rect x="137" y="12" width="1" height="1"/><rect x="139" y="12" width="1" height="1"/><rect x="144" y="12" width="1" height="1"/><rect x="146" y="12" width="1" height="1"/><rect x="149" y="12" width="1" height="1"/><rect x="152" y="12" width="1" height="1"/><rect x="156" y="12" width="1" height="1"/><rect x="11" y="13" width="1" height="1"/><rect x="17" y="13" width="1" height="1"/><rect x="19" y="13" width="1" height="1"/><rect x="21" y="13" width="1" height="1"/><rect x="23" y="13" width="1" height="1"/><rect x="24" y="13" width="1" height="1"/><rect x="31" y="13" width="1" height="1"/><rect x="34" y="13" width="1" height="1"/><rect x="36" y="13" width="1" height="1"/><rect x="46" y="13" width="1" height="1"/><rect x="47" y="13" width="1" height="1"/><rect x="49" y="13" width="1" height="1"/><rect x="52" y="13" width="1" height="1"/><rect x="58" y="13" width="1" height="1"/><rect x="60" y="13" width="1" height="1"/><rect x="62" y="13" width="1" height="1"/><rect x="64" y="13" width="1" height="1"/><rect x="80" y="13" width="1" height="1"/><rect x="81" y="13" width="1" height="1"/><rect x="89" y="13" width="1" height="1"/><rect x="90" y="13" width="1" height="1"/><rect x="95" y="13" width="1" height="1"/><rect x="96" y="13" width="1" height="1"/><rect x="98" y="13" width="1" height="1"/><rect x="100" y="13" width="1" height="1"/><rect x="103" y="13" width="1" height="1"/><rect x="107" y="13" width="1" height="1"/><rect x="109" y="13" width="1" height="1"/><rect x="111" y="13" width="1" height="1"/><rect x="118" y="13" width="1" height="1"/><rect x="127" y="13" width="1" height="1"/><rect x="136" y="13" width="1" height="1"/><rect x="139" y="13" width="1" height="1"/><rect x="143" y="13" width="1" height="1"/><rect x="144" y="13" width="1" height="1"/><rect x="147" y="13" width="1" height="1"/><rect x="148" y="13" width="1" height="1"/><rect x="149" y="13" width="1" height="1"/><rect x="155" y="13" width="1" height="1"/><rect x="7" y="14" width="1" height="1"/><rect x="16" y="14" width="1" height="1"/><rect x="19" y="14" width="1" height="1"/><rect x="22" y="14" width="1" height="1"/><rect x="24" y="14" width="1" height="1"/><rect x="26" y="14" width="1" height="1"/><rect x="27" y="14" width="1" height="1"/><rect x="28" y="14" width="1" height="1"/><rect x="36" y="14" width="1" height="1"/><rect x="42" y="14" width="1" height="1"/><rect x="43" y="14" width="1" height="1"/><rect x="45" y="14" width="1" height="1"/><rect x="51" y="14" width="1" height="1"/><rect x="52" y="14" width="1" height="1"/><rect x="65" y="14" width="1" height="1"/><rect x="68" y="14" width="1" height="1"/><rect x="73" y="14" width="1" height="1"/><rect x="74" y="14" width="1" height="1"/><rect x="76" y="14" width="1" height="1"/><rect x="77" y="14" width="1" height="1"/><rect x="79" y="14" width="1" height="1"/><rect x="81" y="14" width="1" height="1"/><rect x="83" y="14" width="1" height="1"/><rect x="85" y="14" width="1" height="1"/><rect x="87" y="14" width="1" height="1"/><rect x="97" y="14" width="1" height="1"/><rect x="98" y="14" width="1" height="1"/><rect x="110" y="14" width="1" height="1"/><rect x="117" y="14" width="1" height="1"/><rect x="118" y="14" width="1" height="1"/><rect x="120" y="14" width="1" height="1"/><rect x="121" y="14" width="1" height="1"/><rect x="124" y="14" width="1" height="1"/><rect x="126" y="14" width="1" height="1"/><rect x="129" y="14" width="1" height="1"/><rect x="135" y="14" width="1" height="1"/><rect x="136" y="14" width="1" height="1"/><rect x="139" y="14" width="1" height="1"/><rect x="141" y="14" width="1" height="1"/><rect x="146" y="14" width="1" height="1"/><rect x="151" y="14" width="1" height="1"/><rect x="153" y="14" width="1" height="1"/><rect x="154" y="14" width="1" height="1"/><rect x="156" y="14" width="1" height="1"/><rect x="9" y="15" width="1" height="1"/><rect x="11" y="15" width="1" height="1"/><rect x="12" y="15" width="1" height="1"/><rect x="21" y="15" width="1" height="1"/><rect x="24" y="15" width="1" height="1"/><rect x="29" y="15" width="1" height="1"/><rect x="32" y="15" width="1" height="1"/><rect x="43" y="15" width="1" height="1"/><rect x="44" y="15" width="1" height="1"/><rect x="46" y="15" width="1" height="1"/><rect x="47" y="15" width="1" height="1"/><rect x="48" y="15" width="1" height="1"/><rect x="55" y="15" width="1" height="1"/><rect x="60" y="15" width="1" height="1"/><rect x="61" y="15" width="1" height="1"/><rect x="64" y="15" width="1" height="1"/><rect x="69" y="15" width="1" height="1"/><rect x="71" y="15" width="1" height="1"/><rect x="77" y="15" width="1" height="1"/><rect x="82" y="15" width="1" height="1"/><rect x="83" y="15" width="1" height="1"/><rect x="84" y="15" width="1" height="1"/><rect x="87" y="15" width="1" height="1"/><rect x="88" y="15" width="1" height="1"/><rect x="91" y="15" width="1" height="1"/><rect x="95" y="15" width="1" height="1"/><rect x="99" y="15" width="1" height="1"/><rect x="100" y="15" width="1" height="1"/><rect x="102" y="15" width="1" height="1"/><rect x="105" y="15" width="1" height="1"/><rect x="107" y="15" width="1" height="1"/><rect x="111" y="15" width="1" height="1"/><rect x="113" y="15" width="1" height="1"/><rect x="121" y="15" width="1" height="1"/><rect x="126" y="15" width="1" height="1"/><rect x="128" y="15" width="1" height="1"/><rect x="130" y="15" width="1" height="1"/><rect x="132" y="15" width="1" height="1"/><rect x="144" y="15" width="1" height="1"/><rect x="145" y="15" width="1" height="1"/><rect x="147" y="15" width="1" height="1"/><rect x="150" y="15" width="1" height="1"/><rect x="151" y="15" width="1" height="1"/><rect x="6" y="16" width="1" height="1"/><rect x="8" y="16" width="1" height="1"/><rect x="12" y="16" width="1" height="1"/><rect x="19" y="16" width="1" height="1"/><rect x="25" y="16" width="1" height="1"/><rect x="39" y="16" width="1" height="1"/><rect x="40" y="16" width="1" height="1"/><rect x="42" y="16" width="1" height="1"/><rect x="43" y="16" width="1" height="1"/><rect x="44" y="16" width="1" height="1"/><rect x="48" y="16" width="1" height="1"/><rect x="49" y="16" width="1" height="1"/><rect x="51" y="16" width="1" height="1"/><rect x="53" y="16" width="1" height="1"/><rect x="55" y="16" width="1" height="1"/><rect x="56" y="16" width="1" height="1"/><rect x="60" y="16" width="1" height="1"/><rect x="64" y="16" width="1" height="1"/><rect x="66" y="16" width="1" height="1"/><rect x="74" y="16" width="1" height="1"/><rect x="85" y="16" width="1" height="1"/><rect x="87" y="16" width="1" height="1"/><rect x="91" y="16" width="1" height="1"/><rect x="92" y="16" width="1" height="1"/><rect x="93" y="16" width="1" height="1"/><rect x="95" y="16" width="1" height="1"/><rect x="98" y="16" width="1" height="1"/><rect x="100" y="16" width="1" height="1"/><rect x="105" y="16" width="1" height="1"/><rect x="107" y="16" width="1" height="1"/><rect x="109" y="16" width="1" height="1"/><rect x="110" y="16" width="1" height="1"/><rect x="117" y="16" width="1" height="1"/><rect x="126" y="16" width="1" height="1"/><rect x="131" y="16" width="1" height="1"/><rect x="156" y="16" width="1" height="1"/><rect x="7" y="17" width="1" height="1"/><rect x="9" y="17" width="1" height="1"/><rect x="16" y="17" width="1" height="1"/><rect x="18" y="17" width="1" height="1"/><rect x="24" y="17" width="1" height="1"/><rect x="28" y="17" width="1" height="1"/><rect x="30" y="17" width="1" height="1"/><rect x="32" y="17" width="1" height="1"/><rect x="36" y="17" width="1" height="1"/><rect x="42" y="17" width="1" height="1"/><rect x="47" y="17" width="1" height="1"/><rect x="49" y="17" width="1" height="1"/><rect x="51" y="17" width="1" height="1"/><rect x="52" y="17" width="1" height="1"/><rect x="56" y="17" width="1" height="1"/><rect x="63" y="17" width="1" height="1"/><rect x="71" y="17" width="1" height="1"/><rect x="73" y="17" width="1" height="1"/><rect x="74" y="17" width="1" height="1"/><rect x="76" y="17" width="1" height="1"/><rect x="80" y="17" width="1" height="1"/><rect x="85" y="17" width="1" height="1"/><rect x="87" y="17" width="1" height="1"/><rect x="89" y="17" width="1" height="1"/><rect x="92" y="17" width="1" height="1"/><rect x="99" y="17" width="1" height="1"/><rect x="102" y="17" width="1" height="1"/><rect x="105" y="17" width="1" height="1"/><rect x="108" y="17" width="1" height="1"/><rect x="112" y="17" width="1" height="1"/><rect x="113" y="17" width="1" height="1"/><rect x="116" y="17" width="1" height="1"/><rect x="122" y="17" width="1" height="1"/><rect x="129" y="17" width="1" height="1"/><rect x="132" y="17" width="1" height="1"/><rect x="137" y="17" width="1" height="1"/><rect x="138" y="17" width="1" height="1"/><rect x="139" y="17" width="1" height="1"/><rect x="144" y="17" width="1" height="1"/><rect x="148" y="17" width="1" height="1"/><rect x="149" y="17" width="1" height="1"/><rect x="154" y="17" width="1" height="1"/><rect x="6" y="18" width="1" height="1"/><rect x="8" y="18" width="1" height="1"/><rect x="9" y="18" width="1" height="1"/><rect x="11" y="18" width="1" height="1"/><rect x="14" y="18" width="1" height="1"/><rect x="15" y="18" width="1" height="1"/><rect x="20" y="18" width="1" height="1"/><rect x="29" y="18" width="1" height="1"/><rect x="30" y="18" width="1" height="1"/><rect x="32" y="18" width="1" height="1"/><rect x="33" y="18" width="1" height="1"/><rect x="35" y="18" width="1" height="1"/><rect x="39" y="18" width="1" height="1"/><rect x="44" y="18" width="1" height="1"/><rect x="45" y="18" width="1" height="1"/><rect x="47" y="18" width="1" height="1"/><rect x="50" y="18" width="1" height="1"/><rect x="53" y="18" width="1" height="1"/><rect x="62" y="18" width="1" height="1"/><rect x="77" y="18" width="1" height="1"/><rect x="78" y="18" width="1" height="1"/><rect x="84" y="18" width="1" height="1"/><rect x="85" y="18" width="1" height="1"/><rect x="87" y="18" width="1" height="1"/><rect x="88" y="18" width="1" height="1"/><rect x="100" y="18" width="1" height="1"/><rect x="104" y="18" width="1" height="1"/><rect x="110" y="18" width="1" height="1"/><rect x="114" y="18" width="1" height="1"/><rect x="121" y="18" width="1" height="1"/><rect x="125" y="18" width="1" height="1"/><rect x="130" y="18" width="1" height="1"/><rect x="134" y="18" width="1" height="1"/><rect x="136" y="18" width="1" height="1"/><rect x="137" y="18" width="1" height="1"/><rect x="139" y="18" width="1" height="1"/><rect x="147" y="18" width="1" height="1"/><rect x="149" y="18" width="1" height="1"/><rect x="150" y="18" width="1" height="1"/><rect x="155" y="18" width="1" height="1"/><rect x="7" y="19" width="1" height="1"/><rect x="16" y="19" width="1" height="1"/><rect x="17" y="19" width="1" height="1"/><rect x="19" y="19" width="1" height="1"/><rect x="26" y="19" width="1" height="1"/><rect x="29" y="19" width="1" height="1"/><rect x="32" y="19" width="1" height="1"/><rect x="35" y="19" width="1" height="1"/><rect x="36" y="19" width="1" height="1"/><rect x="46" y="19" width="1" height="1"/><rect x="49" y="19" width="1" height="1"/><rect x="53" y="19" width="1" height="1"/><rect x="54" y="19" width="1" height="1"/><rect x="56" y="19" width="1" height="1"/><rect x="60" y="19" width="1" height="1"/><rect x="65" y="19" width="1" height="1"/><rect x="66" y="19" width="1" height="1"/><rect x="68" y="19" width="1" height="1"/><rect x="74" y="19" width="1" height="1"/><rect x="77" y="19" width="1" height="1"/><rect x="81" y="19" width="1" height="1"/><rect x="82" y="19" width="1" height="1"/><rect x="83" y="19" width="1" height="1"/><rect x="88" y="19" width="1" height="1"/><rect x="93" y="19" width="1" height="1"/><rect x="95" y="19" width="1" height="1"/><rect x="100" y="19" width="1" height="1"/><rect x="103" y="19" width="1" height="1"/><rect x="110" y="19" width="1" height="1"/><rect x="111" y="19" width="1" height="1"/><rect x="115" y="19" width="1" height="1"/><rect x="119" y="19" width="1" height="1"/><rect x="121" y="19" width="1" height="1"/><rect x="124" y="19" width="1" height="1"/><rect x="133" y="19" width="1" height="1"/><rect x="136" y="19" width="1" height="1"/><rect x="140" y="19" width="1" height="1"/><rect x="143" y="19" width="1" height="1"/><rect x="145" y="19" width="1" height="1"/><rect x="148" y="19" width="1" height="1"/><rect x="152" y="19" width="1" height="1"/><rect x="6" y="20" width="1" height="1"/><rect x="14" y="20" width="1" height="1"/><rect x="16" y="20" width="1" height="1"/><rect x="21" y="20" width="1" height="1"/><rect x="25" y="20" width="1" height="1"/><rect x="28" y="20" width="1" height="1"/><rect x="29" y="20" width="1" height="1"/><rect x="41" y="20" width="1" height="1"/><rect x="43" y="20" width="1" height="1"/><rect x="44" y="20" width="1" height="1"/><rect x="47" y="20" width="1" height="1"/><rect x="48" y="20" width="1" height="1"/><rect x="55" y="20" width="1" height="1"/><rect x="56" y="20" width="1" height="1"/><rect x="58" y="20" width="1" height="1"/><rect x="61" y="20" width="1" height="1"/><rect x="62" y="20" width="1" height="1"/><rect x="64" y="20" width="1" height="1"/><rect x="67" y="20" width="1" height="1"/><rect x="72" y="20" width="1" height="1"/><rect x="75" y="20" width="1" height="1"/><rect x="85" y="20" width="1" height="1"/><rect x="90" y="20" width="1" height="1"/><rect x="93" y="20" width="1" height="1"/><rect x="96" y="20" width="1" height="1"/><rect x="97" y="20" width="1" height="1"/><rect x="104" y="20" width="1" height="1"/><rect x="105" y="20" width="1" height="1"/><rect x="112" y="20" width="1" height="1"/><rect x="113" y="20" width="1" height="1"/><rect x="118" y="20" width="1" height="1"/><rect x="119" y="20" width="1" height="1"/><rect x="121" y="20" width="1" height="1"/><rect x="123" y="20" width="1" height="1"/><rect x="129" y="20" width="1" height="1"/><rect x="133" y="20" width="1" height="1"/><rect x="135" y="20" width="1" height="1"/><rect x="138" y="20" width="1" height="1"/><rect x="142" y="20" width="1" height="1"/><rect x="144" y="20" width="1" height="1"/><rect x="150" y="20" width="1" height="1"/><rect x="153" y="20" width="1" height="1"/><rect x="156" y="20" width="1" height="1"/><rect x="9" y="21" width="1" height="1"/><rect x="17" y="21" width="1" height="1"/><rect x="25" y="21" width="1" height="1"/><rect x="27" y="21" width="1" height="1"/><rect x="33" y="21" width="1" height="1"/><rect x="34" y="21" width="1" height="1"/><rect x="38" y="21" width="1" height="1"/><rect x="44" y="21" width="1" height="1"/><rect x="45" y="21" width="1" height="1"/><rect x="49" y="21" width="1" height="1"/><rect x="53" y="21" width="1" height="1"/><rect x="55" y="21" width="1" height="1"/><rect x="58" y="21" width="1" height="1"/><rect x="63" y="21" width="1" height="1"/><rect x="67" y="21" width="1" height="1"/><rect x="69" y="21" width="1" height="1"/><rect x="74" y="21" width="1" height="1"/><rect x="75" y="21" width="1" height="1"/><rect x="76" y="21" width="1" height="1"/><rect x="80" y="21" width="1" height="1"/><rect x="83" y="21" width="1" height="1"/><rect x="86" y="21" width="1" height="1"/><rect x="87" y="21" width="1" height="1"/><rect x="90" y="21" width="1" height="1"/><rect x="92" y="21" width="1" height="1"/><rect x="93" y="21" width="1" height="1"/><rect x="95" y="21" width="1" height="1"/><rect x="101" y="21" width="1" height="1"/><rect x="105" y="21" width="1" height="1"/><rect x="110" y="21" width="1" height="1"/><rect x="111" y="21" width="1" height="1"/><rect x="116" y="21" width="1" height="1"/><rect x="125" y="21" width="1" height="1"/><rect x="126" y="21" width="1" height="1"/><rect x="128" y="21" width="1" height="1"/><rect x="131" y="21" width="1" height="1"/><rect x="134" y="21" width="1" height="1"/><rect x="137" y="21" width="1" height="1"/><rect x="139" y="21" width="1" height="1"/><rect x="142" y="21" width="1" height="1"/><rect x="150" y="21" width="1" height="1"/><rect x="151" y="21" width="1" height="1"/><rect x="153" y="21" width="1" height="1"/><rect x="9" y="22" width="1" height="1"/><rect x="12" y="22" width="1" height="1"/><rect x="14" y="22" width="1" height="1"/><rect x="16" y="22" width="1" height="1"/><rect x="19" y="22" width="1" height="1"/><rect x="23" y="22" width="1" height="1"/><rect x="31" y="22" width="1" height="1"/><rect x="33" y="22" width="1" height="1"/><rect x="36" y="22" width="1" height="1"/><rect x="37" y="22" width="1" height="1"/><rect x="40" y="22" width="1" height="1"/><rect x="41" y="22" width="1" height="1"/><rect x="50" y="22" width="1" height="1"/><rect x="52" y="22" width="1" height="1"/><rect x="53" y="22" width="1" height="1"/><rect x="56" y="22" width="1" height="1"/><rect x="58" y="22" width="1" height="1"/><rect x="59" y="22" width="1" height="1"/><rect x="61" y="22" width="1" height="1"/><rect x="64" y="22" width="1" height="1"/><rect x="68" y="22" width="1" height="1"/><rect x="72" y="22" width="1" height="1"/><rect x="73" y="22" width="1" height="1"/><rect x="76" y="22" width="1" height="1"/><rect x="83" y="22" width="1" height="1"/><rect x="84" y="22" width="1" height="1"/><rect x="87" y="22" width="1" height="1"/><rect x="88" y="22" width="1" height="1"/><rect x="91" y="22" width="1" height="1"/><rect x="94" y="22" width="1" height="1"/><rect x="96" y="22" width="1" height="1"/><rect x="100" y="22" width="1" height="1"/><rect x="103" y="22" width="1" height="1"/><rect x="110" y="22" width="1" height="1"/><rect x="112" y="22" width="1" height="1"/><rect x="118" y="22" width="1" height="1"/><rect x="121" y="22" width="1" height="1"/><rect x="124" y="22" width="1" height="1"/><rect x="129" y="22" width="1" height="1"/><rect x="130" y="22" width="1" height="1"/><rect x="131" y="22" width="1" height="1"/><rect x="134" y="22" width="1" height="1"/><rect x="137" y="22" width="1" height="1"/><rect x="139" y="22" width="1" height="1"/><rect x="144" y="22" width="1" height="1"/><rect x="145" y="22" width="1" height="1"/><rect x="146" y="22" width="1" height="1"/><rect x="150" y="22" width="1" height="1"/><rect x="152" y="22" width="1" height="1"/><rect x="9" y="23" width="1" height="1"/><rect x="10" y="23" width="1" height="1"/><rect x="13" y="23" width="1" height="1"/><rect x="21" y="23" width="1" height="1"/><rect x="24" y="23" width="1" height="1"/><rect x="26" y="23" width="1" height="1"/><rect x="28" y="23" width="1" height="1"/><rect x="30" y="23" width="1" height="1"/><rect x="32" y="23" width="1" height="1"/><rect x="34" y="23" width="1" height="1"/><rect x="36" y="23" width="1" height="1"/><rect x="39" y="23" width="1" height="1"/><rect x="40" y="23" width="1" height="1"/><rect x="41" y="23" width="1" height="1"/><rect x="45" y="23" width="1" height="1"/><rect x="47" y="23" width="1" height="1"/><rect x="51" y="23" width="1" height="1"/><rect x="53" y="23" width="1" height="1"/><rect x="54" y="23" width="1" height="1"/><rect x="55" y="23" width="1" height="1"/><rect x="57" y="23" width="1" height="1"/><rect x="58" y="23" width="1" height="1"/><rect x="65" y="23" width="1" height="1"/><rect x="67" y="23" width="1" height="1"/><rect x="68" y="23" width="1" height="1"/><rect x="72" y="23" width="1" height="1"/><rect x="73" y="23" width="1" height="1"/><rect x="74" y="23" width="1" height="1"/><rect x="84" y="23" width="1" height="1"/><rect x="87" y="23" width="1" height="1"/><rect x="89" y="23" width="1" height="1"/><rect x="99" y="23" width="1" height="1"/><rect x="101" y="23" width="1" height="1"/><rect x="103" y="23" width="1" height="1"/><rect x="112" y="23" width="1" height="1"/><rect x="113" y="23" width="1" height="1"/><rect x="115" y="23" width="1" height="1"/><rect x="117" y="23" width="1" height="1"/><rect x="118" y="23" width="1" height="1"/><rect x="120" y="23" width="1" height="1"/><rect x="126" y="23" width="1" height="1"/><rect x="130" y="23" width="1" height="1"/><rect x="132" y="23" width="1" height="1"/><rect x="139" y="23" width="1" height="1"/><rect x="141" y="23" width="1" height="1"/><rect x="145" y="23" width="1" height="1"/><rect x="150" y="23" width="1" height="1"/><rect x="151" y="23" width="1" height="1"/><rect x="153" y="23" width="1" height="1"/><rect x="156" y="23" width="1" height="1"/><rect x="18" y="24" width="1" height="1"/><rect x="24" y="24" width="1" height="1"/><rect x="31" y="24" width="1" height="1"/><rect x="36" y="24" width="1" height="1"/><rect x="39" y="24" width="1" height="1"/><rect x="40" y="24" width="1" height="1"/><rect x="44" y="24" width="1" height="1"/><rect x="45" y="24" width="1" height="1"/><rect x="58" y="24" width="1" height="1"/><rect x="59" y="24" width="1" height="1"/><rect x="60" y="24" width="1" height="1"/><rect x="62" y="24" width="1" height="1"/><rect x="63" y="24" width="1" height="1"/><rect x="64" y="24" width="1" height="1"/><rect x="66" y="24" width="1" height="1"/><rect x="68" y="24" width="1" height="1"/><rect x="72" y="24" width="1" height="1"/><rect x="74" y="24" width="1" height="1"/><rect x="76" y="24" width="1" height="1"/><rect x="81" y="24" width="1" height="1"/><rect x="82" y="24" width="1" height="1"/><rect x="91" y="24" width="1" height="1"/><rect x="92" y="24" width="1" height="1"/><rect x="96" y="24" width="1" height="1"/><rect x="98" y="24" width="1" height="1"/><rect x="104" y="24" width="1" height="1"/><rect x="106" y="24" width="1" height="1"/><rect x="107" y="24" width="1" height="1"/><rect x="117" y="24" width="1" height="1"/><rect x="119" y="24" width="1" height="1"/><rect x="125" y="24" width="1" height="1"/><rect x="138" y="24" width="1" height="1"/><rect x="150" y="24" width="1" height="1"/><rect x="152" y="24" width="1" height="1"/><rect x="154" y="24" width="1" height="1"/><rect x="156" y="24" width="1" height="1"/><rect x="6" y="25" width="1" height="1"/><rect x="12" y="25" width="1" height="1"/><rect x="14" y="25" width="1" height="1"/><rect x="17" y="25" width="1" height="1"/><rect x="19" y="25" width="1" height="1"/><rect x="20" y="25" width="1" height="1"/><rect x="22" y="25" width="1" height="1"/><rect x="26" y="25" width="1" height="1"/><rect x="27" y="25" width="1" height="1"/><rect x="32" y="25" width="1" height="1"/><rect x="34" y="25" width="1" height="1"/><rect x="44" y="25" width="1" height="1"/><rect x="46" y="25" width="1" height="1"/><rect x="50" y="25" width="1" height="1"/><rect x="58" y="25" width="1" height="1"/><rect x="61" y="25" width="1" height="1"/><rect x="65" y="25" width="1" height="1"/><rect x="67" y="25" width="1" height="1"/><rect x="70" y="25" width="1" height="1"/><rect x="71" y="25" width="1" height="1"/><rect x="75" y="25" width="1" height="1"/><rect x="82" y="25" width="1" height="1"/><rect x="83" y="25" width="1" height="1"/><rect x="85" y="25" width="1" height="1"/><rect x="86" y="25" width="1" height="1"/><rect x="88" y="25" width="1" height="1"/><rect x="91" y="25" width="1" height="1"/><rect x="92" y="25" width="1" height="1"/><rect x="97" y="25" width="1" height="1"/><rect x="106" y="25" width="1" height="1"/><rect x="117" y="25" width="1" height="1"/><rect x="122" y="25" width="1" height="1"/><rect x="125" y="25" width="1" height="1"/><rect x="127" y="25" width="1" height="1"/><rect x="128" y="25" width="1" height="1"/><rect x="133" y="25" width="1" height="1"/><rect x="134" y="25" width="1" height="1"/><rect x="135" y="25" width="1" height="1"/><rect x="137" y="25" width="1" height="1"/><rect x="144" y="25" width="1" height="1"/><rect x="146" y="25" width="1" height="1"/><rect x="147" y="25" width="1" height="1"/><rect x="155" y="25" width="1" height="1"/><rect x="8" y="26" width="1" height="1"/><rect x="10" y="26" width="1" height="1"/><rect x="12" y="26" width="1" height="1"/><rect x="13" y="26" width="1" height="1"/><rect x="15" y="26" width="1" height="1"/><rect x="24" y="26" width="1" height="1"/><rect x="27" y="26" width="1" height="1"/><rect x="28" y="26" width="1" height="1"/><rect x="30" y="26" width="1" height="1"/><rect x="34" y="26" width="1" height="1"/><rect x="38" y="26" width="1" height="1"/><rect x="39" y="26" width="1" height="1"/><rect x="42" y="26" width="1" height="1"/><rect x="46" y="26" width="1" height="1"/><rect x="48" y="26" width="1" height="1"/><rect x="49" y="26" width="1" height="1"/><rect x="51" y="26" width="1" height="1"/><rect x="52" y="26" width="1" height="1"/><rect x="57" y="26" width="1" height="1"/><rect x="63" y="26" width="1" height="1"/><rect x="67" y="26" width="1" height="1"/><rect x="69" y="26" width="1" height="1"/><rect x="71" y="26" width="1" height="1"/><rect x="75" y="26" width="1" height="1"/><rect x="79" y="26" width="1" height="1"/><rect x="84" y="26" width="1" height="1"/><rect x="87" y="26" width="1" height="1"/><rect x="88" y="26" width="1" height="1"/><rect x="90" y="26" width="1" height="1"/><rect x="93" y="26" width="1" height="1"/><rect x="94" y="26" width="1" height="1"/><rect x="95" y="26" width="1" height="1"/><rect x="99" y="26" width="1" height="1"/><rect x="103" y="26" width="1" height="1"/><rect x="105" y="26" width="1" height="1"/><rect x="108" y="26" width="1" height="1"/><rect x="117" y="26" width="1" height="1"/><rect x="119" y="26" width="1" height="1"/><rect x="120" y="26" width="1" height="1"/><rect x="125" y="26" width="1" height="1"/><rect x="126" y="26" width="1" height="1"/><rect x="134" y="26" width="1" height="1"/><rect x="135" y="26" width="1" height="1"/><rect x="138" y="26" width="1" height="1"/><rect x="139" y="26" width="1" height="1"/><rect x="140" y="26" width="1" height="1"/><rect x="148" y="26" width="1" height="1"/><rect x="151" y="26" width="1" height="1"/><rect x="152" y="26" width="1" height="1"/><rect x="156" y="26" width="1" height="1"/><rect x="9" y="27" width="1" height="1"/><rect x="15" y="27" width="1" height="1"/><rect x="17" y="27" width="1" height="1"/><rect x="20" y="27" width="1" height="1"/><rect x="21" y="27" width="1" height="1"/><rect x="23" y="27" width="1" height="1"/><rect x="32" y="27" width="1" height="1"/><rect x="35" y="27" width="1" height="1"/><rect x="37" y="27" width="1" height="1"/><rect x="40" y="27" width="1" height="1"/><rect x="44" y="27" width="1" height="1"/><rect x="49" y="27" width="1" height="1"/><rect x="52" y="27" width="1" height="1"/><rect x="55" y="27" width="1" height="1"/><rect x="58" y="27" width="1" height="1"/><rect x="61" y="27" width="1" height="1"/><rect x="65" y="27" width="1" height="1"/><rect x="68" y="27" width="1" height="1"/><rect x="69" y="27" width="1" height="1"/><rect x="70" y="27" width="1" height="1"/><rect x="73" y="27" width="1" height="1"/><rect x="76" y="27" width="1" height="1"/><rect x="79" y="27" width="1" height="1"/><rect x="82" y="27" width="1" height="1"/><rect x="84" y="27" width="1" height="1"/><rect x="85" y="27" width="1" height="1"/><rect x="88" y="27" width="1" height="1"/><rect x="91" y="27" width="1" height="1"/><rect x="94" y="27" width="1" height="1"/><rect x="98" y="27" width="1" height="1"/><rect x="102" y="27" width="1" height="1"/><rect x="105" y="27" width="1" height="1"/><rect x="107" y="27" width="1" height="1"/><rect x="108" y="27" width="1" height="1"/><rect x="111" y="27" width="1" height="1"/><rect x="115" y="27" width="1" height="1"/><rect x="117" y="27" width="1" height="1"/><rect x="119" y="27" width="1" height="1"/><rect x="123" y="27" width="1" height="1"/><rect x="125" y="27" width="1" height="1"/><rect x="128" y="27" width="1" height="1"/><rect x="131" y="27" width="1" height="1"/><rect x="132" y="27" width="1" height="1"/><rect x="133" y="27" width="1" height="1"/><rect x="135" y="27" width="1" height="1"/><rect x="137" y="27" width="1" height="1"/><rect x="140" y="27" width="1" height="1"/><rect x="143" y="27" width="1" height="1"/><rect x="4" y="28" width="1" height="1"/><rect x="11" y="28" width="1" height="1"/><rect x="0" y="29" width="1" height="1"/><rect x="3" y="29" width="1" height="1"/><rect x="4" y="29" width="1" height="1"/><rect x="6" y="29" width="1" height="1"/><rect x="11" y="29" width="1" height="1"/><rect x="12" y="29" width="1" height="1"/><rect x="14" y="29" width="1" height="1"/><rect x="15" y="29" width="1" height="1"/><rect x="20" y="29" width="1" height="1"/><rect x="27" y="29" width="1" height="1"/><rect x="34" y="29" width="1" height="1"/><rect x="35" y="29" width="1" height="1"/><rect x="46" y="29" width="1" height="1"/><rect x="64" y="29" width="1" height="1"/><rect x="70" y="29" width="1" height="1"/><rect x="78" y="29" width="1" height="1"/><rect x="80" y="29" width="1" height="1"/><rect x="81" y="29" width="1" height="1"/><rect x="87" y="29" width="1" height="1"/><rect x="94" y="29" width="1" height="1"/><rect x="98" y="29" width="1" height="1"/><rect x="100" y="29" width="1" height="1"/><rect x="102" y="29" width="1" height="1"/><rect x="103" y="29" width="1" height="1"/><rect x="104" y="29" width="1" height="1"/><rect x="106" y="29" width="1" height="1"/><rect x="107" y="29" width="1" height="1"/></svg>